#define _109_width 75
#define _109_height 100
static char _109_bits[] = {
  0x00, 0x00, 0x00, 0x00, 0x00, 0x00, 0x00, 0x00, 0x00, 0x00, 0x00, 0x00, 
  0x00, 0x00, 0x00, 0x00, 0x00, 0x00, 0x00, 0x00, 0x00, 0x00, 0x00, 0x00, 
  0x00, 0x00, 0x00, 0x00, 0x00, 0x00, 0x00, 0x00, 0x00, 0x00, 0x00, 0x00, 
  0x00, 0x00, 0x00, 0x00, 0x00, 0x00, 0x00, 0x00, 0x00, 0x00, 0x00, 0x00, 
  0x00, 0x00, 0x00, 0x00, 0x00, 0x00, 0x00, 0x00, 0x00, 0x00, 0x00, 0x00, 
  0x00, 0x00, 0x00, 0x00, 0x00, 0x00, 0x00, 0x00, 0x00, 0x00, 0x00, 0x00, 
  0x00, 0x00, 0x00, 0x00, 0x00, 0x00, 0x00, 0x00, 0x00, 0x00, 0x00, 0x00, 
  0x00, 0x00, 0x00, 0x00, 0x00, 0x00, 0x00, 0x00, 0x00, 0x00, 0x00, 0x00, 
  0x00, 0x00, 0x00, 0x00, 0x00, 0x00, 0x00, 0x00, 0x00, 0x00, 0x00, 0x00, 
  0x00, 0x00, 0x00, 0x00, 0x00, 0x00, 0x00, 0x00, 0x00, 0x00, 0x00, 0x00, 
  0x00, 0x00, 0x00, 0x00, 0x00, 0x00, 0x00, 0x00, 0x00, 0x00, 0x00, 0x00, 
  0x00, 0x00, 0x00, 0x00, 0x00, 0x00, 0x00, 0x00, 0x00, 0x00, 0x00, 0x00, 
  0x00, 0x00, 0x00, 0x00, 0x00, 0x00, 0x00, 0x00, 0x00, 0x00, 0x00, 0x00, 
  0x00, 0x00, 0x00, 0x00, 0x00, 0x00, 0x00, 0x00, 0x00, 0x00, 0x00, 0x00, 
  0x00, 0x00, 0x00, 0x00, 0x00, 0x00, 0x00, 0x00, 0x00, 0x00, 0x00, 0x00, 
  0x00, 0x00, 0x00, 0x00, 0x00, 0x00, 0x00, 0x00, 0x00, 0x00, 0x00, 0x00, 
  0x00, 0x00, 0x00, 0x00, 0x00, 0x00, 0x00, 0x00, 0x00, 0x00, 0x00, 0x00, 
  0x00, 0x00, 0x00, 0x00, 0x00, 0x00, 0x00, 0x00, 0x00, 0x00, 0x00, 0x00, 
  0x00, 0x00, 0x00, 0x00, 0x00, 0x00, 0x00, 0x00, 0x00, 0x00, 0x00, 0x00, 
  0x00, 0x00, 0x00, 0x00, 0x00, 0x00, 0x00, 0x00, 0x00, 0x00, 0x00, 0x00, 
  0x00, 0x00, 0x00, 0x00, 0x00, 0x00, 0x00, 0x00, 0x00, 0x00, 0x00, 0x00, 
  0x00, 0x00, 0x00, 0x00, 0x00, 0x00, 0x00, 0x00, 0x00, 0x00, 0x00, 0x00, 
  0x00, 0x00, 0x00, 0x00, 0x00, 0x00, 0x00, 0x00, 0x00, 0x00, 0x00, 0x00, 
  0x00, 0x00, 0x00, 0x00, 0x00, 0x00, 0x00, 0x00, 0x00, 0x00, 0x00, 0x00, 
  0x00, 0x00, 0x00, 0x00, 0x00, 0x00, 0x00, 0x00, 0x00, 0x00, 0x00, 0x00, 
  0x00, 0x00, 0x00, 0x00, 0x00, 0x00, 0x00, 0x00, 0x00, 0x00, 0x00, 0x00, 
  0x00, 0x00, 0x00, 0x00, 0x00, 0x00, 0x00, 0x00, 0x00, 0x00, 0x00, 0x00, 
  0x00, 0x00, 0x00, 0x00, 0x00, 0x00, 0x00, 0x00, 0x00, 0x00, 0x00, 0x00, 
  0x00, 0x00, 0x00, 0x00, 0x00, 0x00, 0x00, 0x00, 0x00, 0x00, 0x00, 0x00, 
  0x00, 0x00, 0x00, 0x03, 0x00, 0x00, 0x00, 0x00, 0x00, 0x00, 0x00, 0x00, 
  0xE0, 0x03, 0xFF, 0xFF, 0x03, 0xFC, 0xFF, 0x3F, 0x00, 0x00, 0xE0, 0x87, 
  0xFF, 0xFF, 0x07, 0xFE, 0xFF, 0x7F, 0x00, 0x00, 0xE0, 0xC7, 0xFF, 0xFF, 
  0x0F, 0xFF, 0xFF, 0xFF, 0x00, 0x00, 0xE0, 0xE7, 0xFF, 0xFF, 0x9F, 0xFF, 
  0xFF, 0xFF, 0x01, 0x00, 0xE0, 0xF7, 0xFF, 0xFF, 0xFF, 0xFF, 0xFF, 0xFF, 
  0x03, 0x00, 0xC0, 0xFF, 0xFF, 0xFF, 0xFF, 0xFF, 0xFF, 0xFF, 0x07, 0x00, 
  0xC0, 0xFF, 0x03, 0x00, 0xFF, 0x0F, 0x00, 0xF8, 0x0F, 0x00, 0xC0, 0xFF, 
  0x01, 0x00, 0xFE, 0x07, 0x00, 0xF0, 0x0F, 0x00, 0xC0, 0xFF, 0x00, 0x00, 
  0xFC, 0x03, 0x00, 0xE0, 0x0F, 0x00, 0x80, 0x7F, 0x00, 0x00, 0xFC, 0x01, 
  0x00, 0xC0, 0x0F, 0x00, 0x80, 0x3F, 0x00, 0x00, 0xF8, 0x01, 0x00, 0x80, 
  0x0F, 0x00, 0x80, 0x1F, 0x00, 0x00, 0xF8, 0x01, 0x00, 0x80, 0x0F, 0x00, 
  0x80, 0x1F, 0x00, 0x00, 0xF8, 0x01, 0x00, 0x80, 0x0F, 0x00, 0x80, 0x1F, 
  0x00, 0x00, 0xF8, 0x01, 0x00, 0x80, 0x0F, 0x00, 0x80, 0x1F, 0x00, 0x00, 
  0xF8, 0x01, 0x00, 0x80, 0x0F, 0x00, 0x80, 0x1F, 0x00, 0x00, 0xF8, 0x01, 
  0x00, 0x80, 0x0F, 0x00, 0x80, 0x1F, 0x00, 0x00, 0xF8, 0x01, 0x00, 0x80, 
  0x0F, 0x00, 0x80, 0x1F, 0x00, 0x00, 0xF8, 0x01, 0x00, 0x80, 0x0F, 0x00, 
  0x80, 0x1F, 0x00, 0x00, 0xF8, 0x01, 0x00, 0x80, 0x0F, 0x00, 0x80, 0x1F, 
  0x00, 0x00, 0xF8, 0x01, 0x00, 0x80, 0x0F, 0x00, 0x80, 0x1F, 0x00, 0x00, 
  0xF8, 0x01, 0x00, 0x80, 0x0F, 0x00, 0x80, 0x1F, 0x00, 0x00, 0xF8, 0x01, 
  0x00, 0x80, 0x0F, 0x00, 0x80, 0x1F, 0x00, 0x00, 0xF8, 0x01, 0x00, 0x80, 
  0x0F, 0x00, 0x80, 0x1F, 0x00, 0x00, 0xF8, 0x01, 0x00, 0x80, 0x0F, 0x00, 
  0x80, 0x1F, 0x00, 0x00, 0xF8, 0x01, 0x00, 0x80, 0x0F, 0x00, 0x80, 0x1F, 
  0x00, 0x00, 0xF8, 0x01, 0x00, 0x80, 0x0F, 0x00, 0x80, 0x1F, 0x00, 0x00, 
  0xF8, 0x01, 0x00, 0x80, 0x0F, 0x00, 0x80, 0x1F, 0x00, 0x00, 0xF8, 0x01, 
  0x00, 0x80, 0x0F, 0x00, 0x80, 0x1F, 0x00, 0x00, 0xF8, 0x01, 0x00, 0x80, 
  0x0F, 0x00, 0x80, 0x1F, 0x00, 0x00, 0xF8, 0x01, 0x00, 0x80, 0x0F, 0x00, 
  0x80, 0x1F, 0x00, 0x00, 0xF8, 0x01, 0x00, 0x80, 0x0F, 0x00, 0x80, 0x1F, 
  0x00, 0x00, 0xF8, 0x01, 0x00, 0x80, 0x0F, 0x00, 0x80, 0x1F, 0x00, 0x00, 
  0xF8, 0x01, 0x00, 0x80, 0x0F, 0x00, 0x80, 0x1F, 0x00, 0x00, 0xF8, 0x01, 
  0x00, 0x80, 0x0F, 0x00, 0x80, 0x1F, 0x00, 0x00, 0xF8, 0x01, 0x00, 0x80, 
  0x0F, 0x00, 0x80, 0x1F, 0x00, 0x00, 0xF8, 0x01, 0x00, 0x80, 0x0F, 0x00, 
  0x80, 0x1F, 0x00, 0x00, 0xF8, 0x01, 0x00, 0x80, 0x0F, 0x00, 0x80, 0x1F, 
  0x00, 0x00, 0xF8, 0x01, 0x00, 0x80, 0x0F, 0x00, 0x80, 0x1F, 0x00, 0x00, 
  0xF8, 0x01, 0x00, 0x80, 0x0F, 0x00, 0x80, 0x1F, 0x00, 0x00, 0xF8, 0x01, 
  0x00, 0x80, 0x0F, 0x00, 0x80, 0x1F, 0x00, 0x00, 0xF8, 0x01, 0x00, 0x80, 
  0x0F, 0x00, 0x80, 0x1F, 0x00, 0x00, 0xF8, 0x01, 0x00, 0x80, 0x0F, 0x00, 
  0x80, 0x1F, 0x00, 0x00, 0xF8, 0x01, 0x00, 0x80, 0x0F, 0x00, 0x80, 0x1F, 
  0x00, 0x00, 0xF8, 0x01, 0x00, 0x80, 0x0F, 0x00, 0x80, 0x1F, 0x00, 0x00, 
  0xF8, 0x01, 0x00, 0x80, 0x0F, 0x00, 0x80, 0x1F, 0x00, 0x00, 0xF8, 0x01, 
  0x00, 0x80, 0x0F, 0x00, 0x80, 0x1F, 0x00, 0x00, 0xF8, 0x01, 0x00, 0x80, 
  0x0F, 0x00, 0x00, 0x00, 0x00, 0x00, 0x00, 0x00, 0x00, 0x00, 0x00, 0x00, 
  0x00, 0x00, 0x00, 0x00, 0x00, 0x00, 0x00, 0x00, 0x00, 0x00, 0x00, 0x00, 
  0x00, 0x00, 0x00, 0x00, 0x00, 0x00, 0x00, 0x00, 0x00, 0x00, 0x00, 0x00, 
  0x00, 0x00, 0x00, 0x00, 0x00, 0x00, 0x00, 0x00, 0x00, 0x00, 0x00, 0x00, 
  0x00, 0x00, 0x00, 0x00, 0x00, 0x00, 0x00, 0x00, 0x00, 0x00, 0x00, 0x00, 
  0x00, 0x00, 0x00, 0x00, 0x00, 0x00, 0x00, 0x00, 0x00, 0x00, 0x00, 0x00, 
  0x00, 0x00, 0x00, 0x00, 0x00, 0x00, 0x00, 0x00, 0x00, 0x00, 0x00, 0x00, 
  0x00, 0x00, 0x00, 0x00, 0x00, 0x00, 0x00, 0x00, 0x00, 0x00, 0x00, 0x00, 
  0x00, 0x00, 0x00, 0x00, 0x00, 0x00, 0x00, 0x00, 0x00, 0x00, 0x00, 0x00, 
  0x00, 0x00, 0x00, 0x00, 0x00, 0x00, 0x00, 0x00, 0x00, 0x00, 0x00, 0x00, 
  0x00, 0x00, 0x00, 0x00, 0x00, 0x00, 0x00, 0x00, 0x00, 0x00, 0x00, 0x00, 
  0x00, 0x00, 0x00, 0x00, 0x00, 0x00, 0x00, 0x00, 0x00, 0x00, 0x00, 0x00, 
  0x00, 0x00, 0x00, 0x00, 0x00, 0x00, 0x00, 0x00, 0x00, 0x00, 0x00, 0x00, 
  0x00, 0x00, 0x00, 0x00, 0x00, 0x00, 0x00, 0x00, 0x00, 0x00, 0x00, 0x00, 
  0x00, 0x00, 0x00, 0x00, };
