#define _037_width 41
#define _037_height 70
static char _037_bits[] = {
  0x00, 0x00, 0x00, 0x00, 0x00, 0x00, 0x00, 0x00, 0x00, 0x00, 0x00, 0x00, 
  0x00, 0x00, 0x00, 0x00, 0x00, 0x00, 0x00, 0x00, 0x00, 0x00, 0x00, 0x00, 
  0x00, 0x00, 0x00, 0x00, 0x00, 0x00, 0x00, 0x00, 0x00, 0x00, 0x00, 0x00, 
  0x00, 0x00, 0x00, 0x00, 0x00, 0x00, 0x00, 0x00, 0x00, 0x00, 0x00, 0x00, 
  0x00, 0x00, 0x00, 0x00, 0x00, 0x00, 0x00, 0x00, 0x00, 0x00, 0x00, 0x00, 
  0x00, 0x00, 0x00, 0x00, 0x00, 0x00, 0x00, 0x00, 0x00, 0x00, 0x00, 0x00, 
  0x00, 0x00, 0x00, 0x00, 0x00, 0x00, 0x00, 0x00, 0x00, 0x00, 0x00, 0x00, 
  0x00, 0x00, 0x00, 0x00, 0x00, 0x00, 0x00, 0x00, 0x00, 0x00, 0x00, 0x00, 
  0x00, 0x00, 0x00, 0x00, 0x00, 0x00, 0x00, 0x00, 0x00, 0x00, 0x00, 0x00, 
  0x00, 0x00, 0x00, 0x00, 0x00, 0x00, 0x00, 0x00, 0x00, 0x00, 0x00, 0x00, 
  0x00, 0x00, 0x00, 0x00, 0x01, 0x00, 0x00, 0x00, 0x00, 0x80, 0x01, 0x00, 
  0x00, 0x00, 0x00, 0xC0, 0x01, 0x00, 0x00, 0x00, 0x00, 0xE0, 0x00, 0x00, 
  0x00, 0x00, 0x00, 0xE0, 0x00, 0x00, 0x00, 0x00, 0x00, 0x70, 0x00, 0x00, 
  0xC0, 0x07, 0x00, 0x78, 0x00, 0x00, 0xE0, 0x1F, 0x00, 0x38, 0x00, 0x00, 
  0xE0, 0x3F, 0x00, 0x3C, 0x00, 0x00, 0xF0, 0x7F, 0x00, 0x1E, 0x00, 0x00, 
  0x70, 0x78, 0x00, 0x0E, 0x00, 0x00, 0x70, 0x70, 0x00, 0x0F, 0x00, 0x00, 
  0x38, 0x70, 0x00, 0x07, 0x00, 0x00, 0x30, 0x70, 0x80, 0x07, 0x00, 0x00, 
  0xF0, 0x78, 0xC0, 0x03, 0x00, 0x00, 0xE0, 0x3F, 0xC0, 0x01, 0x00, 0x00, 
  0xC0, 0x1F, 0xE0, 0x01, 0x00, 0x00, 0x00, 0x03, 0xF0, 0x00, 0x00, 0x00, 
  0x00, 0x00, 0xF0, 0x00, 0x00, 0x00, 0x00, 0x00, 0x78, 0x00, 0x00, 0x00, 
  0x00, 0x00, 0x38, 0x00, 0x00, 0x00, 0x00, 0x00, 0x3C, 0x00, 0x00, 0x00, 
  0x00, 0x00, 0x1E, 0x00, 0x00, 0x00, 0x00, 0x00, 0x0E, 0x00, 0x00, 0x00, 
  0x00, 0x00, 0x0F, 0x00, 0x00, 0x00, 0x00, 0x00, 0x07, 0x00, 0x00, 0x00, 
  0x00, 0x80, 0x07, 0x00, 0x00, 0x00, 0x00, 0xC0, 0x03, 0x0F, 0x00, 0x00, 
  0x00, 0xC0, 0xC1, 0x1F, 0x00, 0x00, 0x00, 0xE0, 0xC1, 0x3F, 0x00, 0x00, 
  0x00, 0xE0, 0xE0, 0x7F, 0x00, 0x00, 0x00, 0xF0, 0xF0, 0x7F, 0x00, 0x00, 
  0x00, 0x78, 0xF0, 0x7F, 0x00, 0x00, 0x00, 0x38, 0xE0, 0x7F, 0x00, 0x00, 
  0x00, 0x3C, 0xE0, 0x7F, 0x00, 0x00, 0x00, 0x1C, 0xE0, 0x7F, 0x00, 0x00, 
  0x00, 0x1E, 0xC0, 0x3F, 0x00, 0x00, 0x00, 0x0F, 0x00, 0x0F, 0x00, 0x00, 
  0x00, 0x07, 0x00, 0x00, 0x00, 0x00, 0x80, 0x07, 0x00, 0x00, 0x00, 0x00, 
  0x80, 0x03, 0x00, 0x00, 0x00, 0x00, 0xC0, 0x03, 0x00, 0x00, 0x00, 0x00, 
  0xE0, 0x01, 0x00, 0x00, 0x00, 0x00, 0xE0, 0x00, 0x00, 0x00, 0x00, 0x00, 
  0xE0, 0x00, 0x00, 0x00, 0x00, 0x00, 0x60, 0x00, 0x00, 0x00, 0x00, 0x00, 
  0x00, 0x00, 0x00, 0x00, 0x00, 0x00, 0x00, 0x00, 0x00, 0x00, 0x00, 0x00, 
  0x00, 0x00, 0x00, 0x00, 0x00, 0x00, 0x00, 0x00, 0x00, 0x00, 0x00, 0x00, 
  };
