#define _105_width 20
#define _105_height 70
static char _105_bits[] = {
  0x00, 0x00, 0x00, 0x00, 0x00, 0x00, 0x00, 0x00, 0x00, 0x00, 0x00, 0x00, 
  0x00, 0x00, 0x00, 0x00, 0x00, 0x00, 0x00, 0x00, 0x00, 0x00, 0x00, 0x00, 
  0x00, 0x00, 0x00, 0x00, 0x00, 0x00, 0x00, 0x00, 0x00, 0x00, 0x00, 0x00, 
  0x00, 0x00, 0x00, 0x00, 0x00, 0x00, 0x00, 0x00, 0x00, 0x00, 0x00, 0x00, 
  0x00, 0x00, 0x00, 0x80, 0x01, 0x00, 0xC0, 0x03, 0x00, 0x60, 0x07, 0x00, 
  0x70, 0x06, 0x00, 0x30, 0x06, 0x00, 0x70, 0x07, 0x00, 0xF0, 0x07, 0x00, 
  0xE0, 0x03, 0x00, 0x00, 0x00, 0x00, 0x00, 0x00, 0x00, 0x00, 0x00, 0x00, 
  0xE0, 0x07, 0x00, 0xF0, 0x0F, 0x00, 0x70, 0x1F, 0x00, 0x70, 0x1C, 0x00, 
  0x30, 0x18, 0x00, 0x30, 0x18, 0x00, 0x30, 0x18, 0x00, 0x30, 0x18, 0x00, 
  0x30, 0x18, 0x00, 0x30, 0x18, 0x00, 0x30, 0x18, 0x00, 0x70, 0x18, 0x00, 
  0x70, 0x18, 0x00, 0x70, 0x1C, 0x00, 0xF0, 0x1E, 0x00, 0xF0, 0x1F, 0x00, 
  0xF0, 0x1F, 0x00, 0xF0, 0x1F, 0x00, 0xF0, 0x1F, 0x00, 0xF0, 0x1F, 0x00, 
  0xF0, 0x1F, 0x00, 0xF0, 0x1F, 0x00, 0xF0, 0x1F, 0x00, 0xF0, 0x1F, 0x00, 
  0xF0, 0x1F, 0x00, 0xF0, 0x1F, 0x00, 0xF0, 0x1F, 0x00, 0xF0, 0x1F, 0x00, 
  0xF0, 0x1F, 0x00, 0xF0, 0x1F, 0x00, 0xF0, 0x1F, 0x00, 0xE0, 0x1F, 0x00, 
  0xE0, 0x1F, 0x00, 0xC0, 0x0F, 0x00, 0x80, 0x0F, 0x00, 0x00, 0x00, 0x00, 
  0x00, 0x00, 0x00, 0x00, 0x00, 0x00, 0x00, 0x00, 0x00, 0x00, 0x00, 0x00, 
  0x00, 0x00, 0x00, 0x00, 0x00, 0x00, };
