#define _112_width 63
#define _112_height 124
static char _112_bits[] = {
  0x00, 0x00, 0x00, 0x00, 0x00, 0x00, 0x00, 0x00, 0x00, 0x00, 0x00, 0x00, 
  0x00, 0x00, 0x00, 0x00, 0x00, 0x00, 0x00, 0x00, 0x00, 0x00, 0x00, 0x00, 
  0x00, 0x00, 0x00, 0x00, 0x00, 0x00, 0x00, 0x00, 0x00, 0x00, 0x00, 0x00, 
  0x00, 0x00, 0x00, 0x00, 0x00, 0x00, 0x00, 0x00, 0x00, 0x00, 0x00, 0x00, 
  0x00, 0xE0, 0xFF, 0xFF, 0xFF, 0xFF, 0x1F, 0x00, 0x00, 0xC8, 0xFF, 0xFF, 
  0xFF, 0xFF, 0x3F, 0x00, 0x00, 0xD8, 0xFF, 0xFF, 0xFF, 0xFF, 0x7F, 0x00, 
  0x00, 0xB8, 0xFF, 0xFF, 0xFF, 0xFF, 0xFF, 0x00, 0x00, 0x38, 0xFF, 0xFF, 
  0xFF, 0xFF, 0xFF, 0x01, 0x00, 0x78, 0xFE, 0xFF, 0xFF, 0xFF, 0xFF, 0x01, 
  0x00, 0xF8, 0xFC, 0xFF, 0xFF, 0xFF, 0x7F, 0x02, 0x00, 0xFC, 0xF9, 0xFF, 
  0xFF, 0xFF, 0x3F, 0x07, 0x00, 0xFC, 0xFB, 0xFF, 0xFF, 0xFF, 0xDF, 0x0F, 
  0x00, 0xFC, 0xF7, 0xFF, 0xFF, 0xFF, 0xEF, 0x1F, 0x00, 0xFC, 0x0F, 0x00, 
  0x00, 0x00, 0xF0, 0x3F, 0x00, 0xFC, 0x0F, 0x00, 0x00, 0x00, 0xF0, 0x3F, 
  0x00, 0xFC, 0x0F, 0x00, 0x00, 0x00, 0xF0, 0x3F, 0x00, 0xFC, 0x0F, 0x00, 
  0x00, 0x00, 0xF8, 0x3F, 0x00, 0xFE, 0x07, 0x00, 0x00, 0x00, 0xF8, 0x1F, 
  0x00, 0xFE, 0x07, 0x00, 0x00, 0x00, 0xF8, 0x1F, 0x00, 0xFE, 0x07, 0x00, 
  0x00, 0x00, 0xF8, 0x1F, 0x00, 0xFE, 0x07, 0x00, 0x00, 0x00, 0xF8, 0x1F, 
  0x00, 0xFE, 0x07, 0x00, 0x00, 0x00, 0xF8, 0x1F, 0x00, 0xFE, 0x07, 0x00, 
  0x00, 0x00, 0xF8, 0x1F, 0x00, 0xFE, 0x07, 0x00, 0x00, 0x00, 0xFC, 0x1F, 
  0x00, 0xFF, 0x07, 0x00, 0x00, 0x00, 0xFC, 0x0F, 0x00, 0xFF, 0x03, 0x00, 
  0x00, 0x00, 0xFC, 0x0F, 0x00, 0xFF, 0x03, 0x00, 0x00, 0x00, 0xFC, 0x0F, 
  0x00, 0xFF, 0x03, 0x00, 0x00, 0x00, 0xFC, 0x0F, 0x00, 0xFF, 0x03, 0x00, 
  0x00, 0x00, 0xFC, 0x0F, 0x00, 0xFF, 0x03, 0x00, 0x00, 0x00, 0xFC, 0x0F, 
  0x00, 0xFF, 0x03, 0x00, 0x00, 0x00, 0xFE, 0x0F, 0x80, 0xFF, 0x03, 0x00, 
  0x00, 0x00, 0xFE, 0x07, 0x80, 0xFF, 0x01, 0x00, 0x00, 0x00, 0xFE, 0x07, 
  0x80, 0xFF, 0x01, 0x00, 0x00, 0x00, 0xFE, 0x07, 0x80, 0xFF, 0x01, 0x00, 
  0x00, 0x00, 0xFE, 0x07, 0x80, 0xFF, 0x01, 0x00, 0x00, 0x00, 0xFE, 0x07, 
  0x80, 0xFF, 0x01, 0x00, 0x00, 0x00, 0xFE, 0x07, 0x80, 0xFF, 0x01, 0x00, 
  0x00, 0x00, 0xFE, 0x07, 0xC0, 0xFF, 0x01, 0x00, 0x00, 0x00, 0xFF, 0x03, 
  0xC0, 0xFF, 0x00, 0x00, 0x00, 0x00, 0xFF, 0x03, 0xC0, 0xFF, 0x00, 0x00, 
  0x00, 0x00, 0xFF, 0x03, 0xC0, 0xFF, 0x00, 0x00, 0x00, 0x00, 0xFF, 0x03, 
  0xC0, 0xFF, 0x00, 0x00, 0x00, 0x00, 0xFF, 0x03, 0xC0, 0xFF, 0x00, 0x00, 
  0x00, 0x00, 0xFF, 0x03, 0xC0, 0x7F, 0xFF, 0xFF, 0xFF, 0x7F, 0xFE, 0x01, 
  0xE0, 0xBF, 0xFF, 0xFF, 0xFF, 0xFF, 0xFE, 0x00, 0xE0, 0xEF, 0xFF, 0xFF, 
  0xFF, 0xFF, 0x3D, 0x00, 0xE0, 0xF7, 0xFF, 0xFF, 0xFF, 0xFF, 0x1B, 0x00, 
  0xE0, 0xFB, 0xFF, 0xFF, 0xFF, 0xFF, 0x07, 0x00, 0x00, 0xF8, 0xFF, 0xFF, 
  0xFF, 0xFF, 0x07, 0x00, 0xE0, 0xF3, 0xFF, 0xFF, 0xFF, 0xFF, 0x03, 0x00, 
  0xE0, 0xE7, 0xFF, 0xFF, 0xFF, 0xFF, 0x00, 0x00, 0xF0, 0xCF, 0xFF, 0xFF, 
  0xFF, 0x7F, 0x00, 0x00, 0xF0, 0x8F, 0xFF, 0xFF, 0xFF, 0x3F, 0x00, 0x00, 
  0xF0, 0x1F, 0x00, 0x00, 0x00, 0x00, 0x00, 0x00, 0xF0, 0x3F, 0x00, 0x00, 
  0x00, 0x00, 0x00, 0x00, 0xF0, 0x3F, 0x00, 0x00, 0x00, 0x00, 0x00, 0x00, 
  0xF0, 0x3F, 0x00, 0x00, 0x00, 0x00, 0x00, 0x00, 0xF0, 0x3F, 0x00, 0x00, 
  0x00, 0x00, 0x00, 0x00, 0xF8, 0x3F, 0x00, 0x00, 0x00, 0x00, 0x00, 0x00, 
  0xF8, 0x1F, 0x00, 0x00, 0x00, 0x00, 0x00, 0x00, 0xF8, 0x1F, 0x00, 0x00, 
  0x00, 0x00, 0x00, 0x00, 0xF8, 0x1F, 0x00, 0x00, 0x00, 0x00, 0x00, 0x00, 
  0xF8, 0x1F, 0x00, 0x00, 0x00, 0x00, 0x00, 0x00, 0xF8, 0x1F, 0x00, 0x00, 
  0x00, 0x00, 0x00, 0x00, 0xF8, 0x1F, 0x00, 0x00, 0x00, 0x00, 0x00, 0x00, 
  0xFC, 0x1F, 0x00, 0x00, 0x00, 0x00, 0x00, 0x00, 0xFC, 0x0F, 0x00, 0x00, 
  0x00, 0x00, 0x00, 0x00, 0xFC, 0x0F, 0x00, 0x00, 0x00, 0x00, 0x00, 0x00, 
  0xFC, 0x0F, 0x00, 0x00, 0x00, 0x00, 0x00, 0x00, 0xFC, 0x0F, 0x00, 0x00, 
  0x00, 0x00, 0x00, 0x00, 0xFC, 0x0F, 0x00, 0x00, 0x00, 0x00, 0x00, 0x00, 
  0xFC, 0x0F, 0x00, 0x00, 0x00, 0x00, 0x00, 0x00, 0xFE, 0x0F, 0x00, 0x00, 
  0x00, 0x00, 0x00, 0x00, 0xFE, 0x07, 0x00, 0x00, 0x00, 0x00, 0x00, 0x00, 
  0xFE, 0x07, 0x00, 0x00, 0x00, 0x00, 0x00, 0x00, 0xFE, 0x07, 0x00, 0x00, 
  0x00, 0x00, 0x00, 0x00, 0xFE, 0x07, 0x00, 0x00, 0x00, 0x00, 0x00, 0x00, 
  0xFE, 0x07, 0x00, 0x00, 0x00, 0x00, 0x00, 0x00, 0xFE, 0x07, 0x00, 0x00, 
  0x00, 0x00, 0x00, 0x00, 0xFF, 0x07, 0x00, 0x00, 0x00, 0x00, 0x00, 0x00, 
  0xFF, 0x03, 0x00, 0x00, 0x00, 0x00, 0x00, 0x00, 0xFF, 0x03, 0x00, 0x00, 
  0x00, 0x00, 0x00, 0x00, 0xFF, 0x03, 0x00, 0x00, 0x00, 0x00, 0x00, 0x00, 
  0xFF, 0x03, 0x00, 0x00, 0x00, 0x00, 0x00, 0x00, 0xFF, 0x03, 0x00, 0x00, 
  0x00, 0x00, 0x00, 0x00, 0xFF, 0x03, 0x00, 0x00, 0x00, 0x00, 0x00, 0x00, 
  0xFF, 0x03, 0x00, 0x00, 0x00, 0x00, 0x00, 0x00, 0xFF, 0x01, 0x00, 0x00, 
  0x00, 0x00, 0x00, 0x00, 0xFF, 0x01, 0x00, 0x00, 0x00, 0x00, 0x00, 0x00, 
  0xFF, 0x01, 0x00, 0x00, 0x00, 0x00, 0x00, 0x00, 0xFF, 0x00, 0x00, 0x00, 
  0x00, 0x00, 0x00, 0x00, 0x7F, 0x00, 0x00, 0x00, 0x00, 0x00, 0x00, 0x00, 
  0x3E, 0x00, 0x00, 0x00, 0x00, 0x00, 0x00, 0x00, 0x1C, 0x00, 0x00, 0x00, 
  0x00, 0x00, 0x00, 0x00, 0x08, 0x00, 0x00, 0x00, 0x00, 0x00, 0x00, 0x00, 
  0x00, 0x00, 0x00, 0x00, 0x00, 0x00, 0x00, 0x00, 0x00, 0x00, 0x00, 0x00, 
  0x00, 0x00, 0x00, 0x00, 0x00, 0x00, 0x00, 0x00, 0x00, 0x00, 0x00, 0x00, 
  0x00, 0x00, 0x00, 0x00, 0x00, 0x00, 0x00, 0x00, 0x00, 0x00, 0x00, 0x00, 
  0x00, 0x00, 0x00, 0x00, 0x00, 0x00, 0x00, 0x00, 0x00, 0x00, 0x00, 0x00, 
  0x00, 0x00, 0x00, 0x00, 0x00, 0x00, 0x00, 0x00, 0x00, 0x00, 0x00, 0x00, 
  0x00, 0x00, 0x00, 0x00, 0x00, 0x00, 0x00, 0x00, 0x00, 0x00, 0x00, 0x00, 
  0x00, 0x00, 0x00, 0x00, 0x00, 0x00, 0x00, 0x00, 0x00, 0x00, 0x00, 0x00, 
  0x00, 0x00, 0x00, 0x00, 0x00, 0x00, 0x00, 0x00, 0x00, 0x00, 0x00, 0x00, 
  0x00, 0x00, 0x00, 0x00, 0x00, 0x00, 0x00, 0x00, 0x00, 0x00, 0x00, 0x00, 
  0x00, 0x00, 0x00, 0x00, 0x00, 0x00, 0x00, 0x00, 0x00, 0x00, 0x00, 0x00, 
  0x00, 0x00, 0x00, 0x00, 0x00, 0x00, 0x00, 0x00, 0x00, 0x00, 0x00, 0x00, 
  0x00, 0x00, 0x00, 0x00, 0x00, 0x00, 0x00, 0x00, 0x00, 0x00, 0x00, 0x00, 
  0x00, 0x00, 0x00, 0x00, 0x00, 0x00, 0x00, 0x00, 0x00, 0x00, 0x00, 0x00, 
  0x00, 0x00, 0x00, 0x00, 0x00, 0x00, 0x00, 0x00, 0x00, 0x00, 0x00, 0x00, 
  0x00, 0x00, 0x00, 0x00, 0x00, 0x00, 0x00, 0x00, 0x00, 0x00, 0x00, 0x00, 
  0x00, 0x00, 0x00, 0x00, 0x00, 0x00, 0x00, 0x00, 0x00, 0x00, 0x00, 0x00, 
  0x00, 0x00, 0x00, 0x00, 0x00, 0x00, 0x00, 0x00, };
