#define _085_width 61
#define _085_height 100
static char _085_bits[] = {
  0x00, 0x00, 0x00, 0x00, 0x00, 0x00, 0x00, 0x00, 0x00, 0x00, 0x00, 0x00, 
  0x00, 0x00, 0x00, 0x00, 0x00, 0x00, 0x00, 0x00, 0x00, 0x00, 0x00, 0x00, 
  0x00, 0x00, 0x00, 0x00, 0x00, 0x00, 0x00, 0x00, 0x00, 0x00, 0x00, 0x00, 
  0x00, 0x00, 0x00, 0x00, 0x00, 0x00, 0x00, 0x00, 0x00, 0x00, 0x00, 0x00, 
  0x00, 0x00, 0x00, 0x00, 0x00, 0x00, 0x00, 0x00, 0x00, 0x00, 0x00, 0x00, 
  0x00, 0x00, 0x00, 0x00, 0x00, 0x00, 0x00, 0x00, 0x00, 0x00, 0x00, 0x00, 
  0x00, 0x00, 0x00, 0x00, 0x00, 0x00, 0x00, 0x00, 0x00, 0x00, 0x00, 0x00, 
  0x00, 0x00, 0x00, 0x00, 0x00, 0x00, 0x00, 0x00, 0x00, 0x00, 0x00, 0x00, 
  0x00, 0x00, 0x00, 0x00, 0x00, 0x00, 0x00, 0x00, 0x00, 0x00, 0x00, 0x00, 
  0x00, 0x00, 0x00, 0x00, 0x00, 0x00, 0x00, 0x00, 0x00, 0x00, 0x00, 0x00, 
  0x00, 0x00, 0x00, 0x00, 0x00, 0x00, 0x00, 0x00, 0x00, 0x00, 0x00, 0x00, 
  0x00, 0x00, 0x00, 0x00, 0x00, 0x00, 0x00, 0x00, 0x00, 0x00, 0x00, 0x00, 
  0x00, 0x00, 0x00, 0x00, 0x00, 0x00, 0x00, 0x00, 0x00, 0x00, 0x00, 0x00, 
  0x00, 0x00, 0x00, 0x00, 0x00, 0x00, 0x00, 0x00, 0x00, 0x00, 0x00, 0x00, 
  0x00, 0x00, 0x00, 0x00, 0x00, 0x00, 0x00, 0x00, 0x00, 0xFF, 0x00, 0x00, 
  0x00, 0xF0, 0x0F, 0x00, 0x00, 0xFF, 0x00, 0x00, 0x00, 0xF0, 0x0F, 0x00, 
  0x00, 0xFF, 0x00, 0x00, 0x00, 0xF0, 0x0F, 0x00, 0x00, 0xFF, 0x00, 0x00, 
  0x00, 0xF0, 0x0F, 0x00, 0x00, 0xFF, 0x00, 0x00, 0x00, 0xF0, 0x0F, 0x00, 
  0x00, 0xFF, 0x00, 0x00, 0x00, 0xF0, 0x0F, 0x00, 0x00, 0xFF, 0x00, 0x00, 
  0x00, 0xF0, 0x0F, 0x00, 0x00, 0xFF, 0x00, 0x00, 0x00, 0xF0, 0x0F, 0x00, 
  0x00, 0xFF, 0x00, 0x00, 0x00, 0xF0, 0x0F, 0x00, 0x00, 0xFF, 0x00, 0x00, 
  0x00, 0xF0, 0x0F, 0x00, 0x00, 0xFF, 0x00, 0x00, 0x00, 0xF0, 0x0F, 0x00, 
  0x00, 0xFF, 0x00, 0x00, 0x00, 0xF0, 0x0F, 0x00, 0x00, 0xFF, 0x00, 0x00, 
  0x00, 0xF0, 0x0F, 0x00, 0x00, 0xFF, 0x00, 0x00, 0x00, 0xF0, 0x0F, 0x00, 
  0x00, 0xFF, 0x00, 0x00, 0x00, 0xF0, 0x0F, 0x00, 0x00, 0xFF, 0x00, 0x00, 
  0x00, 0xF0, 0x0F, 0x00, 0x00, 0xFF, 0x00, 0x00, 0x00, 0xF0, 0x0F, 0x00, 
  0x00, 0xFF, 0x00, 0x00, 0x00, 0xF0, 0x0F, 0x00, 0x00, 0xFF, 0x00, 0x00, 
  0x00, 0xF0, 0x0F, 0x00, 0x00, 0xFF, 0x00, 0x00, 0x00, 0xF0, 0x0F, 0x00, 
  0x00, 0xFF, 0x00, 0x00, 0x00, 0xF0, 0x0F, 0x00, 0x00, 0xFF, 0x00, 0x00, 
  0x00, 0xF0, 0x0F, 0x00, 0x00, 0xFF, 0x00, 0x00, 0x00, 0xF0, 0x0F, 0x00, 
  0x00, 0xFF, 0x00, 0x00, 0x00, 0xF0, 0x0F, 0x00, 0x00, 0xFF, 0x00, 0x00, 
  0x00, 0xF0, 0x0F, 0x00, 0x00, 0xFF, 0x00, 0x00, 0x00, 0xF0, 0x0F, 0x00, 
  0x00, 0xFF, 0x00, 0x00, 0x00, 0xF0, 0x0F, 0x00, 0x00, 0xFF, 0x00, 0x00, 
  0x00, 0xF0, 0x0F, 0x00, 0x00, 0xFF, 0x00, 0x00, 0x00, 0xF0, 0x0F, 0x00, 
  0x00, 0xFF, 0x00, 0x00, 0x00, 0xF0, 0x0F, 0x00, 0x00, 0xFF, 0x00, 0x00, 
  0x00, 0xF0, 0x0F, 0x00, 0x00, 0xFF, 0x00, 0x00, 0x00, 0xF0, 0x0F, 0x00, 
  0x00, 0xFF, 0x00, 0x00, 0x00, 0xF0, 0x0F, 0x00, 0x00, 0xFF, 0x00, 0x00, 
  0x00, 0xF0, 0x0F, 0x00, 0x00, 0xFF, 0x00, 0x00, 0x00, 0xF0, 0x0F, 0x00, 
  0x00, 0xFF, 0x00, 0x00, 0x00, 0xF0, 0x0F, 0x00, 0x00, 0xFF, 0x00, 0x00, 
  0x00, 0xF0, 0x0F, 0x00, 0x00, 0xFF, 0x00, 0x00, 0x00, 0xF0, 0x0F, 0x00, 
  0x00, 0xFF, 0x00, 0x00, 0x00, 0xF0, 0x0F, 0x00, 0x00, 0xFF, 0x00, 0x00, 
  0x00, 0xF0, 0x0F, 0x00, 0x00, 0xFF, 0x00, 0x00, 0x00, 0xF0, 0x0F, 0x00, 
  0x00, 0xFF, 0x00, 0x00, 0x00, 0xF0, 0x0F, 0x00, 0x00, 0xFF, 0x00, 0x00, 
  0x00, 0xF8, 0x0F, 0x00, 0x00, 0xFE, 0x01, 0x00, 0x00, 0xF8, 0x07, 0x00, 
  0x00, 0xFE, 0x01, 0x00, 0x00, 0xF8, 0x07, 0x00, 0x00, 0xFE, 0x01, 0x00, 
  0x00, 0xF8, 0x07, 0x00, 0x00, 0xFE, 0x03, 0x00, 0x00, 0xFC, 0x07, 0x00, 
  0x00, 0xFC, 0x03, 0x00, 0x00, 0xFC, 0x03, 0x00, 0x00, 0xFC, 0x07, 0x00, 
  0x00, 0xFE, 0x03, 0x00, 0x00, 0xFC, 0x0F, 0x00, 0x00, 0xFF, 0x03, 0x00, 
  0x00, 0xF8, 0x0F, 0x00, 0x00, 0xFF, 0x01, 0x00, 0x00, 0xF8, 0x3F, 0x00, 
  0xC0, 0xFF, 0x01, 0x00, 0x00, 0xF0, 0x7F, 0x00, 0xE0, 0xFF, 0x00, 0x00, 
  0x00, 0xE0, 0xFF, 0x03, 0xFC, 0x7F, 0x00, 0x00, 0x00, 0xC0, 0xFF, 0xFF, 
  0xFF, 0x3F, 0x00, 0x00, 0x00, 0xC0, 0xFF, 0xFF, 0xFF, 0x1F, 0x00, 0x00, 
  0x00, 0x00, 0xFF, 0xFF, 0xFF, 0x0F, 0x00, 0x00, 0x00, 0x00, 0xFE, 0xFF, 
  0xFF, 0x07, 0x00, 0x00, 0x00, 0x00, 0xF8, 0xFF, 0xFF, 0x01, 0x00, 0x00, 
  0x00, 0x00, 0xE0, 0xFF, 0x7F, 0x00, 0x00, 0x00, 0x00, 0x00, 0x00, 0xFE, 
  0x07, 0x00, 0x00, 0x00, 0x00, 0x00, 0x00, 0x00, 0x00, 0x00, 0x00, 0x00, 
  0x00, 0x00, 0x00, 0x00, 0x00, 0x00, 0x00, 0x00, 0x00, 0x00, 0x00, 0x00, 
  0x00, 0x00, 0x00, 0x00, 0x00, 0x00, 0x00, 0x00, 0x00, 0x00, 0x00, 0x00, 
  0x00, 0x00, 0x00, 0x00, 0x00, 0x00, 0x00, 0x00, 0x00, 0x00, 0x00, 0x00, 
  0x00, 0x00, 0x00, 0x00, 0x00, 0x00, 0x00, 0x00, 0x00, 0x00, 0x00, 0x00, 
  0x00, 0x00, 0x00, 0x00, 0x00, 0x00, 0x00, 0x00, 0x00, 0x00, 0x00, 0x00, 
  0x00, 0x00, 0x00, 0x00, 0x00, 0x00, 0x00, 0x00, 0x00, 0x00, 0x00, 0x00, 
  0x00, 0x00, 0x00, 0x00, 0x00, 0x00, 0x00, 0x00, 0x00, 0x00, 0x00, 0x00, 
  0x00, 0x00, 0x00, 0x00, 0x00, 0x00, 0x00, 0x00, 0x00, 0x00, 0x00, 0x00, 
  0x00, 0x00, 0x00, 0x00, 0x00, 0x00, 0x00, 0x00, 0x00, 0x00, 0x00, 0x00, 
  0x00, 0x00, 0x00, 0x00, 0x00, 0x00, 0x00, 0x00, 0x00, 0x00, 0x00, 0x00, 
  0x00, 0x00, 0x00, 0x00, 0x00, 0x00, 0x00, 0x00, };
