#define _108_width 25
#define _108_height 100
static char _108_bits[] = {
  0x00, 0x00, 0x00, 0x00, 0x00, 0x00, 0x00, 0x00, 0x00, 0x00, 0x00, 0x00, 
  0x00, 0x00, 0x00, 0x00, 0x00, 0x00, 0x00, 0x00, 0x00, 0x00, 0x00, 0x00, 
  0x00, 0x00, 0x00, 0x00, 0x00, 0x00, 0x00, 0x00, 0x00, 0x00, 0x00, 0x00, 
  0x00, 0x00, 0x00, 0x00, 0x00, 0x00, 0x00, 0x00, 0x00, 0x00, 0x00, 0x00, 
  0x00, 0x00, 0x00, 0x00, 0x00, 0x00, 0x00, 0x00, 0x00, 0x00, 0x00, 0x00, 
  0x00, 0x70, 0x00, 0x00, 0x80, 0x7F, 0x00, 0x00, 0x80, 0x7F, 0x00, 0x00, 
  0x80, 0x7F, 0x00, 0x00, 0x80, 0x7F, 0x00, 0x00, 0x80, 0x7F, 0x00, 0x00, 
  0x80, 0x7F, 0x00, 0x00, 0x80, 0x7F, 0x00, 0x00, 0x80, 0x7F, 0x00, 0x00, 
  0x80, 0x7F, 0x00, 0x00, 0x80, 0x7F, 0x00, 0x00, 0x80, 0x7F, 0x00, 0x00, 
  0x80, 0x7F, 0x00, 0x00, 0x80, 0x7F, 0x00, 0x00, 0x80, 0x7F, 0x00, 0x00, 
  0x80, 0x7F, 0x00, 0x00, 0x80, 0x7F, 0x00, 0x00, 0x80, 0x7F, 0x00, 0x00, 
  0x80, 0x7F, 0x00, 0x00, 0x80, 0x7F, 0x00, 0x00, 0x80, 0x7F, 0x00, 0x00, 
  0x80, 0x7F, 0x00, 0x00, 0x80, 0x7F, 0x00, 0x00, 0x80, 0x7F, 0x00, 0x00, 
  0x80, 0x7F, 0x00, 0x00, 0x80, 0x7F, 0x00, 0x00, 0x80, 0x7F, 0x00, 0x00, 
  0x80, 0x7F, 0x00, 0x00, 0x80, 0x7F, 0x00, 0x00, 0x80, 0x7F, 0x00, 0x00, 
  0x80, 0x7F, 0x00, 0x00, 0x80, 0x7F, 0x00, 0x00, 0x80, 0x7F, 0x00, 0x00, 
  0x80, 0x7F, 0x00, 0x00, 0x80, 0x7F, 0x00, 0x00, 0x80, 0x7F, 0x00, 0x00, 
  0x80, 0x7F, 0x00, 0x00, 0x80, 0x7F, 0x00, 0x00, 0x80, 0x7F, 0x00, 0x00, 
  0x80, 0x7F, 0x00, 0x00, 0x80, 0x7F, 0x00, 0x00, 0x80, 0x7F, 0x00, 0x00, 
  0x80, 0x7F, 0x00, 0x00, 0x80, 0x7F, 0x00, 0x00, 0x80, 0x7F, 0x00, 0x00, 
  0x80, 0x7F, 0x00, 0x00, 0x80, 0x7F, 0x00, 0x00, 0x80, 0x7F, 0x00, 0x00, 
  0x80, 0x7F, 0x00, 0x00, 0x80, 0x7F, 0x00, 0x00, 0x80, 0x7F, 0x00, 0x00, 
  0x80, 0x7F, 0x00, 0x00, 0x80, 0x7F, 0x00, 0x00, 0x80, 0x7F, 0x00, 0x00, 
  0x80, 0x7F, 0x00, 0x00, 0x80, 0x7F, 0x00, 0x00, 0x80, 0x7F, 0x00, 0x00, 
  0x80, 0xFF, 0x00, 0x00, 0x80, 0xFF, 0x01, 0x00, 0x00, 0xFF, 0x07, 0x00, 
  0x00, 0xFF, 0x3F, 0x00, 0x00, 0xFF, 0x3F, 0x00, 0x00, 0xFE, 0x3F, 0x00, 
  0x00, 0xFC, 0x1F, 0x00, 0x00, 0xF8, 0x1F, 0x00, 0x00, 0xE0, 0x1F, 0x00, 
  0x00, 0x00, 0x1F, 0x00, 0x00, 0x00, 0x00, 0x00, 0x00, 0x00, 0x00, 0x00, 
  0x00, 0x00, 0x00, 0x00, 0x00, 0x00, 0x00, 0x00, 0x00, 0x00, 0x00, 0x00, 
  0x00, 0x00, 0x00, 0x00, 0x00, 0x00, 0x00, 0x00, 0x00, 0x00, 0x00, 0x00, 
  0x00, 0x00, 0x00, 0x00, 0x00, 0x00, 0x00, 0x00, 0x00, 0x00, 0x00, 0x00, 
  0x00, 0x00, 0x00, 0x00, 0x00, 0x00, 0x00, 0x00, 0x00, 0x00, 0x00, 0x00, 
  0x00, 0x00, 0x00, 0x00, 0x00, 0x00, 0x00, 0x00, 0x00, 0x00, 0x00, 0x00, 
  0x00, 0x00, 0x00, 0x00, };
