#define _087_width 87
#define _087_height 100
static char _087_bits[] = {
  0x00, 0x00, 0x00, 0x00, 0x00, 0x00, 0x00, 0x00, 0x00, 0x00, 0x00, 0x00, 
  0x00, 0x00, 0x00, 0x00, 0x00, 0x00, 0x00, 0x00, 0x00, 0x00, 0x00, 0x00, 
  0x00, 0x00, 0x00, 0x00, 0x00, 0x00, 0x00, 0x00, 0x00, 0x00, 0x00, 0x00, 
  0x00, 0x00, 0x00, 0x00, 0x00, 0x00, 0x00, 0x00, 0x00, 0x00, 0x00, 0x00, 
  0x00, 0x00, 0x00, 0x00, 0x00, 0x00, 0x00, 0x00, 0x00, 0x00, 0x00, 0x00, 
  0x00, 0x00, 0x00, 0x00, 0x00, 0x00, 0x00, 0x00, 0x00, 0x00, 0x00, 0x00, 
  0x00, 0x00, 0x00, 0x00, 0x00, 0x00, 0x00, 0x00, 0x00, 0x00, 0x00, 0x00, 
  0x00, 0x00, 0x00, 0x00, 0x00, 0x00, 0x00, 0x00, 0x00, 0x00, 0x00, 0x00, 
  0x00, 0x00, 0x00, 0x00, 0x00, 0x00, 0x00, 0x00, 0x00, 0x00, 0x00, 0x00, 
  0x00, 0x00, 0x00, 0x00, 0x00, 0x00, 0x00, 0x00, 0x00, 0x00, 0x00, 0x00, 
  0x00, 0x00, 0x00, 0x00, 0x00, 0x00, 0x00, 0x00, 0x00, 0x00, 0x00, 0x00, 
  0x00, 0x00, 0x00, 0x00, 0x00, 0x00, 0x00, 0x00, 0x00, 0x00, 0x00, 0x00, 
  0x00, 0x00, 0x00, 0x00, 0x00, 0x00, 0x00, 0x00, 0x00, 0x00, 0x00, 0x00, 
  0x00, 0x00, 0x00, 0x00, 0x00, 0x00, 0x00, 0x00, 0x00, 0x00, 0x00, 0x00, 
  0x00, 0x00, 0x00, 0x00, 0x00, 0x00, 0x00, 0x00, 0x00, 0x00, 0x00, 0x00, 
  0x00, 0x00, 0x00, 0x00, 0x00, 0x00, 0x00, 0x00, 0x00, 0x00, 0x00, 0x00, 
  0x00, 0x00, 0x00, 0x00, 0x00, 0x00, 0x00, 0x00, 0x00, 0x00, 0x00, 0x00, 
  0x00, 0x00, 0x00, 0x00, 0x00, 0x00, 0x00, 0x00, 0x00, 0x00, 0x00, 0x00, 
  0x00, 0x00, 0x00, 0x00, 0x00, 0x00, 0x00, 0x00, 0x00, 0x00, 0x00, 0x00, 
  0x00, 0x00, 0x00, 0x00, 0x00, 0x00, 0x00, 0x00, 0x00, 0x00, 0x00, 0x00, 
  0x00, 0x00, 0x00, 0x00, 0x00, 0x00, 0x00, 0x00, 0x00, 0x00, 0x00, 0x00, 
  0x00, 0x00, 0x00, 0x00, 0x00, 0x00, 0x00, 0x00, 0x00, 0x00, 0x00, 0x00, 
  0x00, 0x00, 0x00, 0x00, 0x00, 0x00, 0x00, 0x00, 0x00, 0x00, 0x00, 0x00, 
  0x00, 0x00, 0x00, 0x00, 0x00, 0x00, 0x00, 0x00, 0x00, 0x00, 0x00, 0x00, 
  0x00, 0x00, 0x00, 0x00, 0x00, 0x00, 0x00, 0x00, 0x00, 0x00, 0x00, 0x00, 
  0x00, 0x00, 0x00, 0x00, 0x00, 0x00, 0x00, 0x00, 0x00, 0x00, 0x00, 0x00, 
  0x00, 0x00, 0x00, 0x00, 0x00, 0x00, 0x00, 0xF0, 0xFF, 0x00, 0x00, 0x00, 
  0xFF, 0x01, 0x00, 0x00, 0xFE, 0x07, 0xE0, 0xFF, 0x00, 0x00, 0x00, 0xFF, 
  0x01, 0x00, 0x00, 0xFF, 0x03, 0xE0, 0xFF, 0x00, 0x00, 0x00, 0xFF, 0x01, 
  0x00, 0x00, 0xFF, 0x03, 0xE0, 0xFF, 0x01, 0x00, 0x80, 0xFF, 0x03, 0x00, 
  0x00, 0xFF, 0x03, 0xC0, 0xFF, 0x01, 0x00, 0x80, 0xFF, 0x03, 0x00, 0x80, 
  0xFF, 0x01, 0xC0, 0xFF, 0x03, 0x00, 0xC0, 0xFF, 0x07, 0x00, 0x80, 0xFF, 
  0x01, 0x80, 0xFF, 0x03, 0x00, 0xC0, 0xFF, 0x07, 0x00, 0x80, 0xFF, 0x00, 
  0x80, 0xFF, 0x03, 0x00, 0xC0, 0xFF, 0x07, 0x00, 0xC0, 0xFF, 0x00, 0x80, 
  0xFF, 0x07, 0x00, 0xE0, 0xFF, 0x0F, 0x00, 0xC0, 0xFF, 0x00, 0x00, 0xFF, 
  0x07, 0x00, 0xE0, 0xFF, 0x0F, 0x00, 0xC0, 0x7F, 0x00, 0x00, 0xFF, 0x0F, 
  0x00, 0xF0, 0xFF, 0x1F, 0x00, 0xE0, 0x7F, 0x00, 0x00, 0xFF, 0x0F, 0x00, 
  0xF0, 0xFF, 0x1F, 0x00, 0xE0, 0x7F, 0x00, 0x00, 0xFE, 0x0F, 0x00, 0xF0, 
  0xFF, 0x1F, 0x00, 0xF0, 0x3F, 0x00, 0x00, 0xFE, 0x1F, 0x00, 0xF8, 0xFF, 
  0x3F, 0x00, 0xF0, 0x3F, 0x00, 0x00, 0xFC, 0x1F, 0x00, 0xF8, 0xFF, 0x3F, 
  0x00, 0xF0, 0x1F, 0x00, 0x00, 0xFC, 0x1F, 0x00, 0xFC, 0xF7, 0x7F, 0x00, 
  0xF8, 0x1F, 0x00, 0x00, 0xFC, 0x3F, 0x00, 0xFC, 0xF7, 0x7F, 0x00, 0xF8, 
  0x1F, 0x00, 0x00, 0xF8, 0x3F, 0x00, 0xFC, 0xE7, 0x7F, 0x00, 0xF8, 0x0F, 
  0x00, 0x00, 0xF8, 0x7F, 0x00, 0xFE, 0xE3, 0xFF, 0x00, 0xFC, 0x0F, 0x00, 
  0x00, 0xF0, 0x7F, 0x00, 0xFE, 0xC3, 0xFF, 0x00, 0xFC, 0x07, 0x00, 0x00, 
  0xF0, 0x7F, 0x00, 0xFF, 0xC1, 0xFF, 0x01, 0xFC, 0x07, 0x00, 0x00, 0xF0, 
  0xFF, 0x00, 0xFF, 0xC1, 0xFF, 0x01, 0xFE, 0x07, 0x00, 0x00, 0xE0, 0xFF, 
  0x00, 0xFF, 0x81, 0xFF, 0x01, 0xFE, 0x03, 0x00, 0x00, 0xE0, 0xFF, 0x80, 
  0xFF, 0x80, 0xFF, 0x03, 0xFF, 0x03, 0x00, 0x00, 0xE0, 0xFF, 0x81, 0xFF, 
  0x00, 0xFF, 0x03, 0xFF, 0x03, 0x00, 0x00, 0xC0, 0xFF, 0xC1, 0x7F, 0x00, 
  0xFF, 0x07, 0xFF, 0x01, 0x00, 0x00, 0xC0, 0xFF, 0xC3, 0x7F, 0x00, 0xFF, 
  0x87, 0xFF, 0x01, 0x00, 0x00, 0x80, 0xFF, 0xC3, 0x7F, 0x00, 0xFE, 0x87, 
  0xFF, 0x00, 0x00, 0x00, 0x80, 0xFF, 0xE3, 0x3F, 0x00, 0xFE, 0x8F, 0xFF, 
  0x00, 0x00, 0x00, 0x80, 0xFF, 0xE7, 0x3F, 0x00, 0xFC, 0xCF, 0xFF, 0x00, 
  0x00, 0x00, 0x00, 0xFF, 0xF7, 0x1F, 0x00, 0xFC, 0xDF, 0x7F, 0x00, 0x00, 
  0x00, 0x00, 0xFF, 0xFF, 0x1F, 0x00, 0xFC, 0xDF, 0x7F, 0x00, 0x00, 0x00, 
  0x00, 0xFE, 0xFF, 0x1F, 0x00, 0xF8, 0xFF, 0x3F, 0x00, 0x00, 0x00, 0x00, 
  0xFE, 0xFF, 0x0F, 0x00, 0xF8, 0xFF, 0x3F, 0x00, 0x00, 0x00, 0x00, 0xFE, 
  0xFF, 0x0F, 0x00, 0xF0, 0xFF, 0x3F, 0x00, 0x00, 0x00, 0x00, 0xFC, 0xFF, 
  0x07, 0x00, 0xF0, 0xFF, 0x1F, 0x00, 0x00, 0x00, 0x00, 0xFC, 0xFF, 0x07, 
  0x00, 0xF0, 0xFF, 0x1F, 0x00, 0x00, 0x00, 0x00, 0xFC, 0xFF, 0x03, 0x00, 
  0xE0, 0xFF, 0x0F, 0x00, 0x00, 0x00, 0x00, 0xF8, 0xFF, 0x03, 0x00, 0xE0, 
  0xFF, 0x0F, 0x00, 0x00, 0x00, 0x00, 0xF8, 0xFF, 0x03, 0x00, 0xE0, 0xFF, 
  0x0F, 0x00, 0x00, 0x00, 0x00, 0xF0, 0xFF, 0x01, 0x00, 0xC0, 0xFF, 0x07, 
  0x00, 0x00, 0x00, 0x00, 0xF0, 0xFF, 0x01, 0x00, 0xC0, 0xFF, 0x07, 0x00, 
  0x00, 0x00, 0x00, 0xF0, 0xFF, 0x00, 0x00, 0x80, 0xFF, 0x07, 0x00, 0x00, 
  0x00, 0x00, 0xE0, 0xFF, 0x00, 0x00, 0x80, 0xFF, 0x03, 0x00, 0x00, 0x00, 
  0x00, 0xE0, 0xFF, 0x00, 0x00, 0x80, 0xFF, 0x03, 0x00, 0x00, 0x00, 0x00, 
  0xC0, 0x7F, 0x00, 0x00, 0x00, 0xFF, 0x01, 0x00, 0x00, 0x00, 0x00, 0xC0, 
  0x7F, 0x00, 0x00, 0x00, 0xFF, 0x01, 0x00, 0x00, 0x00, 0x00, 0xC0, 0x3F, 
  0x00, 0x00, 0x00, 0xFE, 0x01, 0x00, 0x00, 0x00, 0x00, 0x00, 0x00, 0x00, 
  0x00, 0x00, 0x00, 0x00, 0x00, 0x00, 0x00, 0x00, 0x00, 0x00, 0x00, 0x00, 
  0x00, 0x00, 0x00, 0x00, 0x00, 0x00, 0x00, 0x00, 0x00, 0x00, 0x00, 0x00, 
  0x00, 0x00, 0x00, 0x00, 0x00, 0x00, 0x00, 0x00, 0x00, 0x00, 0x00, 0x00, 
  0x00, 0x00, 0x00, 0x00, 0x00, 0x00, 0x00, 0x00, 0x00, 0x00, 0x00, 0x00, 
  0x00, 0x00, 0x00, 0x00, 0x00, 0x00, 0x00, 0x00, 0x00, 0x00, 0x00, 0x00, 
  0x00, 0x00, 0x00, 0x00, 0x00, 0x00, 0x00, 0x00, 0x00, 0x00, 0x00, 0x00, 
  0x00, 0x00, 0x00, 0x00, 0x00, 0x00, 0x00, 0x00, 0x00, 0x00, 0x00, 0x00, 
  0x00, 0x00, 0x00, 0x00, 0x00, 0x00, 0x00, 0x00, 0x00, 0x00, 0x00, 0x00, 
  0x00, 0x00, 0x00, 0x00, 0x00, 0x00, 0x00, 0x00, 0x00, 0x00, 0x00, 0x00, 
  0x00, 0x00, 0x00, 0x00, 0x00, 0x00, 0x00, 0x00, 0x00, 0x00, 0x00, 0x00, 
  0x00, 0x00, 0x00, 0x00, 0x00, 0x00, 0x00, 0x00, 0x00, 0x00, 0x00, 0x00, 
  0x00, 0x00, 0x00, 0x00, 0x00, 0x00, 0x00, 0x00, 0x00, 0x00, 0x00, 0x00, 
  0x00, 0x00, 0x00, 0x00, 0x00, 0x00, 0x00, 0x00, 0x00, 0x00, 0x00, 0x00, 
  0x00, 0x00, 0x00, 0x00, 0x00, 0x00, 0x00, 0x00, 0x00, 0x00, 0x00, 0x00, 
  0x00, 0x00, 0x00, 0x00, 0x00, 0x00, 0x00, 0x00, 0x00, 0x00, 0x00, 0x00, 
  0x00, 0x00, 0x00, 0x00, 0x00, 0x00, 0x00, 0x00, 0x00, 0x00, 0x00, 0x00, 
  0x00, 0x00, 0x00, 0x00, 0x00, 0x00, 0x00, 0x00, 0x00, 0x00, 0x00, 0x00, 
  0x00, 0x00, 0x00, 0x00, 0x00, 0x00, 0x00, 0x00, 0x00, 0x00, 0x00, 0x00, 
  0x00, 0x00, 0x00, 0x00, 0x00, 0x00, 0x00, 0x00, 0x00, 0x00, 0x00, 0x00, 
  0x00, 0x00, 0x00, 0x00, 0x00, 0x00, 0x00, 0x00, 0x00, 0x00, 0x00, 0x00, 
  0x00, 0x00, 0x00, 0x00, 0x00, 0x00, 0x00, 0x00, };
