#define _093_width 32
#define _093_height 100
static char _093_bits[] = {
  0x00, 0x00, 0x00, 0x00, 0x00, 0x00, 0x00, 0x00, 0x00, 0x00, 0x00, 0x00, 
  0x00, 0x00, 0x00, 0x00, 0x00, 0x00, 0x00, 0x00, 0x00, 0x00, 0x00, 0x00, 
  0x00, 0x00, 0x00, 0x00, 0x00, 0x00, 0x00, 0x00, 0x00, 0x00, 0x00, 0x00, 
  0x00, 0x00, 0x00, 0x00, 0x00, 0x00, 0x00, 0x00, 0x00, 0x00, 0x00, 0x00, 
  0x00, 0x00, 0x00, 0x00, 0x00, 0x00, 0x00, 0x00, 0x00, 0x00, 0x00, 0x00, 
  0x00, 0x00, 0x00, 0x00, 0x00, 0x00, 0x00, 0x00, 0x00, 0x00, 0x00, 0x00, 
  0x00, 0x00, 0x00, 0x00, 0x00, 0x00, 0x00, 0x00, 0x00, 0x00, 0x00, 0x00, 
  0x00, 0x00, 0x00, 0x00, 0x00, 0x00, 0x00, 0x00, 0x00, 0x00, 0x00, 0x00, 
  0x00, 0x00, 0x00, 0x00, 0x00, 0x00, 0x00, 0x00, 0x00, 0x00, 0x00, 0x00, 
  0x00, 0x00, 0x00, 0x00, 0xFE, 0xFF, 0x3F, 0x00, 0xFE, 0xFF, 0x3F, 0x00, 
  0xFE, 0xFF, 0x3F, 0x00, 0xFE, 0xFF, 0x3F, 0x00, 0xFE, 0xFF, 0x3F, 0x00, 
  0xFE, 0xFF, 0x3F, 0x00, 0x00, 0xE0, 0x3F, 0x00, 0x00, 0xE0, 0x3F, 0x00, 
  0x00, 0xE0, 0x3F, 0x00, 0x00, 0xE0, 0x3F, 0x00, 0x00, 0xE0, 0x3F, 0x00, 
  0x00, 0xE0, 0x3F, 0x00, 0x00, 0xE0, 0x3F, 0x00, 0x00, 0xE0, 0x3F, 0x00, 
  0x00, 0xE0, 0x3F, 0x00, 0x00, 0xE0, 0x3F, 0x00, 0x00, 0xE0, 0x3F, 0x00, 
  0x00, 0xE0, 0x3F, 0x00, 0x00, 0xE0, 0x3F, 0x00, 0x00, 0xE0, 0x3F, 0x00, 
  0x00, 0xE0, 0x3F, 0x00, 0x00, 0xE0, 0x3F, 0x00, 0x00, 0xE0, 0x3F, 0x00, 
  0x00, 0xE0, 0x3F, 0x00, 0x00, 0xE0, 0x3F, 0x00, 0x00, 0xE0, 0x3F, 0x00, 
  0x00, 0xE0, 0x3F, 0x00, 0x00, 0xE0, 0x3F, 0x00, 0x00, 0xE0, 0x3F, 0x00, 
  0x00, 0xE0, 0x3F, 0x00, 0x00, 0xE0, 0x3F, 0x00, 0x00, 0xE0, 0x3F, 0x00, 
  0x00, 0xE0, 0x3F, 0x00, 0x00, 0xE0, 0x3F, 0x00, 0x00, 0xE0, 0x3F, 0x00, 
  0x00, 0xE0, 0x3F, 0x00, 0x00, 0xE0, 0x3F, 0x00, 0x00, 0xE0, 0x3F, 0x00, 
  0x00, 0xE0, 0x3F, 0x00, 0x00, 0xE0, 0x3F, 0x00, 0x00, 0xE0, 0x3F, 0x00, 
  0x00, 0xE0, 0x3F, 0x00, 0x00, 0xE0, 0x3F, 0x00, 0x00, 0xE0, 0x3F, 0x00, 
  0xFE, 0xFF, 0x3F, 0x00, 0xFE, 0xFF, 0x3F, 0x00, 0xFE, 0xFF, 0x3F, 0x00, 
  0xFE, 0xFF, 0x3F, 0x00, 0xFE, 0xFF, 0x3F, 0x00, 0xFE, 0xFF, 0x3F, 0x00, 
  0xFE, 0xFF, 0x3F, 0x00, 0x00, 0x00, 0x00, 0x00, 0x00, 0x00, 0x00, 0x00, 
  0x00, 0x00, 0x00, 0x00, 0x00, 0x00, 0x00, 0x00, 0x00, 0x00, 0x00, 0x00, 
  0x00, 0x00, 0x00, 0x00, 0x00, 0x00, 0x00, 0x00, 0x00, 0x00, 0x00, 0x00, 
  0x00, 0x00, 0x00, 0x00, 0x00, 0x00, 0x00, 0x00, 0x00, 0x00, 0x00, 0x00, 
  0x00, 0x00, 0x00, 0x00, 0x00, 0x00, 0x00, 0x00, 0x00, 0x00, 0x00, 0x00, 
  0x00, 0x00, 0x00, 0x00, 0x00, 0x00, 0x00, 0x00, 0x00, 0x00, 0x00, 0x00, 
  0x00, 0x00, 0x00, 0x00, 0x00, 0x00, 0x00, 0x00, 0x00, 0x00, 0x00, 0x00, 
  0x00, 0x00, 0x00, 0x00, };
