#define _105_width 28
#define _105_height 100
static char _105_bits[] = {
  0x00, 0x00, 0x00, 0x00, 0x00, 0x00, 0x00, 0x00, 0x00, 0x00, 0x00, 0x00, 
  0x00, 0x00, 0x00, 0x00, 0x00, 0x00, 0x00, 0x00, 0x00, 0x00, 0x00, 0x00, 
  0x00, 0x00, 0x00, 0x00, 0x00, 0x00, 0x00, 0x00, 0x00, 0x00, 0x00, 0x00, 
  0x00, 0x00, 0x00, 0x00, 0x00, 0x00, 0x00, 0x00, 0x00, 0x00, 0x00, 0x00, 
  0x00, 0x00, 0x00, 0x00, 0x00, 0x00, 0x00, 0x00, 0x00, 0x00, 0x00, 0x00, 
  0x00, 0x00, 0x00, 0x00, 0x00, 0x00, 0x00, 0x00, 0x00, 0x00, 0x00, 0x00, 
  0x00, 0x00, 0x00, 0x00, 0x00, 0x00, 0x00, 0x00, 0x00, 0x00, 0x00, 0x00, 
  0x00, 0x00, 0x00, 0x00, 0x00, 0x00, 0x00, 0x00, 0x00, 0x00, 0x00, 0x00, 
  0x00, 0x00, 0x00, 0x00, 0x00, 0x00, 0x00, 0x00, 0x00, 0x00, 0x00, 0x00, 
  0x00, 0x00, 0x00, 0x00, 0x00, 0x00, 0x00, 0x00, 0x00, 0x00, 0x00, 0x00, 
  0x00, 0x00, 0x00, 0x00, 0x00, 0x00, 0x00, 0x00, 0x00, 0x00, 0x00, 0x00, 
  0x00, 0x00, 0x00, 0x00, 0x00, 0x00, 0x00, 0x00, 0x00, 0x00, 0x00, 0x00, 
  0x00, 0x00, 0x00, 0x00, 0x00, 0x00, 0x00, 0x00, 0x00, 0xFE, 0x07, 0x00, 
  0x00, 0xFE, 0x07, 0x00, 0x00, 0xFE, 0x07, 0x00, 0x00, 0xFE, 0x07, 0x00, 
  0x00, 0xFE, 0x07, 0x00, 0x00, 0xFE, 0x07, 0x00, 0x00, 0xFE, 0x07, 0x00, 
  0x00, 0xFE, 0x07, 0x00, 0x00, 0xFE, 0x07, 0x00, 0x00, 0xFE, 0x07, 0x00, 
  0x00, 0xFE, 0x07, 0x00, 0x00, 0xFE, 0x07, 0x00, 0x00, 0xFE, 0x07, 0x00, 
  0x00, 0xFE, 0x07, 0x00, 0x00, 0xFE, 0x07, 0x00, 0x00, 0xFE, 0x07, 0x00, 
  0x00, 0xFE, 0x07, 0x00, 0x00, 0xFE, 0x07, 0x00, 0x00, 0xFE, 0x07, 0x00, 
  0x00, 0xFE, 0x07, 0x00, 0x00, 0xFE, 0x07, 0x00, 0x00, 0xFE, 0x07, 0x00, 
  0x00, 0xFE, 0x07, 0x00, 0x00, 0xFE, 0x07, 0x00, 0x00, 0xFE, 0x07, 0x00, 
  0x00, 0xFE, 0x07, 0x00, 0x00, 0xFE, 0x07, 0x00, 0x00, 0xFE, 0x07, 0x00, 
  0x00, 0xFE, 0x07, 0x00, 0x00, 0xFE, 0x07, 0x00, 0x00, 0xFE, 0x07, 0x00, 
  0x00, 0xFE, 0x07, 0x00, 0x00, 0xFE, 0x07, 0x00, 0x00, 0xFE, 0x07, 0x00, 
  0x00, 0xFE, 0x07, 0x00, 0x00, 0xFE, 0x07, 0x00, 0x00, 0xFE, 0x07, 0x00, 
  0x00, 0xFE, 0x07, 0x00, 0x00, 0xFE, 0x07, 0x00, 0x00, 0x00, 0x00, 0x00, 
  0x00, 0x00, 0x00, 0x00, 0x00, 0x00, 0x00, 0x00, 0x00, 0x00, 0x00, 0x00, 
  0x00, 0x00, 0x00, 0x00, 0x00, 0x00, 0x00, 0x00, 0x00, 0x00, 0x00, 0x00, 
  0x00, 0x00, 0x00, 0x00, 0x00, 0x00, 0x00, 0x00, 0x00, 0x00, 0x00, 0x00, 
  0x00, 0x00, 0x00, 0x00, 0x00, 0x00, 0x00, 0x00, 0x00, 0x00, 0x00, 0x00, 
  0x00, 0x00, 0x00, 0x00, 0x00, 0x00, 0x00, 0x00, 0x00, 0x00, 0x00, 0x00, 
  0x00, 0x00, 0x00, 0x00, 0x00, 0x00, 0x00, 0x00, 0x00, 0x00, 0x00, 0x00, 
  0x00, 0x00, 0x00, 0x00, 0x00, 0x00, 0x00, 0x00, 0x00, 0x00, 0x00, 0x00, 
  0x00, 0x00, 0x00, 0x00, };
