#define _103_width 23
#define _103_height 62
static char _103_bits[] = {
  0x00, 0x00, 0x00, 0x00, 0x00, 0x00, 0x00, 0x00, 0x00, 0x00, 0x00, 0x00, 
  0x00, 0x00, 0x00, 0x00, 0x00, 0x00, 0x00, 0x00, 0x00, 0x00, 0x00, 0x00, 
  0x00, 0x00, 0x00, 0x00, 0x00, 0x00, 0x00, 0x00, 0x00, 0x00, 0x00, 0x00, 
  0x00, 0x00, 0x00, 0x00, 0x00, 0x00, 0x00, 0x00, 0x00, 0x00, 0x00, 0x00, 
  0x00, 0x00, 0x00, 0x00, 0x00, 0x00, 0x00, 0x00, 0x00, 0x00, 0x00, 0x00, 
  0x00, 0x00, 0x00, 0xE0, 0xFF, 0x07, 0xF0, 0xFF, 0x07, 0xF8, 0x00, 0x07, 
  0x38, 0x00, 0x07, 0x38, 0x00, 0x07, 0x18, 0x00, 0x07, 0x18, 0x00, 0x07, 
  0x18, 0x00, 0x07, 0x18, 0x00, 0x07, 0x18, 0x00, 0x07, 0x18, 0x00, 0x07, 
  0x18, 0x00, 0x07, 0x18, 0x00, 0x07, 0x18, 0x00, 0x07, 0x18, 0x00, 0x07, 
  0x18, 0x00, 0x07, 0x18, 0x00, 0x07, 0x18, 0x00, 0x07, 0x18, 0x00, 0x07, 
  0x18, 0x00, 0x07, 0x18, 0x00, 0x07, 0x38, 0x00, 0x07, 0x38, 0x00, 0x07, 
  0x38, 0x00, 0x07, 0xF0, 0xFF, 0x07, 0xE0, 0xFF, 0x07, 0xC0, 0xFF, 0x07, 
  0x00, 0x00, 0x07, 0x00, 0x00, 0x07, 0x00, 0x00, 0x07, 0x00, 0x00, 0x07, 
  0x00, 0x00, 0x07, 0x00, 0x00, 0x07, 0x00, 0x00, 0x07, 0x00, 0x80, 0x07, 
  0xF8, 0xFF, 0x03, 0xF8, 0xFF, 0x01, 0xF8, 0xFF, 0x00, 0x00, 0x00, 0x00, 
  0x00, 0x00, 0x00, 0x00, 0x00, 0x00, };
