#define _124_width 17
#define _124_height 62
static char _124_bits[] = {
  0x00, 0x00, 0x00, 0x00, 0x00, 0x00, 0x00, 0x00, 0x00, 0x00, 0x00, 0x00, 
  0x00, 0x00, 0x00, 0x00, 0x00, 0x00, 0x00, 0x00, 0x00, 0x00, 0x00, 0x00, 
  0x00, 0x00, 0x00, 0x00, 0x00, 0x00, 0x18, 0x18, 0x00, 0x18, 0x38, 0x00, 
  0x18, 0x38, 0x00, 0x18, 0x38, 0x00, 0x18, 0x38, 0x00, 0x18, 0x38, 0x00, 
  0x18, 0x38, 0x00, 0x18, 0x38, 0x00, 0x18, 0x38, 0x00, 0x18, 0x38, 0x00, 
  0x18, 0x38, 0x00, 0x18, 0x38, 0x00, 0x18, 0x38, 0x00, 0x18, 0x38, 0x00, 
  0x18, 0x38, 0x00, 0x18, 0x38, 0x00, 0x18, 0x38, 0x00, 0x18, 0x38, 0x00, 
  0x18, 0x38, 0x00, 0x18, 0x38, 0x00, 0x18, 0x38, 0x00, 0x18, 0x38, 0x00, 
  0x18, 0x38, 0x00, 0x18, 0x38, 0x00, 0x18, 0x38, 0x00, 0x18, 0x38, 0x00, 
  0x18, 0x38, 0x00, 0x18, 0x38, 0x00, 0x18, 0x38, 0x00, 0x18, 0x38, 0x00, 
  0x18, 0x38, 0x00, 0x18, 0x38, 0x00, 0x18, 0x38, 0x00, 0x18, 0x38, 0x00, 
  0x18, 0x38, 0x00, 0x18, 0x38, 0x00, 0x18, 0x38, 0x00, 0x18, 0x18, 0x00, 
  0x00, 0x00, 0x00, 0x00, 0x00, 0x00, 0x00, 0x00, 0x00, 0x00, 0x00, 0x00, 
  0x00, 0x00, 0x00, 0x00, 0x00, 0x00, 0x00, 0x00, 0x00, 0x00, 0x00, 0x00, 
  0x00, 0x00, 0x00, 0x00, 0x00, 0x00, 0x00, 0x00, 0x00, 0x00, 0x00, 0x00, 
  0x00, 0x00, 0x00, 0x00, 0x00, 0x00, };
