#define _087_width 63
#define _087_height 100
static char _087_bits[] = {
  0x00, 0x00, 0x00, 0x00, 0x00, 0x00, 0x00, 0x00, 0x00, 0x00, 0x00, 0x00, 
  0x00, 0x00, 0x00, 0x00, 0x00, 0x00, 0x00, 0x00, 0x00, 0x00, 0x00, 0x00, 
  0x00, 0x00, 0x00, 0x00, 0x00, 0x00, 0x00, 0x00, 0x00, 0x00, 0x00, 0x00, 
  0x00, 0x00, 0x00, 0x00, 0x00, 0x00, 0x00, 0x00, 0x00, 0x00, 0x00, 0x00, 
  0x00, 0x00, 0x00, 0x00, 0x00, 0x00, 0x00, 0x00, 0x00, 0x00, 0x00, 0x00, 
  0x00, 0x00, 0x00, 0x00, 0x00, 0x00, 0x00, 0x00, 0x00, 0x00, 0x00, 0x00, 
  0x00, 0x00, 0x00, 0x00, 0x00, 0x00, 0x00, 0x00, 0x00, 0x00, 0x00, 0x00, 
  0x00, 0x00, 0x00, 0x00, 0x00, 0x00, 0x00, 0x00, 0x00, 0x00, 0x00, 0x00, 
  0x00, 0x00, 0x00, 0x00, 0x00, 0x00, 0x00, 0x00, 0x00, 0x00, 0x00, 0x00, 
  0x00, 0x00, 0x00, 0x00, 0x00, 0x00, 0x00, 0x00, 0x00, 0x00, 0x00, 0x00, 
  0x00, 0x00, 0x00, 0x00, 0x00, 0x00, 0x00, 0x00, 0x00, 0x00, 0x00, 0x00, 
  0x00, 0x00, 0x00, 0x00, 0x00, 0x00, 0x00, 0x00, 0x00, 0x00, 0x00, 0x00, 
  0x00, 0x00, 0x00, 0x00, 0x00, 0x00, 0x00, 0x00, 0x00, 0x00, 0x00, 0x00, 
  0x00, 0x00, 0x00, 0x00, 0xF8, 0x03, 0x00, 0xE0, 0x07, 0x00, 0xE0, 0x0F, 
  0xF8, 0x03, 0x00, 0xF0, 0x07, 0x00, 0xE0, 0x0F, 0xF8, 0x07, 0x00, 0xF0, 
  0x07, 0x00, 0xE0, 0x0F, 0xF0, 0x07, 0x00, 0xF0, 0x0F, 0x00, 0xF0, 0x0F, 
  0xF0, 0x07, 0x00, 0xF0, 0x0F, 0x00, 0xF0, 0x07, 0xF0, 0x07, 0x00, 0xF8, 
  0x0F, 0x00, 0xF0, 0x07, 0xF0, 0x07, 0x00, 0xF8, 0x0F, 0x00, 0xF0, 0x07, 
  0xF0, 0x0F, 0x00, 0xF8, 0x0F, 0x00, 0xF0, 0x07, 0xE0, 0x0F, 0x00, 0xF8, 
  0x1F, 0x00, 0xF8, 0x07, 0xE0, 0x0F, 0x00, 0xFC, 0x1F, 0x00, 0xF8, 0x03, 
  0xE0, 0x0F, 0x00, 0xFC, 0x1F, 0x00, 0xF8, 0x03, 0xE0, 0x0F, 0x00, 0xFC, 
  0x1F, 0x00, 0xF8, 0x03, 0xE0, 0x0F, 0x00, 0xFC, 0x3F, 0x00, 0xF8, 0x03, 
  0xC0, 0x1F, 0x00, 0xFC, 0x3F, 0x00, 0xF8, 0x03, 0xC0, 0x1F, 0x00, 0x7E, 
  0x3F, 0x00, 0xFC, 0x01, 0xC0, 0x1F, 0x00, 0x7E, 0x3F, 0x00, 0xFC, 0x01, 
  0xC0, 0x1F, 0x00, 0x7E, 0x3E, 0x00, 0xFC, 0x01, 0xC0, 0x1F, 0x00, 0x7E, 
  0x7E, 0x00, 0xFC, 0x01, 0x80, 0x3F, 0x00, 0x3F, 0x7E, 0x00, 0xFC, 0x01, 
  0x80, 0x3F, 0x00, 0x3F, 0x7E, 0x00, 0xFE, 0x00, 0x80, 0x3F, 0x00, 0x3F, 
  0x7E, 0x00, 0xFE, 0x00, 0x80, 0x3F, 0x00, 0x3F, 0xFC, 0x00, 0xFE, 0x00, 
  0x80, 0x3F, 0x80, 0x3F, 0xFC, 0x00, 0xFE, 0x00, 0x00, 0x3F, 0x80, 0x1F, 
  0xFC, 0x00, 0xFE, 0x00, 0x00, 0x7F, 0x80, 0x1F, 0xFC, 0x00, 0x7E, 0x00, 
  0x00, 0x7F, 0x80, 0x1F, 0xF8, 0x00, 0x7F, 0x00, 0x00, 0x7F, 0x80, 0x1F, 
  0xF8, 0x01, 0x7F, 0x00, 0x00, 0x7F, 0xC0, 0x0F, 0xF8, 0x01, 0x7F, 0x00, 
  0x00, 0x7E, 0xC0, 0x0F, 0xF8, 0x01, 0x7F, 0x00, 0x00, 0xFE, 0xC0, 0x0F, 
  0xF0, 0x01, 0x3F, 0x00, 0x00, 0xFE, 0xC0, 0x0F, 0xF0, 0x83, 0x3F, 0x00, 
  0x00, 0xFE, 0xE0, 0x07, 0xF0, 0x83, 0x3F, 0x00, 0x00, 0xFE, 0xE0, 0x07, 
  0xF0, 0x83, 0x3F, 0x00, 0x00, 0xFC, 0xE0, 0x07, 0xF0, 0x83, 0x3F, 0x00, 
  0x00, 0xFC, 0xE0, 0x07, 0xE0, 0x87, 0x1F, 0x00, 0x00, 0xFC, 0xF1, 0x03, 
  0xE0, 0x87, 0x1F, 0x00, 0x00, 0xFC, 0xF1, 0x03, 0xE0, 0xC7, 0x1F, 0x00, 
  0x00, 0xFC, 0xF1, 0x03, 0xE0, 0xC7, 0x1F, 0x00, 0x00, 0xF8, 0xF1, 0x03, 
  0xC0, 0xC7, 0x1F, 0x00, 0x00, 0xF8, 0xF1, 0x01, 0xC0, 0xCF, 0x0F, 0x00, 
  0x00, 0xF8, 0xFB, 0x01, 0xC0, 0xCF, 0x0F, 0x00, 0x00, 0xF8, 0xFB, 0x01, 
  0xC0, 0xCF, 0x0F, 0x00, 0x00, 0xF8, 0xFB, 0x01, 0x80, 0xEF, 0x0F, 0x00, 
  0x00, 0xF0, 0xFB, 0x01, 0x80, 0xEF, 0x0F, 0x00, 0x00, 0xF0, 0xFB, 0x00, 
  0x80, 0xFF, 0x07, 0x00, 0x00, 0xF0, 0xFF, 0x00, 0x80, 0xFF, 0x07, 0x00, 
  0x00, 0xF0, 0xFF, 0x00, 0x80, 0xFF, 0x07, 0x00, 0x00, 0xF0, 0xFF, 0x00, 
  0x00, 0xFF, 0x07, 0x00, 0x00, 0xE0, 0x7F, 0x00, 0x00, 0xFF, 0x07, 0x00, 
  0x00, 0xE0, 0x7F, 0x00, 0x00, 0xFF, 0x03, 0x00, 0x00, 0xE0, 0x7F, 0x00, 
  0x00, 0xFF, 0x03, 0x00, 0x00, 0xE0, 0x7F, 0x00, 0x00, 0xFE, 0x03, 0x00, 
  0x00, 0xE0, 0x3F, 0x00, 0x00, 0xFE, 0x03, 0x00, 0x00, 0xC0, 0x3F, 0x00, 
  0x00, 0xFE, 0x03, 0x00, 0x00, 0xC0, 0x3F, 0x00, 0x00, 0xFE, 0x01, 0x00, 
  0x00, 0xC0, 0x3F, 0x00, 0x00, 0xFC, 0x01, 0x00, 0x00, 0xC0, 0x1F, 0x00, 
  0x00, 0xFC, 0x01, 0x00, 0x00, 0xC0, 0x1F, 0x00, 0x00, 0xFC, 0x01, 0x00, 
  0x00, 0x00, 0x00, 0x00, 0x00, 0x00, 0x00, 0x00, 0x00, 0x00, 0x00, 0x00, 
  0x00, 0x00, 0x00, 0x00, 0x00, 0x00, 0x00, 0x00, 0x00, 0x00, 0x00, 0x00, 
  0x00, 0x00, 0x00, 0x00, 0x00, 0x00, 0x00, 0x00, 0x00, 0x00, 0x00, 0x00, 
  0x00, 0x00, 0x00, 0x00, 0x00, 0x00, 0x00, 0x00, 0x00, 0x00, 0x00, 0x00, 
  0x00, 0x00, 0x00, 0x00, 0x00, 0x00, 0x00, 0x00, 0x00, 0x00, 0x00, 0x00, 
  0x00, 0x00, 0x00, 0x00, 0x00, 0x00, 0x00, 0x00, 0x00, 0x00, 0x00, 0x00, 
  0x00, 0x00, 0x00, 0x00, 0x00, 0x00, 0x00, 0x00, 0x00, 0x00, 0x00, 0x00, 
  0x00, 0x00, 0x00, 0x00, 0x00, 0x00, 0x00, 0x00, 0x00, 0x00, 0x00, 0x00, 
  0x00, 0x00, 0x00, 0x00, 0x00, 0x00, 0x00, 0x00, 0x00, 0x00, 0x00, 0x00, 
  0x00, 0x00, 0x00, 0x00, 0x00, 0x00, 0x00, 0x00, 0x00, 0x00, 0x00, 0x00, 
  0x00, 0x00, 0x00, 0x00, 0x00, 0x00, 0x00, 0x00, 0x00, 0x00, 0x00, 0x00, 
  0x00, 0x00, 0x00, 0x00, 0x00, 0x00, 0x00, 0x00, 0x00, 0x00, 0x00, 0x00, 
  0x00, 0x00, 0x00, 0x00, 0x00, 0x00, 0x00, 0x00, 0x00, 0x00, 0x00, 0x00, 
  0x00, 0x00, 0x00, 0x00, 0x00, 0x00, 0x00, 0x00, 0x00, 0x00, 0x00, 0x00, 
  0x00, 0x00, 0x00, 0x00, 0x00, 0x00, 0x00, 0x00, };
