#define _036_width 43
#define _036_height 60
static char _036_bits[] = {
  0x00, 0x00, 0x00, 0x00, 0x00, 0x00, 0x00, 0x00, 0x00, 0x00, 0x00, 0x00, 
  0x00, 0x00, 0x00, 0x00, 0x00, 0x00, 0x00, 0x00, 0x00, 0x00, 0x00, 0x00, 
  0x00, 0x00, 0x00, 0x00, 0x00, 0x00, 0x00, 0x00, 0x00, 0x00, 0x00, 0x00, 
  0x00, 0x00, 0x00, 0x00, 0x00, 0x00, 0x00, 0x00, 0x00, 0x00, 0x00, 0x00, 
  0x00, 0x00, 0x00, 0x00, 0x00, 0x00, 0x00, 0x00, 0x00, 0x00, 0x00, 0x00, 
  0x00, 0x00, 0x00, 0x00, 0x00, 0x00, 0x00, 0x00, 0x00, 0x00, 0x00, 0x00, 
  0x00, 0x00, 0x7C, 0x00, 0x00, 0x00, 0x00, 0x00, 0x7C, 0x00, 0x00, 0x00, 
  0x00, 0x00, 0x7C, 0x00, 0x00, 0x00, 0x00, 0x00, 0x7C, 0x00, 0x00, 0x00, 
  0x00, 0x00, 0x7C, 0x00, 0x00, 0x00, 0x00, 0x00, 0x7C, 0x00, 0x00, 0x00, 
  0x00, 0xFE, 0xFF, 0xFF, 0x01, 0x00, 0x80, 0xFF, 0xFF, 0xFF, 0x03, 0x00, 
  0x80, 0xFF, 0xFF, 0xFF, 0x07, 0x00, 0xC0, 0xFF, 0xFF, 0xFF, 0x0F, 0x00, 
  0xC0, 0xFF, 0xFF, 0xFF, 0x0F, 0x00, 0xC0, 0x07, 0x7C, 0x80, 0x0F, 0x00, 
  0xC0, 0x07, 0x7C, 0x80, 0x0F, 0x00, 0xC0, 0x07, 0x7C, 0x80, 0x03, 0x00, 
  0xC0, 0x07, 0x7C, 0x00, 0x00, 0x00, 0xC0, 0x07, 0x7C, 0x00, 0x00, 0x00, 
  0xC0, 0x07, 0x7C, 0x00, 0x00, 0x00, 0xC0, 0xFF, 0xFF, 0xFF, 0x03, 0x00, 
  0xC0, 0xFF, 0xFF, 0xFF, 0x07, 0x00, 0x80, 0xFF, 0xFF, 0xFF, 0x0F, 0x00, 
  0x80, 0xFF, 0xFF, 0xFF, 0x1F, 0x00, 0x00, 0xFE, 0xFF, 0xFF, 0x1F, 0x00, 
  0x00, 0x00, 0x7C, 0x00, 0x1F, 0x00, 0x00, 0x00, 0x7C, 0x00, 0x1F, 0x00, 
  0x00, 0x00, 0x7C, 0x00, 0x1F, 0x00, 0x00, 0x00, 0x7C, 0x00, 0x1F, 0x00, 
  0x80, 0x03, 0x7C, 0x00, 0x1F, 0x00, 0xE0, 0x03, 0x7C, 0x00, 0x1F, 0x00, 
  0xE0, 0x03, 0x7C, 0x00, 0x1F, 0x00, 0xE0, 0xFF, 0xFF, 0xFF, 0x1F, 0x00, 
  0xE0, 0xFF, 0xFF, 0xFF, 0x1F, 0x00, 0xC0, 0xFF, 0xFF, 0xFF, 0x0F, 0x00, 
  0xC0, 0xFF, 0xFF, 0xFF, 0x07, 0x00, 0x00, 0xFF, 0xFF, 0xFF, 0x03, 0x00, 
  0x00, 0x00, 0x7C, 0x00, 0x00, 0x00, 0x00, 0x00, 0x7C, 0x00, 0x00, 0x00, 
  0x00, 0x00, 0x7C, 0x00, 0x00, 0x00, 0x00, 0x00, 0x7C, 0x00, 0x00, 0x00, 
  0x00, 0x00, 0x7C, 0x00, 0x00, 0x00, 0x00, 0x00, 0x7C, 0x00, 0x00, 0x00, 
  0x00, 0x00, 0x7C, 0x00, 0x00, 0x00, 0x00, 0x00, 0x00, 0x00, 0x00, 0x00, 
  0x00, 0x00, 0x00, 0x00, 0x00, 0x00, 0x00, 0x00, 0x00, 0x00, 0x00, 0x00, 
  0x00, 0x00, 0x00, 0x00, 0x00, 0x00, 0x00, 0x00, 0x00, 0x00, 0x00, 0x00, 
  0x00, 0x00, 0x00, 0x00, 0x00, 0x00, 0x00, 0x00, 0x00, 0x00, 0x00, 0x00, 
  };
