#define _119_width 44
#define _119_height 60
static char _119_bits[] = {
  0x00, 0x00, 0x00, 0x00, 0x00, 0x00, 0x00, 0x00, 0x00, 0x00, 0x00, 0x00, 
  0x00, 0x00, 0x00, 0x00, 0x00, 0x00, 0x00, 0x00, 0x00, 0x00, 0x00, 0x00, 
  0x00, 0x00, 0x00, 0x00, 0x00, 0x00, 0x00, 0x00, 0x00, 0x00, 0x00, 0x00, 
  0x00, 0x00, 0x00, 0x00, 0x00, 0x00, 0x00, 0x00, 0x00, 0x00, 0x00, 0x00, 
  0x00, 0x00, 0x00, 0x00, 0x00, 0x00, 0x00, 0x00, 0x00, 0x00, 0x00, 0x00, 
  0x00, 0x00, 0x00, 0x00, 0x00, 0x00, 0x00, 0x00, 0x00, 0x00, 0x00, 0x00, 
  0x00, 0x00, 0x00, 0x00, 0x00, 0x00, 0x00, 0x00, 0x00, 0x00, 0x00, 0x00, 
  0x00, 0x00, 0x00, 0x00, 0x00, 0x00, 0x00, 0x00, 0x00, 0x00, 0x00, 0x00, 
  0x00, 0x00, 0x00, 0x00, 0x00, 0x00, 0x00, 0x00, 0x00, 0x00, 0x00, 0x00, 
  0x00, 0x00, 0x00, 0x00, 0x00, 0x00, 0x00, 0x00, 0x00, 0x00, 0x00, 0x00, 
  0x00, 0x00, 0x00, 0x00, 0x00, 0x00, 0x00, 0x00, 0x00, 0x00, 0x00, 0x00, 
  0x00, 0x00, 0x00, 0x00, 0x00, 0x00, 0xFC, 0x00, 0xF0, 0x01, 0xE0, 0x03, 
  0xF8, 0x00, 0xF0, 0x01, 0xF0, 0x01, 0xF8, 0x01, 0xF0, 0x01, 0xF0, 0x01, 
  0xF8, 0x01, 0xF8, 0x03, 0xF0, 0x01, 0xF0, 0x03, 0xF8, 0x03, 0xF8, 0x00, 
  0xF0, 0x03, 0xFC, 0x07, 0xF8, 0x00, 0xE0, 0x03, 0xFC, 0x07, 0x7C, 0x00, 
  0xE0, 0x07, 0xFE, 0x07, 0x7C, 0x00, 0xE0, 0x07, 0x9E, 0x0F, 0x7C, 0x00, 
  0xC0, 0x0F, 0x9E, 0x0F, 0x3E, 0x00, 0xC0, 0x0F, 0x1F, 0x1F, 0x3E, 0x00, 
  0x80, 0x0F, 0x0F, 0x1F, 0x1E, 0x00, 0x80, 0x9F, 0x0F, 0x1F, 0x1F, 0x00, 
  0x00, 0x9F, 0x07, 0x3E, 0x1F, 0x00, 0x00, 0x9F, 0x07, 0xBE, 0x0F, 0x00, 
  0x00, 0xFF, 0x03, 0xFC, 0x0F, 0x00, 0x00, 0xFE, 0x03, 0xFC, 0x07, 0x00, 
  0x00, 0xFE, 0x03, 0xF8, 0x07, 0x00, 0x00, 0xFC, 0x01, 0xF8, 0x03, 0x00, 
  0x00, 0xFC, 0x01, 0xF8, 0x03, 0x00, 0x00, 0xFC, 0x00, 0xF0, 0x03, 0x00, 
  0x00, 0xF8, 0x00, 0xF0, 0x01, 0x00, 0x00, 0xF8, 0x00, 0xE0, 0x01, 0x00, 
  0x00, 0x00, 0x00, 0x00, 0x00, 0x00, 0x00, 0x00, 0x00, 0x00, 0x00, 0x00, 
  0x00, 0x00, 0x00, 0x00, 0x00, 0x00, 0x00, 0x00, 0x00, 0x00, 0x00, 0x00, 
  0x00, 0x00, 0x00, 0x00, 0x00, 0x00, 0x00, 0x00, 0x00, 0x00, 0x00, 0x00, 
  0x00, 0x00, 0x00, 0x00, 0x00, 0x00, 0x00, 0x00, 0x00, 0x00, 0x00, 0x00, 
  0x00, 0x00, 0x00, 0x00, 0x00, 0x00, 0x00, 0x00, 0x00, 0x00, 0x00, 0x00, 
  0x00, 0x00, 0x00, 0x00, 0x00, 0x00, 0x00, 0x00, 0x00, 0x00, 0x00, 0x00, 
  0x00, 0x00, 0x00, 0x00, 0x00, 0x00, 0x00, 0x00, 0x00, 0x00, 0x00, 0x00, 
  };
