#define _067_width 41
#define _067_height 120
static char _067_bits[] = {
  0x00, 0x00, 0x00, 0x00, 0x00, 0x00, 0x00, 0x00, 0x00, 0x00, 0x00, 0x00, 
  0x00, 0x00, 0x00, 0x00, 0x00, 0x00, 0x00, 0x00, 0x00, 0x00, 0x00, 0x00, 
  0x00, 0x00, 0x00, 0x00, 0x00, 0x00, 0x00, 0x00, 0x00, 0x00, 0x00, 0x00, 
  0x00, 0x00, 0x00, 0x00, 0x00, 0x00, 0x00, 0x00, 0x00, 0x00, 0x00, 0x00, 
  0x00, 0x00, 0x00, 0x00, 0x00, 0x00, 0x00, 0x00, 0x00, 0x00, 0x00, 0x00, 
  0x00, 0x00, 0x00, 0x00, 0x00, 0x00, 0x00, 0x00, 0x00, 0x00, 0x00, 0x00, 
  0x00, 0x00, 0x00, 0x00, 0x00, 0x00, 0x00, 0x00, 0x00, 0x00, 0x00, 0x00, 
  0x00, 0x00, 0x00, 0x00, 0x00, 0x00, 0x00, 0x00, 0x00, 0x00, 0x00, 0x00, 
  0x00, 0x00, 0x00, 0x00, 0x00, 0x00, 0x00, 0x00, 0x00, 0x00, 0x00, 0x00, 
  0x00, 0x00, 0x00, 0x00, 0x00, 0x00, 0x00, 0x00, 0x00, 0x00, 0x00, 0x00, 
  0x00, 0x00, 0x00, 0x00, 0x00, 0x00, 0x00, 0x00, 0x00, 0x00, 0x00, 0x00, 
  0x00, 0x00, 0x00, 0x00, 0x00, 0x00, 0x00, 0x00, 0x00, 0x00, 0x00, 0x00, 
  0x00, 0x00, 0x00, 0x00, 0x00, 0x00, 0x00, 0x00, 0x00, 0x00, 0x00, 0x00, 
  0x00, 0x80, 0x3F, 0x00, 0x00, 0x00, 0x00, 0xE0, 0xFF, 0x00, 0x00, 0x00, 
  0x00, 0xF0, 0xFF, 0x03, 0x00, 0x00, 0x00, 0xF8, 0xFF, 0x07, 0x00, 0x00, 
  0x00, 0xFC, 0xFF, 0x0F, 0x00, 0x00, 0x00, 0xFE, 0xFF, 0x1F, 0x00, 0x00, 
  0x00, 0xFE, 0xE0, 0x3F, 0x00, 0x00, 0x00, 0x7F, 0x80, 0x3F, 0x00, 0x00, 
  0x00, 0x3F, 0x00, 0x7F, 0x00, 0x00, 0x00, 0x3F, 0x00, 0xFE, 0x00, 0x00, 
  0x80, 0x1F, 0x00, 0xFC, 0x00, 0x00, 0x80, 0x1F, 0x00, 0xFC, 0x00, 0x00, 
  0x80, 0x1F, 0x00, 0xF8, 0x01, 0x00, 0x80, 0x1F, 0x00, 0xF8, 0x01, 0x00, 
  0x80, 0x1F, 0x00, 0xF0, 0x01, 0x00, 0x80, 0x0F, 0x00, 0xF0, 0x03, 0x00, 
  0x80, 0x0F, 0x00, 0xF0, 0x03, 0x00, 0x80, 0x0F, 0x00, 0xF0, 0x03, 0x00, 
  0x80, 0x0F, 0x00, 0xF0, 0x03, 0x00, 0x80, 0x0F, 0x00, 0xE0, 0x03, 0x00, 
  0x80, 0x0F, 0x00, 0xE0, 0x03, 0x00, 0x80, 0x0F, 0x00, 0xE0, 0x03, 0x00, 
  0xC0, 0x0F, 0x00, 0xE0, 0x03, 0x00, 0xC0, 0x0F, 0x00, 0xE0, 0x03, 0x00, 
  0xC0, 0x0F, 0x00, 0xE0, 0x03, 0x00, 0xC0, 0x0F, 0x00, 0xC0, 0x00, 0x00, 
  0xC0, 0x0F, 0x00, 0x00, 0x00, 0x00, 0xC0, 0x0F, 0x00, 0x00, 0x00, 0x00, 
  0x80, 0x0F, 0x00, 0x00, 0x00, 0x00, 0x80, 0x0F, 0x00, 0x00, 0x00, 0x00, 
  0x80, 0x0F, 0x00, 0x00, 0x00, 0x00, 0x80, 0x0F, 0x00, 0x00, 0x00, 0x00, 
  0x80, 0x0F, 0x00, 0x00, 0x00, 0x00, 0x80, 0x0F, 0x00, 0x00, 0x00, 0x00, 
  0x80, 0x0F, 0x00, 0x00, 0x00, 0x00, 0x80, 0x0F, 0x00, 0x00, 0x00, 0x00, 
  0x80, 0x1F, 0x00, 0x00, 0x00, 0x00, 0x80, 0x1F, 0x00, 0x00, 0x00, 0x00, 
  0x80, 0x1F, 0x00, 0x00, 0x00, 0x00, 0x80, 0x1F, 0x00, 0x00, 0x00, 0x00, 
  0x80, 0x1F, 0x00, 0x00, 0x00, 0x00, 0x80, 0x1F, 0x00, 0x00, 0x00, 0x00, 
  0x80, 0x1F, 0x00, 0x00, 0x00, 0x00, 0x80, 0x1F, 0x00, 0x00, 0x00, 0x00, 
  0x80, 0x1F, 0x00, 0x00, 0x00, 0x00, 0x80, 0x1F, 0x00, 0x00, 0x00, 0x00, 
  0x00, 0x1F, 0x00, 0x00, 0x00, 0x00, 0x00, 0x1F, 0x00, 0x00, 0x00, 0x00, 
  0x00, 0x1F, 0x00, 0x80, 0x03, 0x00, 0x00, 0x1F, 0x00, 0xC0, 0x07, 0x00, 
  0x00, 0x3F, 0x00, 0xE0, 0x07, 0x00, 0x00, 0x3F, 0x00, 0xE0, 0x07, 0x00, 
  0x00, 0x3F, 0x00, 0xE0, 0x07, 0x00, 0x00, 0x3F, 0x00, 0xE0, 0x07, 0x00, 
  0x00, 0x3F, 0x00, 0xE0, 0x07, 0x00, 0x00, 0x3E, 0x00, 0xE0, 0x07, 0x00, 
  0x00, 0x7E, 0x00, 0xE0, 0x07, 0x00, 0x00, 0x7E, 0x00, 0xE0, 0x07, 0x00, 
  0x00, 0x7E, 0x00, 0xE0, 0x07, 0x00, 0x00, 0x7E, 0x00, 0xE0, 0x07, 0x00, 
  0x00, 0x7C, 0x00, 0xE0, 0x03, 0x00, 0x00, 0xFC, 0x00, 0xF0, 0x03, 0x00, 
  0x00, 0xFC, 0x00, 0xF0, 0x03, 0x00, 0x00, 0xF8, 0x01, 0xF0, 0x03, 0x00, 
  0x00, 0xF8, 0x01, 0xF0, 0x03, 0x00, 0x00, 0xF8, 0x03, 0xF8, 0x01, 0x00, 
  0x00, 0xF0, 0x07, 0xF8, 0x01, 0x00, 0x00, 0xE0, 0x1F, 0xFC, 0x00, 0x00, 
  0x00, 0xE0, 0xFF, 0xFF, 0x00, 0x00, 0x00, 0xC0, 0xFF, 0x7F, 0x00, 0x00, 
  0x00, 0x80, 0xFF, 0x7F, 0x00, 0x00, 0x00, 0x00, 0xFF, 0x3F, 0x00, 0x00, 
  0x00, 0x00, 0xFC, 0x0F, 0x00, 0x00, 0x00, 0x00, 0xE0, 0x07, 0x00, 0x00, 
  0x00, 0x00, 0x00, 0x00, 0x00, 0x00, 0x00, 0x00, 0x00, 0x00, 0x00, 0x00, 
  0x00, 0x00, 0x00, 0x00, 0x00, 0x00, 0x00, 0x00, 0x00, 0x00, 0x00, 0x00, 
  0x00, 0x00, 0x00, 0x00, 0x00, 0x00, 0x00, 0x00, 0x00, 0x00, 0x00, 0x00, 
  0x00, 0x00, 0x00, 0x00, 0x00, 0x00, 0x00, 0x00, 0x00, 0x00, 0x00, 0x00, 
  0x00, 0x00, 0x00, 0x00, 0x00, 0x00, 0x00, 0x00, 0x00, 0x00, 0x00, 0x00, 
  0x00, 0x00, 0x00, 0x00, 0x00, 0x00, 0x00, 0x00, 0x00, 0x00, 0x00, 0x00, 
  0x00, 0x00, 0x00, 0x00, 0x00, 0x00, 0x00, 0x00, 0x00, 0x00, 0x00, 0x00, 
  0x00, 0x00, 0x00, 0x00, 0x00, 0x00, 0x00, 0x00, 0x00, 0x00, 0x00, 0x00, 
  0x00, 0x00, 0x00, 0x00, 0x00, 0x00, 0x00, 0x00, 0x00, 0x00, 0x00, 0x00, 
  0x00, 0x00, 0x00, 0x00, 0x00, 0x00, 0x00, 0x00, 0x00, 0x00, 0x00, 0x00, 
  };
