#define _068_width 39
#define _068_height 120
static char _068_bits[] = {
  0x00, 0x00, 0x00, 0x00, 0x00, 0x00, 0x00, 0x00, 0x00, 0x00, 0x00, 0x00, 
  0x00, 0x00, 0x00, 0x00, 0x00, 0x00, 0x00, 0x00, 0x00, 0x00, 0x00, 0x00, 
  0x00, 0x00, 0x00, 0x00, 0x00, 0x00, 0x00, 0x00, 0x00, 0x00, 0x00, 0x00, 
  0x00, 0x00, 0x00, 0x00, 0x00, 0x00, 0x00, 0x00, 0x00, 0x00, 0x00, 0x00, 
  0x00, 0x00, 0x00, 0x00, 0x00, 0x00, 0x00, 0x00, 0x00, 0x00, 0x00, 0x00, 
  0x00, 0x00, 0x00, 0x00, 0x00, 0x00, 0x00, 0x00, 0x00, 0x00, 0x00, 0x00, 
  0x00, 0x00, 0x00, 0x00, 0x00, 0x00, 0x00, 0x00, 0x00, 0x00, 0x00, 0x00, 
  0x00, 0x00, 0x00, 0x00, 0x00, 0x00, 0x00, 0x00, 0x00, 0x00, 0x00, 0x00, 
  0x00, 0x00, 0x00, 0x00, 0x00, 0x00, 0x00, 0x00, 0x00, 0x00, 0x00, 0x00, 
  0x00, 0x00, 0x00, 0x00, 0x00, 0x00, 0x00, 0x00, 0x00, 0x00, 0x00, 0x00, 
  0x00, 0x00, 0x00, 0x00, 0x00, 0x00, 0x00, 0x00, 0x00, 0x00, 0x00, 0x00, 
  0x00, 0x00, 0x00, 0x00, 0x00, 0x00, 0x00, 0x00, 0x00, 0x3F, 0x00, 0x00, 
  0x00, 0x80, 0xFF, 0x00, 0x00, 0x00, 0xC0, 0xFF, 0x01, 0x00, 0x00, 0xE0, 
  0xFF, 0x03, 0x00, 0x00, 0xE0, 0xFF, 0x07, 0x00, 0x00, 0xE0, 0xFF, 0x0F, 
  0x00, 0x00, 0xE0, 0xE3, 0x1F, 0x00, 0x00, 0xE0, 0xC3, 0x3F, 0x00, 0x00, 
  0xE0, 0x83, 0x7F, 0x00, 0x00, 0xE0, 0x03, 0x7F, 0x00, 0x00, 0xE0, 0x03, 
  0xFE, 0x00, 0x00, 0xE0, 0x03, 0xFC, 0x01, 0x00, 0xE0, 0x03, 0xFC, 0x01, 
  0x00, 0xE0, 0x07, 0xF8, 0x03, 0x00, 0xE0, 0x07, 0xF0, 0x03, 0x00, 0xE0, 
  0x07, 0xF0, 0x07, 0x00, 0xE0, 0x07, 0xE0, 0x07, 0x00, 0xE0, 0x07, 0xC0, 
  0x0F, 0x00, 0xE0, 0x07, 0xC0, 0x0F, 0x00, 0xE0, 0x07, 0x80, 0x1F, 0x00, 
  0xE0, 0x07, 0x80, 0x1F, 0x00, 0xC0, 0x07, 0x00, 0x3F, 0x00, 0xC0, 0x07, 
  0x00, 0x3F, 0x00, 0xC0, 0x07, 0x00, 0x3F, 0x00, 0xC0, 0x07, 0x00, 0x3E, 
  0x00, 0xC0, 0x07, 0x00, 0x7E, 0x00, 0xC0, 0x0F, 0x00, 0x7E, 0x00, 0xC0, 
  0x0F, 0x00, 0x7E, 0x00, 0xC0, 0x0F, 0x00, 0x7C, 0x00, 0xC0, 0x0F, 0x00, 
  0xFC, 0x00, 0xC0, 0x0F, 0x00, 0xFC, 0x00, 0xC0, 0x0F, 0x00, 0xFC, 0x00, 
  0xC0, 0x0F, 0x00, 0xFC, 0x00, 0xC0, 0x0F, 0x00, 0xF8, 0x00, 0xC0, 0x0F, 
  0x00, 0xF8, 0x00, 0x80, 0x0F, 0x00, 0xF8, 0x01, 0x80, 0x0F, 0x00, 0xF8, 
  0x01, 0x80, 0x0F, 0x00, 0xF8, 0x01, 0x80, 0x0F, 0x00, 0xF8, 0x01, 0x80, 
  0x0F, 0x00, 0xF8, 0x01, 0x80, 0x0F, 0x00, 0xF8, 0x01, 0x80, 0x0F, 0x00, 
  0xF8, 0x01, 0x80, 0x0F, 0x00, 0xF8, 0x01, 0x80, 0x0F, 0x00, 0xF8, 0x01, 
  0x80, 0x0F, 0x00, 0xF8, 0x01, 0x80, 0x1F, 0x00, 0xF8, 0x01, 0x80, 0x1F, 
  0x00, 0xF8, 0x00, 0x80, 0x1F, 0x00, 0xF8, 0x00, 0x80, 0x1F, 0x00, 0xF8, 
  0x00, 0x80, 0x1F, 0x00, 0xFC, 0x00, 0x80, 0x1F, 0x00, 0xFC, 0x00, 0x80, 
  0x1F, 0x00, 0xFC, 0x00, 0x80, 0x1F, 0x00, 0x7C, 0x00, 0x80, 0x1F, 0x00, 
  0x7E, 0x00, 0x80, 0x1F, 0x00, 0x7E, 0x00, 0x80, 0x1F, 0x00, 0x7E, 0x00, 
  0x80, 0x1F, 0x00, 0x3F, 0x00, 0x80, 0x1F, 0x00, 0x3F, 0x00, 0x80, 0x1F, 
  0x80, 0x1F, 0x00, 0x80, 0x1F, 0xC0, 0x1F, 0x00, 0x80, 0x1F, 0xC0, 0x0F, 
  0x00, 0x80, 0x1F, 0xE0, 0x0F, 0x00, 0x80, 0x1F, 0xF0, 0x07, 0x00, 0x80, 
  0x0F, 0xF8, 0x03, 0x00, 0x80, 0x0F, 0xFC, 0x03, 0x00, 0x80, 0x0F, 0xFF, 
  0x01, 0x00, 0x80, 0x8F, 0xFF, 0x00, 0x00, 0xC0, 0xEF, 0x7F, 0x00, 0x00, 
  0xC0, 0xFF, 0x3F, 0x00, 0x00, 0xC0, 0xFF, 0x0F, 0x00, 0x00, 0xC0, 0xFF, 
  0x07, 0x00, 0x00, 0x80, 0xFF, 0x01, 0x00, 0x00, 0x80, 0xFF, 0x00, 0x00, 
  0x00, 0x00, 0x38, 0x00, 0x00, 0x00, 0x00, 0x00, 0x00, 0x00, 0x00, 0x00, 
  0x00, 0x00, 0x00, 0x00, 0x00, 0x00, 0x00, 0x00, 0x00, 0x00, 0x00, 0x00, 
  0x00, 0x00, 0x00, 0x00, 0x00, 0x00, 0x00, 0x00, 0x00, 0x00, 0x00, 0x00, 
  0x00, 0x00, 0x00, 0x00, 0x00, 0x00, 0x00, 0x00, 0x00, 0x00, 0x00, 0x00, 
  0x00, 0x00, 0x00, 0x00, 0x00, 0x00, 0x00, 0x00, 0x00, 0x00, 0x00, 0x00, 
  0x00, 0x00, 0x00, 0x00, 0x00, 0x00, 0x00, 0x00, 0x00, 0x00, 0x00, 0x00, 
  0x00, 0x00, 0x00, 0x00, 0x00, 0x00, 0x00, 0x00, 0x00, 0x00, 0x00, 0x00, 
  0x00, 0x00, 0x00, 0x00, 0x00, 0x00, 0x00, 0x00, 0x00, 0x00, 0x00, 0x00, 
  };
