#define _077_width 44
#define _077_height 120
static char _077_bits[] = {
  0x00, 0x00, 0x00, 0x00, 0x00, 0x00, 0x00, 0x00, 0x00, 0x00, 0x00, 0x00, 
  0x00, 0x00, 0x00, 0x00, 0x00, 0x00, 0x00, 0x00, 0x00, 0x00, 0x00, 0x00, 
  0x00, 0x00, 0x00, 0x00, 0x00, 0x00, 0x00, 0x00, 0x00, 0x00, 0x00, 0x00, 
  0x00, 0x00, 0x00, 0x00, 0x00, 0x00, 0x00, 0x00, 0x00, 0x00, 0x00, 0x00, 
  0x00, 0x00, 0x00, 0x00, 0x00, 0x00, 0x00, 0x00, 0x00, 0x00, 0x00, 0x00, 
  0x00, 0x00, 0x00, 0x00, 0x00, 0x00, 0x00, 0x00, 0x00, 0x00, 0x00, 0x00, 
  0x00, 0x00, 0x00, 0x00, 0x00, 0x00, 0x00, 0x00, 0x00, 0x00, 0x00, 0x00, 
  0x00, 0x00, 0x00, 0x00, 0x00, 0x00, 0x00, 0x00, 0x00, 0x00, 0x00, 0x00, 
  0x00, 0x00, 0x00, 0x00, 0x00, 0x00, 0x00, 0x00, 0x00, 0x00, 0x00, 0x00, 
  0x00, 0x00, 0x00, 0x00, 0x00, 0x00, 0x00, 0x00, 0x00, 0x00, 0x00, 0x00, 
  0x00, 0x00, 0x00, 0x00, 0x00, 0x00, 0x00, 0x00, 0x00, 0x00, 0x00, 0x00, 
  0x00, 0x00, 0x00, 0x00, 0x00, 0x00, 0x00, 0x00, 0x00, 0x00, 0x00, 0x00, 
  0x00, 0x00, 0x00, 0x00, 0x00, 0x00, 0x00, 0x00, 0x00, 0x00, 0x00, 0x00, 
  0x00, 0x00, 0x00, 0x00, 0x00, 0x00, 0x00, 0x00, 0x00, 0x00, 0x00, 0x00, 
  0x1C, 0x00, 0x00, 0x00, 0x00, 0x00, 0x3E, 0x00, 0x00, 0x80, 0x07, 0x00, 
  0x3E, 0x00, 0x00, 0xC0, 0x0F, 0x00, 0x7E, 0x00, 0x00, 0xC0, 0x0F, 0x00, 
  0x7E, 0x00, 0x00, 0xE0, 0x0F, 0x00, 0x7E, 0x00, 0x00, 0xE0, 0x0F, 0x00, 
  0x7E, 0x00, 0x00, 0xE0, 0x0F, 0x00, 0xFE, 0x00, 0x00, 0xE0, 0x0F, 0x00, 
  0xFE, 0x00, 0x00, 0xE0, 0x0F, 0x00, 0xFE, 0x00, 0x00, 0xF0, 0x0F, 0x00, 
  0xFE, 0x00, 0x00, 0xF0, 0x0F, 0x00, 0xFE, 0x01, 0x00, 0xF0, 0x0F, 0x00, 
  0xFE, 0x01, 0x00, 0xF0, 0x0F, 0x00, 0xFE, 0x01, 0x00, 0xF0, 0x0F, 0x00, 
  0xFC, 0x03, 0x00, 0xF8, 0x0F, 0x00, 0xFC, 0x03, 0x00, 0xF8, 0x0F, 0x00, 
  0xFC, 0x03, 0x00, 0xF8, 0x0F, 0x00, 0xFC, 0x07, 0x00, 0xF8, 0x0F, 0x00, 
  0xFC, 0x07, 0x00, 0xFC, 0x0F, 0x00, 0xFC, 0x07, 0x00, 0xFC, 0x0F, 0x00, 
  0xFC, 0x07, 0x00, 0xFC, 0x0F, 0x00, 0xFC, 0x0F, 0x00, 0xFC, 0x0F, 0x00, 
  0xFC, 0x0F, 0x00, 0xFC, 0x0F, 0x00, 0xFC, 0x0F, 0x00, 0xFC, 0x0F, 0x00, 
  0xFC, 0x0F, 0x00, 0xFE, 0x0F, 0x00, 0xFC, 0x1F, 0x00, 0xFE, 0x0F, 0x00, 
  0xFC, 0x1F, 0x00, 0xFE, 0x0F, 0x00, 0xFC, 0x1F, 0x00, 0xFE, 0x0F, 0x00, 
  0xFC, 0x3F, 0x00, 0xFE, 0x0F, 0x00, 0xFC, 0x3F, 0x00, 0xFE, 0x0F, 0x00, 
  0xFC, 0x3F, 0x00, 0xFF, 0x0F, 0x00, 0xFC, 0x3E, 0x00, 0xBF, 0x0F, 0x00, 
  0xFC, 0x7E, 0x00, 0xBF, 0x0F, 0x00, 0xFC, 0x7E, 0x00, 0xBF, 0x0F, 0x00, 
  0xFC, 0x7E, 0x00, 0x9F, 0x0F, 0x00, 0xF8, 0x7C, 0x00, 0x9F, 0x0F, 0x00, 
  0xF8, 0xFC, 0x80, 0x9F, 0x0F, 0x00, 0xF8, 0xFC, 0x80, 0x9F, 0x0F, 0x00, 
  0xF8, 0xFC, 0x80, 0x9F, 0x0F, 0x00, 0xF8, 0xF8, 0x80, 0x9F, 0x0F, 0x00, 
  0xF8, 0xF8, 0x81, 0x8F, 0x1F, 0x00, 0xF8, 0xF8, 0x81, 0x8F, 0x1F, 0x00, 
  0xF8, 0xF8, 0x81, 0x8F, 0x1F, 0x00, 0xF8, 0xF1, 0xC1, 0x8F, 0x1F, 0x00, 
  0xF8, 0xF1, 0xC3, 0x8F, 0x1F, 0x00, 0xF8, 0xF1, 0xC3, 0x8F, 0x1F, 0x00, 
  0xF8, 0xF1, 0xC3, 0x8F, 0x1F, 0x00, 0xF8, 0xE1, 0xC3, 0x87, 0x1F, 0x00, 
  0xF8, 0xE1, 0xC3, 0x87, 0x1F, 0x00, 0xF8, 0xE1, 0xC7, 0x87, 0x1F, 0x00, 
  0xF8, 0xE1, 0xE7, 0x87, 0x1F, 0x00, 0xF8, 0xE1, 0xE7, 0x87, 0x1F, 0x00, 
  0xF8, 0xC1, 0xE7, 0x87, 0x1F, 0x00, 0xF8, 0xC1, 0xEF, 0x87, 0x1F, 0x00, 
  0xF8, 0xC1, 0xEF, 0x07, 0x1F, 0x00, 0xF8, 0xC1, 0xEF, 0x03, 0x1F, 0x00, 
  0xF8, 0x81, 0xFF, 0x03, 0x1F, 0x00, 0xF8, 0x81, 0xFF, 0x03, 0x1F, 0x00, 
  0xF8, 0x81, 0xFF, 0x03, 0x1F, 0x00, 0xF8, 0x81, 0xFF, 0x03, 0x1F, 0x00, 
  0xF8, 0x01, 0xFF, 0x03, 0x1F, 0x00, 0xF8, 0x01, 0xFF, 0x03, 0x3F, 0x00, 
  0xF8, 0x01, 0xFF, 0x01, 0x3F, 0x00, 0xF8, 0x01, 0xFF, 0x01, 0x3F, 0x00, 
  0xF8, 0x01, 0xFE, 0x01, 0x3F, 0x00, 0xF8, 0x01, 0xFE, 0x01, 0x3F, 0x00, 
  0xF8, 0x01, 0xFE, 0x01, 0x3F, 0x00, 0xF8, 0x01, 0xFE, 0x00, 0x3F, 0x00, 
  0xF8, 0x01, 0xFE, 0x00, 0x3F, 0x00, 0xF8, 0x01, 0xFC, 0x00, 0x3F, 0x00, 
  0xF0, 0x01, 0x7C, 0x00, 0x3E, 0x00, 0xF0, 0x00, 0x00, 0x00, 0x1C, 0x00, 
  0x00, 0x00, 0x00, 0x00, 0x00, 0x00, 0x00, 0x00, 0x00, 0x00, 0x00, 0x00, 
  0x00, 0x00, 0x00, 0x00, 0x00, 0x00, 0x00, 0x00, 0x00, 0x00, 0x00, 0x00, 
  0x00, 0x00, 0x00, 0x00, 0x00, 0x00, 0x00, 0x00, 0x00, 0x00, 0x00, 0x00, 
  0x00, 0x00, 0x00, 0x00, 0x00, 0x00, 0x00, 0x00, 0x00, 0x00, 0x00, 0x00, 
  0x00, 0x00, 0x00, 0x00, 0x00, 0x00, 0x00, 0x00, 0x00, 0x00, 0x00, 0x00, 
  0x00, 0x00, 0x00, 0x00, 0x00, 0x00, 0x00, 0x00, 0x00, 0x00, 0x00, 0x00, 
  0x00, 0x00, 0x00, 0x00, 0x00, 0x00, 0x00, 0x00, 0x00, 0x00, 0x00, 0x00, 
  0x00, 0x00, 0x00, 0x00, 0x00, 0x00, 0x00, 0x00, 0x00, 0x00, 0x00, 0x00, 
  0x00, 0x00, 0x00, 0x00, 0x00, 0x00, 0x00, 0x00, 0x00, 0x00, 0x00, 0x00, 
  0x00, 0x00, 0x00, 0x00, 0x00, 0x00, 0x00, 0x00, 0x00, 0x00, 0x00, 0x00, 
  };
