#define _079_width 33
#define _079_height 120
static char _079_bits[] = {
  0x00, 0x00, 0x00, 0x00, 0x00, 0x00, 0x00, 0x00, 0x00, 0x00, 0x00, 0x00, 
  0x00, 0x00, 0x00, 0x00, 0x00, 0x00, 0x00, 0x00, 0x00, 0x00, 0x00, 0x00, 
  0x00, 0x00, 0x00, 0x00, 0x00, 0x00, 0x00, 0x00, 0x00, 0x00, 0x00, 0x00, 
  0x00, 0x00, 0x00, 0x00, 0x00, 0x00, 0x00, 0x00, 0x00, 0x00, 0x00, 0x00, 
  0x00, 0x00, 0x00, 0x00, 0x00, 0x00, 0x00, 0x00, 0x00, 0x00, 0x00, 0x00, 
  0x00, 0x00, 0x00, 0x00, 0x00, 0x00, 0x00, 0x00, 0x00, 0x00, 0x00, 0x00, 
  0x00, 0x00, 0x00, 0x00, 0x00, 0x00, 0x00, 0x00, 0x00, 0x00, 0x00, 0x00, 
  0x00, 0x00, 0x00, 0x00, 0x00, 0x00, 0x00, 0x00, 0x00, 0x00, 0x00, 0x00, 
  0x00, 0x00, 0x00, 0x00, 0x00, 0x00, 0x00, 0x00, 0x00, 0x00, 0x00, 0x00, 
  0x00, 0x00, 0x00, 0x00, 0x00, 0x00, 0x00, 0x00, 0x00, 0x00, 0x00, 0x00, 
  0x00, 0x00, 0x00, 0x00, 0x00, 0x00, 0x00, 0x00, 0x00, 0x00, 0x00, 0x00, 
  0x00, 0x00, 0x00, 0x00, 0x00, 0x00, 0x00, 0x00, 0x00, 0xE0, 0x07, 0x00, 
  0x00, 0x00, 0xF8, 0x3F, 0x00, 0x00, 0x00, 0xFC, 0x3F, 0x00, 0x00, 0x00, 
  0xFC, 0x7F, 0x00, 0x00, 0x00, 0xFE, 0xFF, 0x00, 0x00, 0x00, 0xFE, 0xFF, 
  0x00, 0x00, 0x00, 0x3F, 0xFC, 0x01, 0x00, 0x00, 0x3F, 0xF8, 0x01, 0x00, 
  0x00, 0x3F, 0xF8, 0x01, 0x00, 0x00, 0x3F, 0xF0, 0x03, 0x00, 0x00, 0x1F, 
  0xF0, 0x03, 0x00, 0x80, 0x1F, 0xF0, 0x03, 0x00, 0x80, 0x1F, 0xF0, 0x03, 
  0x00, 0x80, 0x1F, 0xF0, 0x03, 0x00, 0x80, 0x1F, 0xE0, 0x03, 0x00, 0x80, 
  0x1F, 0xE0, 0x03, 0x00, 0x80, 0x1F, 0xE0, 0x07, 0x00, 0x80, 0x1F, 0xE0, 
  0x07, 0x00, 0x80, 0x1F, 0xE0, 0x07, 0x00, 0x80, 0x1F, 0xE0, 0x07, 0x00, 
  0x80, 0x1F, 0xE0, 0x07, 0x00, 0x80, 0x1F, 0xE0, 0x07, 0x00, 0x80, 0x0F, 
  0xE0, 0x07, 0x00, 0x80, 0x0F, 0xE0, 0x07, 0x00, 0x80, 0x0F, 0xE0, 0x07, 
  0x00, 0x80, 0x0F, 0xE0, 0x07, 0x00, 0x80, 0x0F, 0xE0, 0x07, 0x00, 0x80, 
  0x0F, 0xE0, 0x07, 0x00, 0x80, 0x0F, 0xC0, 0x07, 0x00, 0x80, 0x1F, 0xC0, 
  0x07, 0x00, 0x80, 0x1F, 0xC0, 0x07, 0x00, 0x80, 0x1F, 0xC0, 0x07, 0x00, 
  0x80, 0x1F, 0xC0, 0x07, 0x00, 0x80, 0x1F, 0xC0, 0x07, 0x00, 0x80, 0x1F, 
  0xC0, 0x07, 0x00, 0x80, 0x1F, 0xC0, 0x07, 0x00, 0x80, 0x1F, 0xE0, 0x07, 
  0x00, 0x80, 0x1F, 0xE0, 0x07, 0x00, 0x80, 0x1F, 0xE0, 0x07, 0x00, 0x80, 
  0x1F, 0xE0, 0x07, 0x00, 0x80, 0x1F, 0xE0, 0x07, 0x00, 0x80, 0x1F, 0xE0, 
  0x07, 0x00, 0x80, 0x1F, 0xE0, 0x07, 0x00, 0x80, 0x1F, 0xE0, 0x07, 0x00, 
  0x00, 0x1F, 0xE0, 0x07, 0x00, 0x00, 0x1F, 0xE0, 0x07, 0x00, 0x00, 0x1F, 
  0xE0, 0x07, 0x00, 0x00, 0x1F, 0xE0, 0x07, 0x00, 0x00, 0x1F, 0xE0, 0x07, 
  0x00, 0x00, 0x3F, 0xE0, 0x07, 0x00, 0x00, 0x3F, 0xE0, 0x07, 0x00, 0x00, 
  0x3F, 0xE0, 0x07, 0x00, 0x00, 0x3F, 0xE0, 0x07, 0x00, 0x00, 0x3F, 0xE0, 
  0x07, 0x00, 0x00, 0x3F, 0xE0, 0x07, 0x00, 0x00, 0x3F, 0xE0, 0x07, 0x00, 
  0x00, 0x3F, 0xE0, 0x07, 0x00, 0x00, 0x3F, 0xE0, 0x07, 0x00, 0x00, 0x3F, 
  0xE0, 0x07, 0x00, 0x00, 0x3F, 0xE0, 0x07, 0x00, 0x00, 0x3F, 0xE0, 0x07, 
  0x00, 0x00, 0x3F, 0xE0, 0x03, 0x00, 0x00, 0x3E, 0xE0, 0x03, 0x00, 0x00, 
  0x7E, 0xF0, 0x03, 0x00, 0x00, 0x7E, 0xF0, 0x03, 0x00, 0x00, 0xFE, 0xF0, 
  0x03, 0x00, 0x00, 0xFC, 0xF9, 0x01, 0x00, 0x00, 0xFC, 0xFF, 0x01, 0x00, 
  0x00, 0xF8, 0xFF, 0x01, 0x00, 0x00, 0xF0, 0xFF, 0x00, 0x00, 0x00, 0xE0, 
  0x7F, 0x00, 0x00, 0x00, 0x80, 0x3F, 0x00, 0x00, 0x00, 0x00, 0x0C, 0x00, 
  0x00, 0x00, 0x00, 0x00, 0x00, 0x00, 0x00, 0x00, 0x00, 0x00, 0x00, 0x00, 
  0x00, 0x00, 0x00, 0x00, 0x00, 0x00, 0x00, 0x00, 0x00, 0x00, 0x00, 0x00, 
  0x00, 0x00, 0x00, 0x00, 0x00, 0x00, 0x00, 0x00, 0x00, 0x00, 0x00, 0x00, 
  0x00, 0x00, 0x00, 0x00, 0x00, 0x00, 0x00, 0x00, 0x00, 0x00, 0x00, 0x00, 
  0x00, 0x00, 0x00, 0x00, 0x00, 0x00, 0x00, 0x00, 0x00, 0x00, 0x00, 0x00, 
  0x00, 0x00, 0x00, 0x00, 0x00, 0x00, 0x00, 0x00, 0x00, 0x00, 0x00, 0x00, 
  0x00, 0x00, 0x00, 0x00, 0x00, 0x00, 0x00, 0x00, 0x00, 0x00, 0x00, 0x00, 
  0x00, 0x00, 0x00, 0x00, 0x00, 0x00, 0x00, 0x00, 0x00, 0x00, 0x00, 0x00, 
  };
