#define _080_width 31
#define _080_height 120
static char _080_bits[] = {
  0x00, 0x00, 0x00, 0x00, 0x00, 0x00, 0x00, 0x00, 0x00, 0x00, 0x00, 0x00, 
  0x00, 0x00, 0x00, 0x00, 0x00, 0x00, 0x00, 0x00, 0x00, 0x00, 0x00, 0x00, 
  0x00, 0x00, 0x00, 0x00, 0x00, 0x00, 0x00, 0x00, 0x00, 0x00, 0x00, 0x00, 
  0x00, 0x00, 0x00, 0x00, 0x00, 0x00, 0x00, 0x00, 0x00, 0x00, 0x00, 0x00, 
  0x00, 0x00, 0x00, 0x00, 0x00, 0x00, 0x00, 0x00, 0x00, 0x00, 0x00, 0x00, 
  0x00, 0x00, 0x00, 0x00, 0x00, 0x00, 0x00, 0x00, 0x00, 0x00, 0x00, 0x00, 
  0x00, 0x00, 0x00, 0x00, 0x00, 0x00, 0x00, 0x00, 0x00, 0x00, 0x00, 0x00, 
  0x00, 0x00, 0x00, 0x00, 0x00, 0x00, 0x00, 0x00, 0x00, 0x00, 0x00, 0x00, 
  0x00, 0x00, 0x00, 0x00, 0x00, 0x00, 0x00, 0x00, 0x00, 0x00, 0x00, 0x00, 
  0x80, 0x1F, 0x00, 0x00, 0xE0, 0xFF, 0x00, 0x00, 0xF0, 0xFF, 0x01, 0x00, 
  0xF8, 0xFF, 0x03, 0x00, 0xF8, 0xFF, 0x07, 0x00, 0xF8, 0xFF, 0x0F, 0x00, 
  0xF8, 0xE0, 0x0F, 0x00, 0xF8, 0xC0, 0x1F, 0x00, 0xF8, 0x81, 0x1F, 0x00, 
  0xF8, 0x01, 0x3F, 0x00, 0xF8, 0x01, 0x3F, 0x00, 0xF8, 0x01, 0x7E, 0x00, 
  0xF8, 0x01, 0x7E, 0x00, 0xF8, 0x01, 0x7E, 0x00, 0xF8, 0x01, 0xFC, 0x00, 
  0xF8, 0x01, 0xFC, 0x00, 0xF8, 0x01, 0xFC, 0x00, 0xF0, 0x01, 0xF8, 0x00, 
  0xF0, 0x01, 0xF8, 0x01, 0xF0, 0x01, 0xF8, 0x01, 0xF0, 0x01, 0xF8, 0x01, 
  0xF0, 0x03, 0xF8, 0x01, 0xF0, 0x03, 0xF0, 0x01, 0xF0, 0x03, 0xF0, 0x01, 
  0xF0, 0x03, 0xF0, 0x01, 0xF0, 0x03, 0xF0, 0x01, 0xF0, 0x03, 0xF0, 0x01, 
  0xF0, 0x03, 0xF0, 0x01, 0xF0, 0x03, 0xF0, 0x01, 0xF0, 0x03, 0xF0, 0x01, 
  0xF0, 0x03, 0xF0, 0x01, 0xF0, 0x03, 0xF0, 0x01, 0xE0, 0x03, 0xF8, 0x01, 
  0xE0, 0x03, 0xF8, 0x01, 0xE0, 0x03, 0xFC, 0x00, 0xE0, 0x03, 0xFE, 0x00, 
  0xE0, 0x07, 0x7F, 0x00, 0xE0, 0xC7, 0x7F, 0x00, 0xE0, 0xFF, 0x3F, 0x00, 
  0xE0, 0xFF, 0x1F, 0x00, 0xE0, 0xFF, 0x0F, 0x00, 0xE0, 0xFF, 0x03, 0x00, 
  0xE0, 0xFF, 0x00, 0x00, 0xE0, 0x3F, 0x00, 0x00, 0xE0, 0x07, 0x00, 0x00, 
  0xE0, 0x07, 0x00, 0x00, 0xE0, 0x07, 0x00, 0x00, 0xE0, 0x07, 0x00, 0x00, 
  0xE0, 0x07, 0x00, 0x00, 0xE0, 0x07, 0x00, 0x00, 0xE0, 0x07, 0x00, 0x00, 
  0xE0, 0x07, 0x00, 0x00, 0xE0, 0x07, 0x00, 0x00, 0xE0, 0x07, 0x00, 0x00, 
  0xE0, 0x07, 0x00, 0x00, 0xE0, 0x07, 0x00, 0x00, 0xE0, 0x07, 0x00, 0x00, 
  0xE0, 0x07, 0x00, 0x00, 0xE0, 0x07, 0x00, 0x00, 0xE0, 0x07, 0x00, 0x00, 
  0xE0, 0x07, 0x00, 0x00, 0xE0, 0x07, 0x00, 0x00, 0xE0, 0x07, 0x00, 0x00, 
  0xE0, 0x07, 0x00, 0x00, 0xE0, 0x07, 0x00, 0x00, 0xE0, 0x07, 0x00, 0x00, 
  0xE0, 0x07, 0x00, 0x00, 0xE0, 0x07, 0x00, 0x00, 0xE0, 0x07, 0x00, 0x00, 
  0xE0, 0x07, 0x00, 0x00, 0xE0, 0x07, 0x00, 0x00, 0xE0, 0x03, 0x00, 0x00, 
  0xE0, 0x03, 0x00, 0x00, 0xC0, 0x01, 0x00, 0x00, 0x00, 0x00, 0x00, 0x00, 
  0x00, 0x00, 0x00, 0x00, 0x00, 0x00, 0x00, 0x00, 0x00, 0x00, 0x00, 0x00, 
  0x00, 0x00, 0x00, 0x00, 0x00, 0x00, 0x00, 0x00, 0x00, 0x00, 0x00, 0x00, 
  0x00, 0x00, 0x00, 0x00, 0x00, 0x00, 0x00, 0x00, 0x00, 0x00, 0x00, 0x00, 
  0x00, 0x00, 0x00, 0x00, 0x00, 0x00, 0x00, 0x00, 0x00, 0x00, 0x00, 0x00, 
  0x00, 0x00, 0x00, 0x00, 0x00, 0x00, 0x00, 0x00, 0x00, 0x00, 0x00, 0x00, 
  0x00, 0x00, 0x00, 0x00, 0x00, 0x00, 0x00, 0x00, 0x00, 0x00, 0x00, 0x00, 
  };
