#define _052_width 54
#define _052_height 100
static char _052_bits[] = {
  0x00, 0x00, 0x00, 0x00, 0x00, 0x00, 0x00, 0x00, 0x00, 0x00, 0x00, 0x00, 
  0x00, 0x00, 0x00, 0x00, 0x00, 0x00, 0x00, 0x00, 0x00, 0x00, 0x00, 0x00, 
  0x00, 0x00, 0x00, 0x00, 0x00, 0x00, 0x00, 0x00, 0x00, 0x00, 0x00, 0x00, 
  0x00, 0x00, 0x00, 0x00, 0x00, 0x00, 0x00, 0x00, 0x00, 0x00, 0x00, 0x00, 
  0x00, 0x00, 0x00, 0x00, 0x00, 0x00, 0x00, 0x00, 0x00, 0x00, 0x00, 0x00, 
  0x00, 0x00, 0x00, 0x00, 0x00, 0x00, 0x00, 0x00, 0x00, 0x00, 0x00, 0x00, 
  0x00, 0x00, 0x00, 0x00, 0x00, 0x00, 0x00, 0x00, 0x00, 0x00, 0x00, 0x00, 
  0x00, 0x00, 0x00, 0x00, 0x00, 0x00, 0x00, 0x00, 0x00, 0x00, 0x00, 0x00, 
  0x00, 0x00, 0x00, 0x00, 0x00, 0x00, 0x00, 0x00, 0x00, 0x00, 0x00, 0x00, 
  0x00, 0x00, 0x00, 0x00, 0x00, 0x00, 0x00, 0x00, 0x00, 0x00, 0x00, 0x00, 
  0x00, 0x00, 0x00, 0x00, 0x00, 0x00, 0x00, 0x00, 0x00, 0x00, 0x00, 0x00, 
  0x00, 0x00, 0x00, 0x00, 0x00, 0x00, 0x00, 0x00, 0x00, 0x00, 0x00, 0x00, 
  0x00, 0x00, 0x00, 0x00, 0x00, 0x00, 0x00, 0x00, 0x00, 0x00, 0x00, 0x00, 
  0x00, 0x00, 0x00, 0x00, 0x00, 0x00, 0x00, 0x00, 0x00, 0x00, 0x00, 0x00, 
  0x00, 0x00, 0x00, 0x00, 0x00, 0x00, 0x00, 0x00, 0x00, 0x00, 0x00, 0x00, 
  0x00, 0x00, 0x00, 0x00, 0x00, 0x00, 0x00, 0x00, 0x00, 0x00, 0x00, 0x00, 
  0x00, 0x00, 0x00, 0x00, 0x80, 0x07, 0x00, 0x00, 0x00, 0x00, 0x00, 0xC0, 
  0x1F, 0x00, 0x00, 0x00, 0x00, 0x00, 0xC0, 0x3F, 0x00, 0x00, 0x00, 0x00, 
  0x00, 0xE0, 0x7C, 0x00, 0x00, 0x00, 0x00, 0x00, 0x60, 0x78, 0x00, 0x00, 
  0x00, 0x00, 0x00, 0x60, 0xF8, 0x00, 0x00, 0x00, 0x00, 0x00, 0xE0, 0xF8, 
  0x00, 0x00, 0x00, 0x00, 0x00, 0xE0, 0xFD, 0x00, 0x00, 0x00, 0x00, 0x00, 
  0xE0, 0xFF, 0x00, 0x00, 0x00, 0x00, 0x00, 0xC0, 0xFF, 0x01, 0x00, 0x00, 
  0x00, 0x00, 0x00, 0xFF, 0x01, 0x00, 0x00, 0x00, 0x00, 0x00, 0xC0, 0x01, 
  0xF8, 0xFF, 0x00, 0x00, 0x00, 0xC0, 0x01, 0xFC, 0xFF, 0x03, 0x00, 0x00, 
  0xC0, 0x01, 0xFC, 0xFF, 0x01, 0x00, 0x00, 0xC0, 0x01, 0x78, 0xF8, 0x01, 
  0x00, 0x00, 0xC0, 0x00, 0x70, 0xF0, 0x00, 0x00, 0x00, 0xC0, 0x00, 0x70, 
  0xF0, 0x00, 0x00, 0x00, 0xC0, 0x00, 0x30, 0xF0, 0x00, 0x00, 0x00, 0xE0, 
  0x00, 0x30, 0xF0, 0x00, 0x00, 0x00, 0x60, 0x00, 0x30, 0xF0, 0x00, 0x00, 
  0x00, 0x60, 0x00, 0x30, 0x70, 0x00, 0x00, 0x00, 0x70, 0x00, 0x30, 0x70, 
  0x00, 0x00, 0x00, 0x70, 0x00, 0x30, 0x70, 0x00, 0x00, 0x00, 0x30, 0x00, 
  0x30, 0x70, 0x00, 0x00, 0x00, 0x38, 0x00, 0x30, 0x70, 0x00, 0x00, 0x00, 
  0x38, 0x00, 0x38, 0x70, 0x00, 0x00, 0x00, 0x38, 0x00, 0x38, 0x70, 0x00, 
  0x00, 0x00, 0x1C, 0x00, 0x38, 0x78, 0x00, 0x00, 0x00, 0x1C, 0x00, 0x38, 
  0x78, 0x00, 0x00, 0x00, 0x1C, 0x00, 0x38, 0x78, 0x00, 0x00, 0x00, 0x0E, 
  0x00, 0x38, 0x78, 0x00, 0x00, 0x00, 0x0E, 0x00, 0x18, 0x78, 0x00, 0x00, 
  0x00, 0x07, 0x00, 0x18, 0x78, 0x00, 0x00, 0x00, 0x07, 0x00, 0x18, 0x78, 
  0x00, 0x00, 0x80, 0x07, 0x00, 0x1C, 0x78, 0x00, 0x00, 0x80, 0x03, 0x00, 
  0x3E, 0x7C, 0x00, 0x00, 0xC0, 0xFF, 0xFF, 0x3F, 0x7E, 0x00, 0x00, 0xC0, 
  0xFF, 0xFF, 0x3F, 0x7F, 0x00, 0x00, 0x80, 0xFF, 0xFF, 0xFF, 0x7F, 0x00, 
  0x00, 0x00, 0x00, 0xE0, 0xFF, 0x7F, 0x00, 0x00, 0x00, 0x00, 0x00, 0xFE, 
  0x7F, 0x00, 0x00, 0x00, 0x00, 0x00, 0xFC, 0x7F, 0x00, 0x00, 0x00, 0x00, 
  0x00, 0xFC, 0x7F, 0x00, 0x00, 0x00, 0x00, 0x00, 0xFC, 0x7F, 0x00, 0x00, 
  0x00, 0x00, 0x00, 0xFC, 0x7F, 0x00, 0x00, 0x00, 0x00, 0x00, 0xFC, 0x7F, 
  0x00, 0x00, 0x00, 0x00, 0x00, 0xFC, 0x7F, 0x00, 0x00, 0x00, 0x00, 0x00, 
  0xFC, 0x7F, 0x00, 0x00, 0x00, 0x00, 0x00, 0xFC, 0x7F, 0x00, 0x00, 0x00, 
  0x00, 0x00, 0xFC, 0x7F, 0x00, 0x00, 0x00, 0x00, 0x00, 0xFC, 0x7F, 0x00, 
  0x00, 0x00, 0x00, 0x00, 0xFC, 0x7F, 0x00, 0x00, 0x00, 0x00, 0x00, 0xFC, 
  0x7F, 0x00, 0x00, 0x00, 0x00, 0x00, 0xFC, 0x7F, 0x00, 0x00, 0x00, 0x00, 
  0x00, 0xFC, 0x7F, 0x00, 0x00, 0x00, 0x00, 0x00, 0xFC, 0x7F, 0x00, 0x00, 
  0x00, 0x00, 0x00, 0xFC, 0x7F, 0x00, 0x00, 0x00, 0x00, 0x00, 0xFC, 0x7F, 
  0x00, 0x00, 0x00, 0x00, 0x00, 0xFC, 0x7F, 0x00, 0x00, 0x00, 0x00, 0x00, 
  0xFC, 0x7F, 0x00, 0x00, 0x00, 0x00, 0x00, 0xFC, 0x7F, 0x00, 0x00, 0x00, 
  0x00, 0x00, 0xFC, 0x7F, 0x00, 0x00, 0x00, 0x00, 0x00, 0xFE, 0x7F, 0x00, 
  0x00, 0x00, 0x00, 0x00, 0xFF, 0xFF, 0x00, 0x00, 0x00, 0x00, 0x80, 0xFF, 
  0xFF, 0x01, 0x00, 0x00, 0x00, 0x80, 0xFF, 0xFF, 0x07, 0x00, 0x00, 0x00, 
  0x00, 0xFE, 0xFF, 0x07, 0x00, 0x00, 0x00, 0x00, 0x00, 0x7C, 0x00, 0x00, 
  0x00, 0x00, 0x00, 0x00, 0x00, 0x00, 0x00, 0x00, 0x00, 0x00, 0x00, 0x00, 
  0x00, 0x00, 0x00, 0x00, 0x00, 0x00, 0x00, 0x00, 0x00, 0x00, 0x00, 0x00, 
  0x00, 0x00, 0x00, 0x00, };
