#define _055_width 53
#define _055_height 100
static char _055_bits[] = {
  0x00, 0x00, 0x00, 0x00, 0x00, 0x00, 0x00, 0x00, 0x00, 0x00, 0x00, 0x00, 
  0x00, 0x00, 0x00, 0x00, 0x00, 0x00, 0x00, 0x00, 0x00, 0x00, 0x00, 0x00, 
  0x00, 0x00, 0x00, 0x00, 0x00, 0x00, 0x00, 0x00, 0x00, 0x00, 0x00, 0x00, 
  0x00, 0x00, 0x00, 0x00, 0x00, 0x00, 0x00, 0x00, 0x00, 0x00, 0x00, 0x00, 
  0x00, 0x00, 0x00, 0x00, 0x00, 0x00, 0x00, 0x00, 0x00, 0x00, 0x00, 0x00, 
  0x00, 0x00, 0x00, 0x00, 0x00, 0x00, 0x00, 0x00, 0x00, 0x00, 0x00, 0x00, 
  0x00, 0x00, 0x00, 0x00, 0x00, 0x00, 0x00, 0x00, 0x00, 0x00, 0x00, 0x00, 
  0x00, 0x00, 0x00, 0x00, 0x00, 0x00, 0x00, 0x00, 0x00, 0x00, 0x00, 0x00, 
  0x00, 0x00, 0x00, 0x00, 0x00, 0x00, 0x00, 0x00, 0x00, 0x00, 0x00, 0x00, 
  0x00, 0x00, 0x00, 0x00, 0x00, 0x00, 0x00, 0x00, 0x00, 0x00, 0x00, 0x00, 
  0x00, 0x00, 0x00, 0x00, 0x00, 0x00, 0x00, 0x00, 0x00, 0x00, 0x00, 0x00, 
  0x00, 0x00, 0x00, 0x00, 0x00, 0x00, 0x00, 0x00, 0x00, 0x00, 0x00, 0x00, 
  0x00, 0x00, 0x00, 0x00, 0x00, 0x00, 0x00, 0x00, 0x00, 0x00, 0x00, 0x00, 
  0x00, 0x00, 0x00, 0x00, 0x00, 0x00, 0x00, 0x00, 0x00, 0x00, 0x00, 0x00, 
  0x00, 0x00, 0x00, 0x00, 0x00, 0x00, 0x00, 0x00, 0x00, 0x00, 0x00, 0x00, 
  0x00, 0x00, 0x00, 0x00, 0x00, 0x00, 0x00, 0x00, 0x00, 0x00, 0x00, 0x00, 
  0x00, 0x00, 0x00, 0x00, 0x00, 0x00, 0x00, 0x00, 0x00, 0x00, 0x00, 0x00, 
  0x00, 0x00, 0x00, 0x00, 0x00, 0x00, 0x00, 0x00, 0x00, 0x00, 0x00, 0x00, 
  0x00, 0x00, 0x00, 0x00, 0x00, 0x00, 0x00, 0x00, 0x00, 0xFF, 0xFF, 0xFF, 
  0x0F, 0x00, 0x00, 0xC0, 0xFF, 0xFF, 0xFF, 0xFF, 0x07, 0x00, 0xC0, 0xFF, 
  0xFF, 0xFF, 0xFF, 0x07, 0x00, 0xC0, 0x07, 0x80, 0xFF, 0xFF, 0x03, 0x00, 
  0xC0, 0x03, 0x00, 0x7E, 0xC0, 0x03, 0x00, 0xC0, 0x01, 0x00, 0x3C, 0x80, 
  0x03, 0x00, 0xC0, 0x01, 0x00, 0x3C, 0xC0, 0x01, 0x00, 0xC0, 0x01, 0x00, 
  0x1C, 0xC0, 0x01, 0x00, 0xC0, 0x01, 0x00, 0x1C, 0xC0, 0x01, 0x00, 0xC0, 
  0x01, 0x00, 0x1C, 0xE0, 0x00, 0x00, 0xC0, 0x01, 0x00, 0x1E, 0xE0, 0x00, 
  0x00, 0xC0, 0x01, 0x00, 0x1E, 0x60, 0x00, 0x00, 0xC0, 0x01, 0x00, 0x0E, 
  0x70, 0x00, 0x00, 0xC0, 0x01, 0x00, 0x0E, 0x70, 0x00, 0x00, 0xC0, 0x00, 
  0x00, 0x0F, 0x30, 0x00, 0x00, 0xC0, 0x00, 0x00, 0x07, 0x38, 0x00, 0x00, 
  0x00, 0x00, 0x00, 0x07, 0x38, 0x00, 0x00, 0x00, 0x00, 0x00, 0x07, 0x38, 
  0x00, 0x00, 0x00, 0x00, 0x80, 0x03, 0x1C, 0x00, 0x00, 0x00, 0x00, 0x80, 
  0x03, 0x1C, 0x00, 0x00, 0x00, 0x00, 0x80, 0x03, 0x1C, 0x00, 0x00, 0x00, 
  0x00, 0xC0, 0x03, 0x0C, 0x00, 0x00, 0x00, 0x00, 0xC0, 0x01, 0x0E, 0x00, 
  0x00, 0x00, 0x00, 0xC0, 0x01, 0x0E, 0x00, 0x00, 0x00, 0x00, 0xE0, 0x01, 
  0x0E, 0x00, 0x00, 0x00, 0x00, 0xE0, 0x01, 0x0F, 0x00, 0x00, 0x00, 0xC0, 
  0xFF, 0x00, 0x07, 0x00, 0x00, 0x00, 0xF0, 0xFF, 0x81, 0x0F, 0x00, 0x00, 
  0x00, 0xF0, 0xFF, 0xC1, 0x3F, 0x00, 0x00, 0x00, 0x38, 0xF8, 0xE7, 0x7F, 
  0x00, 0x00, 0x00, 0x00, 0xF8, 0xFF, 0xFF, 0x00, 0x00, 0x00, 0x00, 0xF8, 
  0xFF, 0xE7, 0x00, 0x00, 0x00, 0x00, 0xF8, 0xFF, 0x03, 0x00, 0x00, 0x00, 
  0x00, 0xFC, 0xFF, 0x03, 0x00, 0x00, 0x00, 0x00, 0xFC, 0xFF, 0x01, 0x00, 
  0x00, 0x00, 0x00, 0xFC, 0xFF, 0x01, 0x00, 0x00, 0x00, 0x00, 0xFC, 0xFF, 
  0x01, 0x00, 0x00, 0x00, 0x00, 0xFE, 0xFF, 0x01, 0x00, 0x00, 0x00, 0x00, 
  0xFE, 0xFF, 0x00, 0x00, 0x00, 0x00, 0x00, 0xFE, 0xFF, 0x00, 0x00, 0x00, 
  0x00, 0x00, 0xFF, 0xFF, 0x00, 0x00, 0x00, 0x00, 0x00, 0xFF, 0xFF, 0x00, 
  0x00, 0x00, 0x00, 0x00, 0xFF, 0x7F, 0x00, 0x00, 0x00, 0x00, 0x00, 0xFF, 
  0x7F, 0x00, 0x00, 0x00, 0x00, 0x80, 0xFF, 0x7F, 0x00, 0x00, 0x00, 0x00, 
  0x80, 0xFF, 0x7F, 0x00, 0x00, 0x00, 0x00, 0x80, 0xFF, 0x3F, 0x00, 0x00, 
  0x00, 0x00, 0xC0, 0xFF, 0x3F, 0x00, 0x00, 0x00, 0x00, 0xC0, 0xFF, 0x3F, 
  0x00, 0x00, 0x00, 0x00, 0xC0, 0xFF, 0x3F, 0x00, 0x00, 0x00, 0x00, 0xE0, 
  0xFF, 0x3F, 0x00, 0x00, 0x00, 0x00, 0xE0, 0xFF, 0x1F, 0x00, 0x00, 0x00, 
  0x00, 0xE0, 0xFF, 0x1F, 0x00, 0x00, 0x00, 0x00, 0xF0, 0xFF, 0x1F, 0x00, 
  0x00, 0x00, 0x00, 0xF8, 0xFF, 0x1F, 0x00, 0x00, 0x00, 0x00, 0xF8, 0xFF, 
  0x1F, 0x00, 0x00, 0x00, 0x00, 0xFE, 0xFF, 0x3F, 0x00, 0x00, 0x00, 0x00, 
  0xFF, 0xFF, 0x3F, 0x00, 0x00, 0x00, 0x00, 0xFE, 0xFF, 0x7F, 0x00, 0x00, 
  0x00, 0x00, 0xE0, 0xFF, 0x3F, 0x00, 0x00, 0x00, 0x00, 0x00, 0x00, 0x00, 
  0x00, 0x00, 0x00, 0x00, 0x00, 0x00, 0x00, 0x00, 0x00, 0x00, 0x00, 0x00, 
  0x00, 0x00, 0x00, 0x00, 0x00, 0x00, 0x00, 0x00, 0x00, 0x00, 0x00, 0x00, 
  0x00, 0x00, 0x00, 0x00, 0x00, 0x00, 0x00, 0x00, 0x00, 0x00, 0x00, 0x00, 
  0x00, 0x00, 0x00, 0x00, 0x00, 0x00, 0x00, 0x00, 0x00, 0x00, 0x00, 0x00, 
  0x00, 0x00, 0x00, 0x00, };
