#define _104_width 54
#define _104_height 100
static char _104_bits[] = {
  0x00, 0x00, 0x00, 0x00, 0x00, 0x00, 0x00, 0x00, 0x00, 0x00, 0x00, 0x00, 
  0x00, 0x00, 0x00, 0x00, 0x00, 0x00, 0x00, 0x00, 0x00, 0x00, 0x00, 0x00, 
  0x00, 0x00, 0x00, 0x00, 0x00, 0x00, 0x00, 0x00, 0x00, 0x00, 0x00, 0x00, 
  0x00, 0x00, 0x00, 0x00, 0x00, 0x00, 0x00, 0x00, 0x00, 0x00, 0x00, 0x00, 
  0x00, 0x00, 0x00, 0x00, 0x00, 0x00, 0x00, 0x00, 0x00, 0x00, 0x00, 0x00, 
  0x00, 0x00, 0x00, 0x00, 0x00, 0x00, 0x00, 0x00, 0x00, 0x00, 0x00, 0x00, 
  0x00, 0x00, 0x00, 0x00, 0x00, 0x00, 0x00, 0x00, 0x00, 0x00, 0x00, 0x00, 
  0x00, 0x00, 0x00, 0x00, 0x00, 0x00, 0x00, 0x00, 0x00, 0x00, 0x00, 0x00, 
  0x00, 0x00, 0x00, 0x00, 0x00, 0x00, 0x00, 0x00, 0x00, 0x00, 0x00, 0x00, 
  0x00, 0x00, 0x00, 0x00, 0x00, 0x00, 0x00, 0x00, 0x00, 0x00, 0x00, 0x00, 
  0x00, 0x00, 0x00, 0x00, 0x00, 0x00, 0x00, 0x00, 0x00, 0x00, 0x00, 0x00, 
  0x00, 0x00, 0x00, 0x00, 0x00, 0x00, 0x00, 0x00, 0x00, 0x00, 0x00, 0x00, 
  0x00, 0x00, 0x00, 0x00, 0x00, 0x00, 0x00, 0x00, 0x00, 0x00, 0x00, 0x00, 
  0x00, 0x00, 0x00, 0x00, 0x00, 0x00, 0x00, 0x00, 0x00, 0x00, 0x00, 0x00, 
  0x00, 0x00, 0x00, 0x00, 0x00, 0x00, 0x00, 0x00, 0x00, 0x00, 0x00, 0x00, 
  0x00, 0x00, 0x00, 0x00, 0x00, 0x00, 0x00, 0x00, 0x00, 0x80, 0x1F, 0x00, 
  0x00, 0x00, 0x00, 0x00, 0xC0, 0x7F, 0x00, 0x00, 0x00, 0x00, 0x00, 0xE0, 
  0xFF, 0x00, 0x00, 0x00, 0x00, 0x00, 0xE0, 0xF9, 0x00, 0x00, 0x00, 0x00, 
  0x00, 0xE0, 0xF1, 0x01, 0x00, 0x00, 0x00, 0x00, 0xE0, 0xE1, 0x01, 0x00, 
  0x00, 0x00, 0x00, 0xE0, 0xC1, 0x01, 0x00, 0x00, 0x00, 0x00, 0xE0, 0xC1, 
  0x03, 0x00, 0x00, 0x00, 0x00, 0xE0, 0xC1, 0x03, 0x00, 0x00, 0x00, 0x00, 
  0xE0, 0xC1, 0x03, 0x00, 0x00, 0x00, 0x00, 0xE0, 0x81, 0x03, 0x00, 0x00, 
  0x00, 0x00, 0xE0, 0x81, 0x03, 0x00, 0x00, 0x00, 0x00, 0xE0, 0x81, 0x03, 
  0x00, 0x00, 0x00, 0x00, 0xE0, 0x81, 0x03, 0x00, 0x00, 0x00, 0x00, 0xE0, 
  0x81, 0x03, 0x00, 0x00, 0x00, 0x00, 0xE0, 0x81, 0x03, 0x00, 0x00, 0x00, 
  0x00, 0xE0, 0x81, 0x03, 0x00, 0x00, 0x00, 0x00, 0xE0, 0x81, 0x03, 0x00, 
  0x00, 0x00, 0x00, 0xE0, 0x81, 0x03, 0xF0, 0x07, 0x00, 0x00, 0xE0, 0x81, 
  0x03, 0xFC, 0x0F, 0x00, 0x00, 0xE0, 0x81, 0x03, 0xFE, 0x1F, 0x00, 0x00, 
  0xE0, 0x81, 0x83, 0x9F, 0x3F, 0x00, 0x00, 0xE0, 0x81, 0xC3, 0x07, 0x3E, 
  0x00, 0x00, 0xE0, 0x81, 0xE3, 0x01, 0x3C, 0x00, 0x00, 0xE0, 0x81, 0xF3, 
  0x00, 0x78, 0x00, 0x00, 0xE0, 0x81, 0x7F, 0x00, 0x78, 0x00, 0x00, 0xE0, 
  0x81, 0x3F, 0x00, 0x78, 0x00, 0x00, 0xE0, 0x81, 0x1F, 0x00, 0x70, 0x00, 
  0x00, 0xE0, 0x81, 0x1F, 0x00, 0x70, 0x00, 0x00, 0xE0, 0x81, 0x0F, 0x00, 
  0x70, 0x00, 0x00, 0xE0, 0x81, 0x0F, 0x00, 0xF0, 0x00, 0x00, 0xE0, 0xC3, 
  0x07, 0x00, 0xF0, 0x00, 0x00, 0xE0, 0xC3, 0x07, 0x00, 0xF0, 0x00, 0x00, 
  0xE0, 0xF7, 0x07, 0x00, 0xF0, 0x00, 0x00, 0xE0, 0xFF, 0x07, 0x00, 0xF0, 
  0x00, 0x00, 0xE0, 0xFF, 0x03, 0x00, 0xF0, 0x00, 0x00, 0xE0, 0xFF, 0x03, 
  0x00, 0xF0, 0x00, 0x00, 0xE0, 0xFF, 0x03, 0x00, 0xF0, 0x00, 0x00, 0xE0, 
  0xFF, 0x03, 0x00, 0xF0, 0x00, 0x00, 0xE0, 0xFF, 0x03, 0x00, 0xF0, 0x00, 
  0x00, 0xE0, 0xFF, 0x03, 0x00, 0xF0, 0x00, 0x00, 0xE0, 0xFF, 0x03, 0x00, 
  0xF0, 0x00, 0x00, 0xE0, 0xFF, 0x03, 0x00, 0xF0, 0x00, 0x00, 0xE0, 0xFF, 
  0x03, 0x00, 0xF0, 0x00, 0x00, 0xE0, 0xFF, 0x03, 0x00, 0xF0, 0x00, 0x00, 
  0xE0, 0xFF, 0x03, 0x00, 0xF0, 0x00, 0x00, 0xE0, 0xFF, 0x03, 0x00, 0xF0, 
  0x00, 0x00, 0xE0, 0xFF, 0x03, 0x00, 0xF0, 0x00, 0x00, 0xE0, 0xFF, 0x03, 
  0x00, 0xF0, 0x00, 0x00, 0xE0, 0xFF, 0x03, 0x00, 0xF0, 0x00, 0x00, 0xE0, 
  0xFF, 0x03, 0x00, 0xF0, 0x00, 0x00, 0xE0, 0xFF, 0x03, 0x00, 0xF0, 0x00, 
  0x00, 0xE0, 0xFF, 0x03, 0x00, 0xF0, 0x00, 0x00, 0xE0, 0xFF, 0x03, 0x00, 
  0xF0, 0x00, 0x00, 0xE0, 0xFF, 0x03, 0x00, 0xF0, 0x00, 0x00, 0xE0, 0xFF, 
  0x03, 0x00, 0xF0, 0x00, 0x00, 0xE0, 0xFF, 0x03, 0x00, 0xF0, 0x00, 0x00, 
  0xE0, 0xFF, 0x03, 0x00, 0xF0, 0x00, 0x00, 0xE0, 0xFF, 0x03, 0x00, 0xF0, 
  0x00, 0x00, 0xC0, 0xFF, 0x01, 0x00, 0xF0, 0x01, 0x00, 0xC0, 0xFF, 0x01, 
  0x00, 0xFF, 0x03, 0x00, 0xC0, 0xFF, 0x01, 0x00, 0xFF, 0x07, 0x00, 0x00, 
  0x7F, 0x00, 0x00, 0x00, 0x00, 0x00, 0x00, 0x00, 0x00, 0x00, 0x00, 0x00, 
  0x00, 0x00, 0x00, 0x00, 0x00, 0x00, 0x00, 0x00, 0x00, 0x00, 0x00, 0x00, 
  0x00, 0x00, 0x00, 0x00, 0x00, 0x00, 0x00, 0x00, 0x00, 0x00, 0x00, 0x00, 
  0x00, 0x00, 0x00, 0x00, 0x00, 0x00, 0x00, 0x00, 0x00, 0x00, 0x00, 0x00, 
  0x00, 0x00, 0x00, 0x00, 0x00, 0x00, 0x00, 0x00, 0x00, 0x00, 0x00, 0x00, 
  0x00, 0x00, 0x00, 0x00, 0x00, 0x00, 0x00, 0x00, 0x00, 0x00, 0x00, 0x00, 
  0x00, 0x00, 0x00, 0x00, };
