#define _109_width 85
#define _109_height 100
static char _109_bits[] = {
  0x00, 0x00, 0x00, 0x00, 0x00, 0x00, 0x00, 0x00, 0x00, 0x00, 0x00, 0x00, 
  0x00, 0x00, 0x00, 0x00, 0x00, 0x00, 0x00, 0x00, 0x00, 0x00, 0x00, 0x00, 
  0x00, 0x00, 0x00, 0x00, 0x00, 0x00, 0x00, 0x00, 0x00, 0x00, 0x00, 0x00, 
  0x00, 0x00, 0x00, 0x00, 0x00, 0x00, 0x00, 0x00, 0x00, 0x00, 0x00, 0x00, 
  0x00, 0x00, 0x00, 0x00, 0x00, 0x00, 0x00, 0x00, 0x00, 0x00, 0x00, 0x00, 
  0x00, 0x00, 0x00, 0x00, 0x00, 0x00, 0x00, 0x00, 0x00, 0x00, 0x00, 0x00, 
  0x00, 0x00, 0x00, 0x00, 0x00, 0x00, 0x00, 0x00, 0x00, 0x00, 0x00, 0x00, 
  0x00, 0x00, 0x00, 0x00, 0x00, 0x00, 0x00, 0x00, 0x00, 0x00, 0x00, 0x00, 
  0x00, 0x00, 0x00, 0x00, 0x00, 0x00, 0x00, 0x00, 0x00, 0x00, 0x00, 0x00, 
  0x00, 0x00, 0x00, 0x00, 0x00, 0x00, 0x00, 0x00, 0x00, 0x00, 0x00, 0x00, 
  0x00, 0x00, 0x00, 0x00, 0x00, 0x00, 0x00, 0x00, 0x00, 0x00, 0x00, 0x00, 
  0x00, 0x00, 0x00, 0x00, 0x00, 0x00, 0x00, 0x00, 0x00, 0x00, 0x00, 0x00, 
  0x00, 0x00, 0x00, 0x00, 0x00, 0x00, 0x00, 0x00, 0x00, 0x00, 0x00, 0x00, 
  0x00, 0x00, 0x00, 0x00, 0x00, 0x00, 0x00, 0x00, 0x00, 0x00, 0x00, 0x00, 
  0x00, 0x00, 0x00, 0x00, 0x00, 0x00, 0x00, 0x00, 0x00, 0x00, 0x00, 0x00, 
  0x00, 0x00, 0x00, 0x00, 0x00, 0x00, 0x00, 0x00, 0x00, 0x00, 0x00, 0x00, 
  0x00, 0x00, 0x00, 0x00, 0x00, 0x00, 0x00, 0x00, 0x00, 0x00, 0x00, 0x00, 
  0x00, 0x00, 0x00, 0x00, 0x00, 0x00, 0x00, 0x00, 0x00, 0x00, 0x00, 0x00, 
  0x00, 0x00, 0x00, 0x00, 0x00, 0x00, 0x00, 0x00, 0x00, 0x00, 0x00, 0x00, 
  0x00, 0x00, 0x00, 0x00, 0x00, 0x00, 0x00, 0x00, 0x00, 0x00, 0x00, 0x00, 
  0x00, 0x00, 0x00, 0x00, 0x00, 0x00, 0x00, 0x00, 0x00, 0x00, 0x00, 0x00, 
  0x00, 0x00, 0x00, 0x00, 0x00, 0x00, 0x00, 0x00, 0x00, 0x00, 0x00, 0x00, 
  0x00, 0x00, 0x00, 0x00, 0x00, 0x00, 0x00, 0x00, 0x00, 0x00, 0x00, 0x00, 
  0x00, 0x00, 0x00, 0x00, 0x00, 0x00, 0x00, 0x00, 0x00, 0x00, 0x00, 0x00, 
  0x00, 0x00, 0x00, 0x00, 0x00, 0x00, 0x00, 0x00, 0x00, 0x00, 0x00, 0x00, 
  0x00, 0x00, 0x00, 0x00, 0x00, 0x00, 0x00, 0x00, 0x00, 0x00, 0x00, 0x00, 
  0x00, 0x00, 0x00, 0x00, 0x00, 0x00, 0x00, 0x00, 0x00, 0x00, 0x00, 0x00, 
  0x00, 0x00, 0x00, 0x00, 0x00, 0x00, 0x00, 0x00, 0x00, 0x00, 0x00, 0x00, 
  0x00, 0x00, 0x00, 0x00, 0x00, 0x00, 0x00, 0x00, 0x00, 0x00, 0x00, 0x00, 
  0x00, 0x00, 0x00, 0x00, 0x00, 0x00, 0x00, 0x00, 0x00, 0x00, 0x00, 0x00, 
  0x00, 0x00, 0x00, 0x00, 0x00, 0x00, 0x00, 0x00, 0x00, 0x00, 0x00, 0x00, 
  0x00, 0x00, 0x00, 0x00, 0x00, 0x00, 0x00, 0x00, 0x00, 0x00, 0x00, 0x00, 
  0x00, 0x00, 0x00, 0x00, 0x00, 0x00, 0x00, 0x00, 0x00, 0x00, 0x00, 0x00, 
  0x00, 0x00, 0x00, 0x00, 0x00, 0x00, 0x00, 0x00, 0x00, 0x00, 0x00, 0x00, 
  0x00, 0x00, 0x00, 0x00, 0x00, 0x00, 0x00, 0x00, 0x00, 0x00, 0x00, 0x00, 
  0x00, 0x00, 0x00, 0x00, 0x00, 0x00, 0x00, 0x00, 0x00, 0x00, 0x00, 0x00, 
  0x00, 0x00, 0x00, 0x00, 0x00, 0x00, 0x00, 0x00, 0xC0, 0xFF, 0x00, 0x00, 
  0x00, 0x00, 0x00, 0x00, 0x00, 0x00, 0x00, 0xC0, 0xFF, 0x01, 0x00, 0x00, 
  0x00, 0x00, 0x00, 0x00, 0x00, 0x00, 0xC0, 0xFF, 0x03, 0xFE, 0x01, 0x00, 
  0xE0, 0x0F, 0x00, 0x00, 0x00, 0xC0, 0xE1, 0x03, 0xFF, 0x0F, 0x00, 0xF8, 
  0x7F, 0x00, 0x00, 0x00, 0xE0, 0xC1, 0x83, 0xFF, 0x7F, 0x00, 0xFC, 0xFF, 
  0x03, 0x00, 0x00, 0xE0, 0xC1, 0xC3, 0xFF, 0xFF, 0x01, 0x3E, 0xFF, 0x0F, 
  0x00, 0x00, 0xE0, 0x80, 0xE3, 0xC3, 0xFF, 0x03, 0x0F, 0x7E, 0x1F, 0x00, 
  0x00, 0xE0, 0x80, 0xE3, 0x81, 0x8F, 0x87, 0x0F, 0x3C, 0x3C, 0x00, 0x00, 
  0xE0, 0x80, 0xF3, 0x80, 0x0F, 0x87, 0x07, 0x78, 0x78, 0x00, 0x00, 0xE0, 
  0x80, 0xFF, 0x00, 0x0F, 0xCE, 0x03, 0x78, 0x70, 0x00, 0x00, 0xE0, 0x80, 
  0x7F, 0x00, 0x0F, 0xFE, 0x03, 0x78, 0xF0, 0x00, 0x00, 0xE0, 0x80, 0x7F, 
  0x00, 0x0F, 0xFC, 0x01, 0x78, 0xE0, 0x00, 0x00, 0xE0, 0x80, 0x3F, 0x00, 
  0x0E, 0xFC, 0x01, 0x70, 0xE0, 0x00, 0x00, 0xE0, 0x80, 0x1F, 0x00, 0x0E, 
  0xFC, 0x00, 0x70, 0xE0, 0x01, 0x00, 0xE0, 0x81, 0x1F, 0x00, 0x0E, 0xFC, 
  0x00, 0x70, 0xE0, 0x01, 0x00, 0xE0, 0x81, 0x0F, 0x00, 0x0E, 0x78, 0x00, 
  0x70, 0xC0, 0x01, 0x00, 0xE0, 0x81, 0x0F, 0x00, 0x0E, 0x78, 0x00, 0x70, 
  0xC0, 0x01, 0x00, 0xE0, 0x81, 0x07, 0x00, 0x0E, 0x78, 0x00, 0xF0, 0xC0, 
  0x01, 0x00, 0xE0, 0xC1, 0x07, 0x00, 0x0E, 0x78, 0x00, 0xF0, 0xC0, 0x01, 
  0x00, 0xE0, 0xC3, 0x07, 0x00, 0x1E, 0x38, 0x00, 0xF0, 0xC0, 0x01, 0x00, 
  0xE0, 0xE7, 0x07, 0x00, 0x1E, 0x38, 0x00, 0xF0, 0xC0, 0x03, 0x00, 0xE0, 
  0xFF, 0x03, 0x00, 0x1E, 0x38, 0x00, 0xF0, 0xC0, 0x03, 0x00, 0xE0, 0xFF, 
  0x03, 0x00, 0x1E, 0x38, 0x00, 0xF0, 0xC0, 0x03, 0x00, 0xE0, 0xFF, 0x03, 
  0x00, 0x1E, 0x78, 0x00, 0xF0, 0xC1, 0x03, 0x00, 0xE0, 0xFF, 0x03, 0x00, 
  0x3E, 0x78, 0x00, 0xF0, 0xC1, 0x03, 0x00, 0xE0, 0xFF, 0x03, 0x00, 0x7E, 
  0x7C, 0x00, 0xF0, 0xE3, 0x03, 0x00, 0xE0, 0xFF, 0x03, 0x00, 0xFE, 0x7F, 
  0x00, 0xF0, 0xFF, 0x03, 0x00, 0xE0, 0xFF, 0x03, 0x00, 0xFE, 0x7F, 0x00, 
  0xF0, 0xFF, 0x03, 0x00, 0xE0, 0xFF, 0x03, 0x00, 0xFC, 0x7F, 0x00, 0xE0, 
  0xFF, 0x03, 0x00, 0xE0, 0xFF, 0x03, 0x00, 0xFC, 0x7F, 0x00, 0xE0, 0xFF, 
  0x03, 0x00, 0xE0, 0xFF, 0x03, 0x00, 0xFC, 0x7F, 0x00, 0xE0, 0xFF, 0x03, 
  0x00, 0xE0, 0xFF, 0x03, 0x00, 0xFC, 0x7F, 0x00, 0xE0, 0xFF, 0x03, 0x00, 
  0xE0, 0xFF, 0x03, 0x00, 0xFC, 0x7F, 0x00, 0xE0, 0xFF, 0x03, 0x00, 0xC0, 
  0xFF, 0x03, 0x00, 0xFC, 0x7F, 0x00, 0xE0, 0xFF, 0x07, 0x00, 0xC0, 0xFF, 
  0x03, 0x00, 0xFC, 0x7F, 0x00, 0xE0, 0xFF, 0x07, 0x00, 0xC0, 0xFF, 0x03, 
  0x00, 0xFC, 0x7F, 0x00, 0xE0, 0xFF, 0x07, 0x00, 0xC0, 0xFF, 0x03, 0x00, 
  0xFC, 0x7F, 0x00, 0xE0, 0xFF, 0x07, 0x00, 0xC0, 0xFF, 0x03, 0x00, 0xFC, 
  0x7F, 0x00, 0xE0, 0xFF, 0x07, 0x00, 0xC0, 0xFF, 0x03, 0x00, 0xFC, 0x7F, 
  0x00, 0xE0, 0xFF, 0x07, 0x00, 0xC0, 0xFF, 0x03, 0x00, 0xFC, 0x7F, 0x00, 
  0xE0, 0xFF, 0x07, 0x00, 0xC0, 0xFF, 0x03, 0x00, 0xFC, 0x7F, 0x00, 0xE0, 
  0xFF, 0x07, 0x00, 0xC0, 0xFF, 0x03, 0x00, 0xFC, 0x7F, 0x00, 0xE0, 0xFF, 
  0x07, 0x00, 0xC0, 0xFF, 0x03, 0x00, 0xFC, 0x7F, 0x00, 0xE0, 0xFF, 0x07, 
  0x00, 0xC0, 0xFF, 0x03, 0x00, 0xFC, 0x7F, 0x00, 0xE0, 0xFF, 0x07, 0x00, 
  0xC0, 0xFF, 0x03, 0x00, 0xFC, 0x7F, 0x00, 0xE0, 0xFF, 0x07, 0x00, 0xC0, 
  0xFF, 0x03, 0x00, 0xF8, 0x7F, 0x00, 0xE0, 0xFF, 0x07, 0x00, 0x80, 0xFF, 
  0x03, 0x00, 0xF0, 0x7F, 0x00, 0xE0, 0xFF, 0x03, 0x00, 0x80, 0xFF, 0x03, 
  0x00, 0xE0, 0x3F, 0x00, 0xE0, 0xFF, 0x01, 0x00, 0x00, 0xFF, 0x01, 0x00, 
  0x00, 0x0F, 0x00, 0x00, 0x00, 0x00, 0x00, 0x00, 0xFC, 0x00, 0x00, 0x00, 
  0x00, 0x00, 0x00, 0x00, 0x00, 0x00, 0x00, 0x00, 0x00, 0x00, 0x00, 0x00, 
  0x00, 0x00, 0x00, 0x00, 0x00, 0x00, 0x00, 0x00, 0x00, 0x00, 0x00, 0x00, 
  0x00, 0x00, 0x00, 0x00, 0x00, 0x00, 0x00, 0x00, 0x00, 0x00, 0x00, 0x00, 
  0x00, 0x00, 0x00, 0x00, 0x00, 0x00, 0x00, 0x00, 0x00, 0x00, 0x00, 0x00, 
  0x00, 0x00, 0x00, 0x00, 0x00, 0x00, 0x00, 0x00, 0x00, 0x00, 0x00, 0x00, 
  0x00, 0x00, 0x00, 0x00, 0x00, 0x00, 0x00, 0x00, 0x00, 0x00, 0x00, 0x00, 
  0x00, 0x00, 0x00, 0x00, 0x00, 0x00, 0x00, 0x00, 0x00, 0x00, 0x00, 0x00, 
  0x00, 0x00, 0x00, 0x00, 0x00, 0x00, 0x00, 0x00, 0x00, 0x00, 0x00, 0x00, 
  0x00, 0x00, 0x00, 0x00, 0x00, 0x00, 0x00, 0x00, 0x00, 0x00, 0x00, 0x00, 
  0x00, 0x00, 0x00, 0x00, 0x00, 0x00, 0x00, 0x00, };
