#define _111_width 55
#define _111_height 100
static char _111_bits[] = {
  0x00, 0x00, 0x00, 0x00, 0x00, 0x00, 0x00, 0x00, 0x00, 0x00, 0x00, 0x00, 
  0x00, 0x00, 0x00, 0x00, 0x00, 0x00, 0x00, 0x00, 0x00, 0x00, 0x00, 0x00, 
  0x00, 0x00, 0x00, 0x00, 0x00, 0x00, 0x00, 0x00, 0x00, 0x00, 0x00, 0x00, 
  0x00, 0x00, 0x00, 0x00, 0x00, 0x00, 0x00, 0x00, 0x00, 0x00, 0x00, 0x00, 
  0x00, 0x00, 0x00, 0x00, 0x00, 0x00, 0x00, 0x00, 0x00, 0x00, 0x00, 0x00, 
  0x00, 0x00, 0x00, 0x00, 0x00, 0x00, 0x00, 0x00, 0x00, 0x00, 0x00, 0x00, 
  0x00, 0x00, 0x00, 0x00, 0x00, 0x00, 0x00, 0x00, 0x00, 0x00, 0x00, 0x00, 
  0x00, 0x00, 0x00, 0x00, 0x00, 0x00, 0x00, 0x00, 0x00, 0x00, 0x00, 0x00, 
  0x00, 0x00, 0x00, 0x00, 0x00, 0x00, 0x00, 0x00, 0x00, 0x00, 0x00, 0x00, 
  0x00, 0x00, 0x00, 0x00, 0x00, 0x00, 0x00, 0x00, 0x00, 0x00, 0x00, 0x00, 
  0x00, 0x00, 0x00, 0x00, 0x00, 0x00, 0x00, 0x00, 0x00, 0x00, 0x00, 0x00, 
  0x00, 0x00, 0x00, 0x00, 0x00, 0x00, 0x00, 0x00, 0x00, 0x00, 0x00, 0x00, 
  0x00, 0x00, 0x00, 0x00, 0x00, 0x00, 0x00, 0x00, 0x00, 0x00, 0x00, 0x00, 
  0x00, 0x00, 0x00, 0x00, 0x00, 0x00, 0x00, 0x00, 0x00, 0x00, 0x00, 0x00, 
  0x00, 0x00, 0x00, 0x00, 0x00, 0x00, 0x00, 0x00, 0x00, 0x00, 0x00, 0x00, 
  0x00, 0x00, 0x00, 0x00, 0x00, 0x00, 0x00, 0x00, 0x00, 0x00, 0x00, 0x00, 
  0x00, 0x00, 0x00, 0x00, 0x00, 0x00, 0x00, 0x00, 0x00, 0x00, 0x00, 0x00, 
  0x00, 0x00, 0x00, 0x00, 0x00, 0x00, 0x00, 0x00, 0x00, 0x00, 0x00, 0x00, 
  0x00, 0x00, 0x00, 0x00, 0x00, 0x00, 0x00, 0x00, 0x00, 0x00, 0x00, 0x00, 
  0x00, 0x00, 0x00, 0x00, 0x00, 0x00, 0x00, 0x00, 0x00, 0x00, 0x00, 0x00, 
  0x00, 0x00, 0x00, 0x00, 0x00, 0x00, 0x00, 0x00, 0x00, 0x00, 0x00, 0x00, 
  0x00, 0x00, 0x00, 0x00, 0x00, 0x00, 0x00, 0x00, 0x00, 0x00, 0x00, 0x00, 
  0x00, 0x00, 0x00, 0x00, 0x00, 0x00, 0x00, 0x00, 0x00, 0x00, 0x00, 0xC0, 
  0x7F, 0x00, 0x00, 0x00, 0x00, 0x00, 0xFC, 0xFF, 0x07, 0x00, 0x00, 0x00, 
  0x00, 0xFF, 0xFF, 0x1F, 0x00, 0x00, 0x00, 0xC0, 0xFF, 0xFF, 0x7F, 0x00, 
  0x00, 0x00, 0xE0, 0x3F, 0x80, 0xFF, 0x00, 0x00, 0x00, 0xF0, 0x07, 0x00, 
  0xFC, 0x01, 0x00, 0x00, 0xF8, 0x01, 0x00, 0xF0, 0x03, 0x00, 0x00, 0xFC, 
  0x00, 0x00, 0xE0, 0x07, 0x00, 0x00, 0x3E, 0x00, 0x00, 0x80, 0x0F, 0x00, 
  0x00, 0x1F, 0x00, 0x00, 0x00, 0x1F, 0x00, 0x80, 0x0F, 0x00, 0x00, 0x00, 
  0x3E, 0x00, 0x80, 0x0F, 0x00, 0x00, 0x00, 0x3E, 0x00, 0xC0, 0x07, 0x00, 
  0x00, 0x00, 0x7C, 0x00, 0xC0, 0x03, 0x00, 0x00, 0x00, 0x78, 0x00, 0xE0, 
  0x03, 0x00, 0x00, 0x00, 0xF8, 0x00, 0xE0, 0x01, 0x00, 0x00, 0x00, 0xF0, 
  0x00, 0xE0, 0x01, 0x00, 0x00, 0x00, 0xF0, 0x00, 0xE0, 0x01, 0x00, 0x00, 
  0x00, 0xF0, 0x00, 0xF0, 0x00, 0x00, 0x00, 0x00, 0xE0, 0x01, 0xF0, 0x00, 
  0x00, 0x00, 0x00, 0xE0, 0x01, 0xF0, 0x00, 0x00, 0x00, 0x00, 0xE0, 0x01, 
  0xF0, 0x00, 0x00, 0x00, 0x00, 0xE0, 0x01, 0xF0, 0x00, 0x00, 0x00, 0x00, 
  0xE0, 0x01, 0xF0, 0x00, 0x00, 0x00, 0x00, 0xE0, 0x01, 0xF0, 0x00, 0x00, 
  0x00, 0x00, 0xE0, 0x01, 0xF0, 0x00, 0x00, 0x00, 0x00, 0xE0, 0x01, 0xF0, 
  0x00, 0x00, 0x00, 0x00, 0xE0, 0x01, 0xE0, 0x01, 0x00, 0x00, 0x00, 0xF0, 
  0x00, 0xE0, 0x01, 0x00, 0x00, 0x00, 0xF0, 0x00, 0xE0, 0x01, 0x00, 0x00, 
  0x00, 0xF0, 0x00, 0xE0, 0x03, 0x00, 0x00, 0x00, 0xF8, 0x00, 0xC0, 0x03, 
  0x00, 0x00, 0x00, 0x78, 0x00, 0xC0, 0x07, 0x00, 0x00, 0x00, 0x7C, 0x00, 
  0x80, 0x0F, 0x00, 0x00, 0x00, 0x3E, 0x00, 0x80, 0x0F, 0x00, 0x00, 0x00, 
  0x3E, 0x00, 0x00, 0x1F, 0x00, 0x00, 0x00, 0x1F, 0x00, 0x00, 0x3E, 0x00, 
  0x00, 0x80, 0x0F, 0x00, 0x00, 0xFC, 0x00, 0x00, 0xE0, 0x07, 0x00, 0x00, 
  0xF8, 0x01, 0x00, 0xF0, 0x03, 0x00, 0x00, 0xF0, 0x07, 0x00, 0xFC, 0x01, 
  0x00, 0x00, 0xE0, 0x3F, 0x80, 0xFF, 0x00, 0x00, 0x00, 0xC0, 0xFF, 0xFF, 
  0x7F, 0x00, 0x00, 0x00, 0x00, 0xFF, 0xFF, 0x1F, 0x00, 0x00, 0x00, 0x00, 
  0xFC, 0xFF, 0x07, 0x00, 0x00, 0x00, 0x00, 0xC0, 0x7F, 0x00, 0x00, 0x00, 
  0x00, 0x00, 0x00, 0x00, 0x00, 0x00, 0x00, 0x00, 0x00, 0x00, 0x00, 0x00, 
  0x00, 0x00, 0x00, 0x00, 0x00, 0x00, 0x00, 0x00, 0x00, 0x00, 0x00, 0x00, 
  0x00, 0x00, 0x00, 0x00, 0x00, 0x00, 0x00, 0x00, 0x00, 0x00, 0x00, 0x00, 
  0x00, 0x00, 0x00, 0x00, 0x00, 0x00, 0x00, 0x00, 0x00, 0x00, 0x00, 0x00, 
  0x00, 0x00, 0x00, 0x00, 0x00, 0x00, 0x00, 0x00, 0x00, 0x00, 0x00, 0x00, 
  0x00, 0x00, 0x00, 0x00, 0x00, 0x00, 0x00, 0x00, 0x00, 0x00, 0x00, 0x00, 
  0x00, 0x00, 0x00, 0x00, 0x00, 0x00, 0x00, 0x00, 0x00, 0x00, 0x00, 0x00, 
  0x00, 0x00, 0x00, 0x00, 0x00, 0x00, 0x00, 0x00, 0x00, 0x00, 0x00, 0x00, 
  0x00, 0x00, 0x00, 0x00, 0x00, 0x00, 0x00, 0x00, 0x00, 0x00, 0x00, 0x00, 
  0x00, 0x00, 0x00, 0x00, };
