#define _117_width 47
#define _117_height 100
static char _117_bits[] = {
  0x00, 0x00, 0x00, 0x00, 0x00, 0x00, 0x00, 0x00, 0x00, 0x00, 0x00, 0x00, 
  0x00, 0x00, 0x00, 0x00, 0x00, 0x00, 0x00, 0x00, 0x00, 0x00, 0x00, 0x00, 
  0x00, 0x00, 0x00, 0x00, 0x00, 0x00, 0x00, 0x00, 0x00, 0x00, 0x00, 0x00, 
  0x00, 0x00, 0x00, 0x00, 0x00, 0x00, 0x00, 0x00, 0x00, 0x00, 0x00, 0x00, 
  0x00, 0x00, 0x00, 0x00, 0x00, 0x00, 0x00, 0x00, 0x00, 0x00, 0x00, 0x00, 
  0x00, 0x00, 0x00, 0x00, 0x00, 0x00, 0x00, 0x00, 0x00, 0x00, 0x00, 0x00, 
  0x00, 0x00, 0x00, 0x00, 0x00, 0x00, 0x00, 0x00, 0x00, 0x00, 0x00, 0x00, 
  0x00, 0x00, 0x00, 0x00, 0x00, 0x00, 0x00, 0x00, 0x00, 0x00, 0x00, 0x00, 
  0x00, 0x00, 0x00, 0x00, 0x00, 0x00, 0x00, 0x00, 0x00, 0x00, 0x00, 0x00, 
  0x00, 0x00, 0x00, 0x00, 0x00, 0x00, 0x00, 0x00, 0x00, 0x00, 0x00, 0x00, 
  0x00, 0x00, 0x00, 0x00, 0x00, 0x00, 0x00, 0x00, 0x00, 0x00, 0x00, 0x00, 
  0x00, 0x00, 0x00, 0x00, 0x00, 0x00, 0x00, 0x00, 0x00, 0x00, 0x00, 0x00, 
  0x00, 0x00, 0x00, 0x00, 0x00, 0x00, 0x00, 0x00, 0x00, 0x00, 0x00, 0x00, 
  0x00, 0x00, 0x00, 0x00, 0x00, 0x00, 0x00, 0x00, 0x00, 0x00, 0x00, 0x00, 
  0x00, 0x00, 0x00, 0x00, 0x00, 0x00, 0x00, 0x00, 0x00, 0x00, 0x00, 0x00, 
  0x00, 0x00, 0x00, 0x00, 0x00, 0x00, 0x00, 0x00, 0x00, 0x00, 0x00, 0x00, 
  0x00, 0x00, 0x00, 0x00, 0x00, 0x00, 0x00, 0x00, 0x00, 0x00, 0x00, 0x00, 
  0x00, 0x00, 0x00, 0x00, 0x00, 0x00, 0x00, 0x00, 0x00, 0x00, 0x00, 0x00, 
  0x00, 0x00, 0x00, 0x00, 0x00, 0x00, 0x00, 0x00, 0x00, 0x00, 0x00, 0x00, 
  0x00, 0x00, 0x00, 0x00, 0x00, 0x00, 0x00, 0x00, 0x00, 0x00, 0x00, 0x00, 
  0x00, 0x00, 0x00, 0x00, 0x00, 0x00, 0x00, 0x00, 0x00, 0x00, 0x00, 0x00, 
  0x00, 0x00, 0x00, 0x00, 0x00, 0x00, 0xC0, 0x03, 0x00, 0x00, 0x78, 0x00, 
  0xC0, 0x03, 0x00, 0x00, 0x78, 0x00, 0xC0, 0x03, 0x00, 0x00, 0x78, 0x00, 
  0xC0, 0x03, 0x00, 0x00, 0x78, 0x00, 0xC0, 0x03, 0x00, 0x00, 0x78, 0x00, 
  0xC0, 0x03, 0x00, 0x00, 0x78, 0x00, 0xC0, 0x03, 0x00, 0x00, 0x78, 0x00, 
  0xC0, 0x03, 0x00, 0x00, 0x78, 0x00, 0xC0, 0x03, 0x00, 0x00, 0x78, 0x00, 
  0xC0, 0x03, 0x00, 0x00, 0x78, 0x00, 0xC0, 0x03, 0x00, 0x00, 0x78, 0x00, 
  0xC0, 0x03, 0x00, 0x00, 0x78, 0x00, 0xC0, 0x03, 0x00, 0x00, 0x78, 0x00, 
  0xC0, 0x03, 0x00, 0x00, 0x78, 0x00, 0xC0, 0x03, 0x00, 0x00, 0x78, 0x00, 
  0xC0, 0x03, 0x00, 0x00, 0x78, 0x00, 0xC0, 0x03, 0x00, 0x00, 0x78, 0x00, 
  0xC0, 0x03, 0x00, 0x00, 0x78, 0x00, 0xC0, 0x03, 0x00, 0x00, 0x78, 0x00, 
  0xC0, 0x03, 0x00, 0x00, 0x78, 0x00, 0xC0, 0x03, 0x00, 0x00, 0x78, 0x00, 
  0xC0, 0x03, 0x00, 0x00, 0x78, 0x00, 0xC0, 0x03, 0x00, 0x00, 0x78, 0x00, 
  0xC0, 0x03, 0x00, 0x00, 0x78, 0x00, 0xC0, 0x03, 0x00, 0x00, 0x78, 0x00, 
  0xC0, 0x03, 0x00, 0x00, 0x78, 0x00, 0xC0, 0x03, 0x00, 0x00, 0x78, 0x00, 
  0xC0, 0x03, 0x00, 0x00, 0x78, 0x00, 0xC0, 0x07, 0x00, 0x00, 0x7C, 0x00, 
  0x80, 0x07, 0x00, 0x00, 0x3C, 0x00, 0x80, 0x0F, 0x00, 0x00, 0x3E, 0x00, 
  0x80, 0x0F, 0x00, 0x00, 0x3E, 0x00, 0x00, 0x1F, 0x00, 0x00, 0x1F, 0x00, 
  0x00, 0x3F, 0x00, 0x80, 0x1F, 0x00, 0x00, 0x7E, 0x00, 0xC0, 0x0F, 0x00, 
  0x00, 0xFC, 0x01, 0xF0, 0x07, 0x00, 0x00, 0xF8, 0x07, 0xFC, 0x03, 0x00, 
  0x00, 0xF0, 0xFF, 0xFF, 0x01, 0x00, 0x00, 0xE0, 0xFF, 0xFF, 0x00, 0x00, 
  0x00, 0x80, 0xFF, 0x3F, 0x00, 0x00, 0x00, 0x00, 0xFC, 0x07, 0x00, 0x00, 
  0x00, 0x00, 0x00, 0x00, 0x00, 0x00, 0x00, 0x00, 0x00, 0x00, 0x00, 0x00, 
  0x00, 0x00, 0x00, 0x00, 0x00, 0x00, 0x00, 0x00, 0x00, 0x00, 0x00, 0x00, 
  0x00, 0x00, 0x00, 0x00, 0x00, 0x00, 0x00, 0x00, 0x00, 0x00, 0x00, 0x00, 
  0x00, 0x00, 0x00, 0x00, 0x00, 0x00, 0x00, 0x00, 0x00, 0x00, 0x00, 0x00, 
  0x00, 0x00, 0x00, 0x00, 0x00, 0x00, 0x00, 0x00, 0x00, 0x00, 0x00, 0x00, 
  0x00, 0x00, 0x00, 0x00, 0x00, 0x00, 0x00, 0x00, 0x00, 0x00, 0x00, 0x00, 
  0x00, 0x00, 0x00, 0x00, 0x00, 0x00, 0x00, 0x00, 0x00, 0x00, 0x00, 0x00, 
  0x00, 0x00, 0x00, 0x00, 0x00, 0x00, 0x00, 0x00, 0x00, 0x00, 0x00, 0x00, 
  };
