#define _087_width 92
#define _087_height 100
static char _087_bits[] = {
  0x00, 0x00, 0x00, 0x00, 0x00, 0x00, 0x00, 0x00, 0x00, 0x00, 0x00, 0x00, 
  0x00, 0x00, 0x00, 0x00, 0x00, 0x00, 0x00, 0x00, 0x00, 0x00, 0x00, 0x00, 
  0x00, 0x00, 0x00, 0x00, 0x00, 0x00, 0x00, 0x00, 0x00, 0x00, 0x00, 0x00, 
  0x00, 0x00, 0x00, 0x00, 0x00, 0x00, 0x00, 0x00, 0x00, 0x00, 0x00, 0x00, 
  0x00, 0x00, 0x00, 0x00, 0x00, 0x00, 0x00, 0x00, 0x00, 0x00, 0x00, 0x00, 
  0x00, 0x00, 0x00, 0x00, 0x00, 0x00, 0x00, 0x00, 0x00, 0x00, 0x00, 0x00, 
  0x00, 0x00, 0x00, 0x00, 0x00, 0x00, 0x00, 0x00, 0x00, 0x00, 0x00, 0x00, 
  0x00, 0x00, 0x00, 0x00, 0x00, 0x00, 0x00, 0x00, 0x00, 0x00, 0x00, 0x00, 
  0x00, 0x00, 0x00, 0x00, 0x00, 0x00, 0x00, 0x00, 0x00, 0x00, 0x00, 0x00, 
  0x00, 0x00, 0x00, 0x00, 0x00, 0x00, 0x00, 0x00, 0x00, 0x00, 0x00, 0x00, 
  0x00, 0x00, 0x00, 0x00, 0x00, 0x00, 0x00, 0x00, 0x00, 0x00, 0x00, 0x00, 
  0x00, 0x00, 0x00, 0x00, 0x00, 0x00, 0x00, 0x00, 0x00, 0x00, 0x00, 0x00, 
  0x00, 0x00, 0x00, 0x00, 0x00, 0x00, 0x00, 0x00, 0x00, 0x00, 0x00, 0x00, 
  0x00, 0x00, 0x00, 0x00, 0x00, 0x00, 0x00, 0x00, 0x00, 0x00, 0x00, 0x00, 
  0x00, 0x00, 0x00, 0x00, 0x00, 0x00, 0x00, 0x00, 0x00, 0x00, 0x00, 0x00, 
  0x00, 0x00, 0x00, 0x00, 0x00, 0x00, 0x00, 0x00, 0x00, 0x00, 0x00, 0x00, 
  0x00, 0x00, 0x00, 0x00, 0x00, 0x00, 0x00, 0x00, 0x00, 0x00, 0x00, 0x00, 
  0x00, 0x00, 0x00, 0x00, 0x00, 0x00, 0x00, 0x00, 0x00, 0x00, 0x00, 0x00, 
  0x00, 0x00, 0x00, 0x00, 0x00, 0x00, 0x00, 0x00, 0x00, 0x00, 0x00, 0x00, 
  0x00, 0x00, 0x00, 0x00, 0x00, 0x00, 0x00, 0x00, 0x00, 0x00, 0x00, 0x00, 
  0x00, 0x00, 0x00, 0x00, 0x00, 0x00, 0x00, 0x00, 0x00, 0x00, 0x00, 0x00, 
  0x7E, 0x00, 0x00, 0xE0, 0x07, 0x00, 0xF8, 0x00, 0x00, 0xC0, 0x1F, 0x00, 
  0xFC, 0x00, 0x00, 0xC0, 0x07, 0x00, 0xF8, 0x00, 0x00, 0xC0, 0x0F, 0x00, 
  0xFC, 0x00, 0x00, 0xC0, 0x0F, 0x00, 0xFC, 0x00, 0x00, 0xC0, 0x0F, 0x00, 
  0xF8, 0x01, 0x00, 0x80, 0x0F, 0x00, 0x7C, 0x00, 0x00, 0xE0, 0x07, 0x00, 
  0xF8, 0x01, 0x00, 0x80, 0x0F, 0x00, 0x7E, 0x00, 0x00, 0xE0, 0x07, 0x00, 
  0xF8, 0x01, 0x00, 0x80, 0x1F, 0x00, 0x3E, 0x00, 0x00, 0xF0, 0x03, 0x00, 
  0xF0, 0x03, 0x00, 0x00, 0x1F, 0x00, 0x3E, 0x00, 0x00, 0xF0, 0x03, 0x00, 
  0xF0, 0x03, 0x00, 0x00, 0x3F, 0x00, 0x3F, 0x00, 0x00, 0xF8, 0x03, 0x00, 
  0xE0, 0x07, 0x00, 0x00, 0x3E, 0x00, 0x1F, 0x00, 0x00, 0xF8, 0x01, 0x00, 
  0xE0, 0x07, 0x00, 0x00, 0x3E, 0x80, 0x1F, 0x00, 0x00, 0xF8, 0x01, 0x00, 
  0xC0, 0x0F, 0x00, 0x00, 0x7E, 0x80, 0x0F, 0x00, 0x00, 0xFC, 0x00, 0x00, 
  0xC0, 0x0F, 0x00, 0x00, 0x7C, 0x80, 0x0F, 0x00, 0x00, 0xFC, 0x00, 0x00, 
  0xC0, 0x0F, 0x00, 0x00, 0x7C, 0xC0, 0x0F, 0x00, 0x00, 0x7E, 0x00, 0x00, 
  0x80, 0x1F, 0x00, 0x00, 0xF8, 0xC0, 0x07, 0x00, 0x00, 0x7E, 0x00, 0x00, 
  0x80, 0x1F, 0x00, 0x00, 0xF8, 0xE0, 0x07, 0x00, 0x00, 0x7E, 0x00, 0x00, 
  0x00, 0x3F, 0x00, 0x00, 0xF8, 0xE1, 0x03, 0x00, 0x00, 0x3F, 0x00, 0x00, 
  0x00, 0x3F, 0x00, 0x00, 0xF0, 0xE1, 0x03, 0x00, 0x00, 0x3F, 0x00, 0x00, 
  0x00, 0x3F, 0x00, 0x00, 0xF0, 0xF1, 0x01, 0x00, 0x80, 0x1F, 0x00, 0x00, 
  0x00, 0x7E, 0x00, 0x00, 0xE0, 0xF3, 0x01, 0x00, 0x80, 0x1F, 0x00, 0x00, 
  0x00, 0x7E, 0x00, 0x00, 0xE0, 0xFB, 0x01, 0x00, 0x80, 0x1F, 0x00, 0x00, 
  0x00, 0xFC, 0x00, 0x00, 0xC0, 0xFF, 0x00, 0x00, 0xC0, 0x0F, 0x00, 0x00, 
  0x00, 0xFC, 0x00, 0x00, 0xC0, 0xFF, 0x00, 0x00, 0xC0, 0x0F, 0x00, 0x00, 
  0x00, 0xF8, 0x00, 0x00, 0xC0, 0x7F, 0x00, 0x00, 0xE0, 0x07, 0x00, 0x00, 
  0x00, 0xF8, 0x01, 0x00, 0x80, 0x7F, 0x00, 0x00, 0xE0, 0x07, 0x00, 0x00, 
  0x00, 0xF8, 0x01, 0x00, 0x80, 0x7F, 0x00, 0x00, 0xE0, 0x03, 0x00, 0x00, 
  0x00, 0xF0, 0x03, 0x00, 0x80, 0x7F, 0x00, 0x00, 0xF0, 0x03, 0x00, 0x00, 
  0x00, 0xF0, 0x03, 0x00, 0x80, 0x7F, 0x00, 0x00, 0xF0, 0x03, 0x00, 0x00, 
  0x00, 0xE0, 0x07, 0x00, 0xC0, 0x7F, 0x00, 0x00, 0xF8, 0x01, 0x00, 0x00, 
  0x00, 0xE0, 0x07, 0x00, 0xC0, 0xFF, 0x00, 0x00, 0xF8, 0x01, 0x00, 0x00, 
  0x00, 0xC0, 0x07, 0x00, 0xE0, 0xFF, 0x00, 0x00, 0xFC, 0x00, 0x00, 0x00, 
  0x00, 0xC0, 0x0F, 0x00, 0xE0, 0xFB, 0x01, 0x00, 0xFC, 0x00, 0x00, 0x00, 
  0x00, 0xC0, 0x0F, 0x00, 0xE0, 0xF3, 0x01, 0x00, 0x7C, 0x00, 0x00, 0x00, 
  0x00, 0x80, 0x1F, 0x00, 0xF0, 0xF1, 0x03, 0x00, 0x7E, 0x00, 0x00, 0x00, 
  0x00, 0x80, 0x1F, 0x00, 0xF0, 0xE1, 0x03, 0x00, 0x7E, 0x00, 0x00, 0x00, 
  0x00, 0x00, 0x1F, 0x00, 0xF8, 0xE1, 0x03, 0x00, 0x3F, 0x00, 0x00, 0x00, 
  0x00, 0x00, 0x3F, 0x00, 0xF8, 0xC0, 0x07, 0x00, 0x3F, 0x00, 0x00, 0x00, 
  0x00, 0x00, 0x3F, 0x00, 0xF8, 0xC0, 0x07, 0x00, 0x1F, 0x00, 0x00, 0x00, 
  0x00, 0x00, 0x7E, 0x00, 0x7C, 0xC0, 0x0F, 0x80, 0x1F, 0x00, 0x00, 0x00, 
  0x00, 0x00, 0x7E, 0x00, 0x7C, 0x80, 0x0F, 0x80, 0x0F, 0x00, 0x00, 0x00, 
  0x00, 0x00, 0x7C, 0x00, 0x3E, 0x80, 0x1F, 0xC0, 0x0F, 0x00, 0x00, 0x00, 
  0x00, 0x00, 0xFC, 0x00, 0x3E, 0x00, 0x1F, 0xC0, 0x0F, 0x00, 0x00, 0x00, 
  0x00, 0x00, 0xF8, 0x00, 0x3F, 0x00, 0x1F, 0xC0, 0x07, 0x00, 0x00, 0x00, 
  0x00, 0x00, 0xF8, 0x01, 0x1F, 0x00, 0x3E, 0xE0, 0x07, 0x00, 0x00, 0x00, 
  0x00, 0x00, 0xF8, 0x01, 0x1F, 0x00, 0x3E, 0xE0, 0x03, 0x00, 0x00, 0x00, 
  0x00, 0x00, 0xF0, 0x81, 0x0F, 0x00, 0x7E, 0xF0, 0x03, 0x00, 0x00, 0x00, 
  0x00, 0x00, 0xF0, 0x83, 0x0F, 0x00, 0x7C, 0xF0, 0x01, 0x00, 0x00, 0x00, 
  0x00, 0x00, 0xE0, 0xC3, 0x0F, 0x00, 0xFC, 0xF0, 0x01, 0x00, 0x00, 0x00, 
  0x00, 0x00, 0xE0, 0xC7, 0x07, 0x00, 0xF8, 0xF8, 0x01, 0x00, 0x00, 0x00, 
  0x00, 0x00, 0xC0, 0xE7, 0x07, 0x00, 0xF8, 0xF8, 0x00, 0x00, 0x00, 0x00, 
  0x00, 0x00, 0xC0, 0xEF, 0x03, 0x00, 0xF8, 0xFD, 0x00, 0x00, 0x00, 0x00, 
  0x00, 0x00, 0xC0, 0xEF, 0x03, 0x00, 0xF0, 0x7D, 0x00, 0x00, 0x00, 0x00, 
  0x00, 0x00, 0x80, 0xFF, 0x01, 0x00, 0xF0, 0x7F, 0x00, 0x00, 0x00, 0x00, 
  0x00, 0x00, 0x80, 0xFF, 0x01, 0x00, 0xE0, 0x7F, 0x00, 0x00, 0x00, 0x00, 
  0x00, 0x00, 0x00, 0xFF, 0x01, 0x00, 0xE0, 0x3F, 0x00, 0x00, 0x00, 0x00, 
  0x00, 0x00, 0x00, 0xFF, 0x00, 0x00, 0xC0, 0x3F, 0x00, 0x00, 0x00, 0x00, 
  0x00, 0x00, 0x00, 0xFE, 0x00, 0x00, 0xC0, 0x1F, 0x00, 0x00, 0x00, 0x00, 
  0x00, 0x00, 0x00, 0x7E, 0x00, 0x00, 0xC0, 0x1F, 0x00, 0x00, 0x00, 0x00, 
  0x00, 0x00, 0x00, 0x7E, 0x00, 0x00, 0x80, 0x0F, 0x00, 0x00, 0x00, 0x00, 
  0x00, 0x00, 0x00, 0x00, 0x00, 0x00, 0x00, 0x00, 0x00, 0x00, 0x00, 0x00, 
  0x00, 0x00, 0x00, 0x00, 0x00, 0x00, 0x00, 0x00, 0x00, 0x00, 0x00, 0x00, 
  0x00, 0x00, 0x00, 0x00, 0x00, 0x00, 0x00, 0x00, 0x00, 0x00, 0x00, 0x00, 
  0x00, 0x00, 0x00, 0x00, 0x00, 0x00, 0x00, 0x00, 0x00, 0x00, 0x00, 0x00, 
  0x00, 0x00, 0x00, 0x00, 0x00, 0x00, 0x00, 0x00, 0x00, 0x00, 0x00, 0x00, 
  0x00, 0x00, 0x00, 0x00, 0x00, 0x00, 0x00, 0x00, 0x00, 0x00, 0x00, 0x00, 
  0x00, 0x00, 0x00, 0x00, 0x00, 0x00, 0x00, 0x00, 0x00, 0x00, 0x00, 0x00, 
  0x00, 0x00, 0x00, 0x00, 0x00, 0x00, 0x00, 0x00, 0x00, 0x00, 0x00, 0x00, 
  0x00, 0x00, 0x00, 0x00, 0x00, 0x00, 0x00, 0x00, 0x00, 0x00, 0x00, 0x00, 
  0x00, 0x00, 0x00, 0x00, 0x00, 0x00, 0x00, 0x00, 0x00, 0x00, 0x00, 0x00, 
  0x00, 0x00, 0x00, 0x00, 0x00, 0x00, 0x00, 0x00, 0x00, 0x00, 0x00, 0x00, 
  0x00, 0x00, 0x00, 0x00, 0x00, 0x00, 0x00, 0x00, 0x00, 0x00, 0x00, 0x00, 
  0x00, 0x00, 0x00, 0x00, 0x00, 0x00, 0x00, 0x00, 0x00, 0x00, 0x00, 0x00, 
  0x00, 0x00, 0x00, 0x00, 0x00, 0x00, 0x00, 0x00, 0x00, 0x00, 0x00, 0x00, 
  0x00, 0x00, 0x00, 0x00, 0x00, 0x00, 0x00, 0x00, 0x00, 0x00, 0x00, 0x00, 
  0x00, 0x00, 0x00, 0x00, 0x00, 0x00, 0x00, 0x00, 0x00, 0x00, 0x00, 0x00, 
  0x00, 0x00, 0x00, 0x00, 0x00, 0x00, 0x00, 0x00, 0x00, 0x00, 0x00, 0x00, 
  0x00, 0x00, 0x00, 0x00, 0x00, 0x00, 0x00, 0x00, 0x00, 0x00, 0x00, 0x00, 
  0x00, 0x00, 0x00, 0x00, 0x00, 0x00, 0x00, 0x00, 0x00, 0x00, 0x00, 0x00, 
  0x00, 0x00, 0x00, 0x00, 0x00, 0x00, 0x00, 0x00, 0x00, 0x00, 0x00, 0x00, 
  0x00, 0x00, 0x00, 0x00, 0x00, 0x00, 0x00, 0x00, 0x00, 0x00, 0x00, 0x00, 
  };
