#define _098_width 57
#define _098_height 100
static char _098_bits[] = {
  0x00, 0x00, 0x00, 0x00, 0x00, 0x00, 0x00, 0x00, 0x00, 0x00, 0x00, 0x00, 
  0x00, 0x00, 0x00, 0x00, 0x00, 0x00, 0x00, 0x00, 0x00, 0x00, 0x00, 0x00, 
  0x00, 0x00, 0x00, 0x00, 0x00, 0x00, 0x00, 0x00, 0x00, 0x00, 0x00, 0x00, 
  0x00, 0x00, 0x00, 0x00, 0x00, 0x00, 0x00, 0x00, 0x00, 0x00, 0x00, 0x00, 
  0x00, 0x00, 0x00, 0x00, 0x00, 0x00, 0x00, 0x00, 0x00, 0x00, 0x00, 0x00, 
  0x00, 0x00, 0x00, 0x00, 0x00, 0x00, 0x00, 0x00, 0x00, 0x00, 0x00, 0x00, 
  0x00, 0x00, 0x00, 0x00, 0x00, 0x00, 0x00, 0x00, 0x00, 0x00, 0x00, 0x00, 
  0x00, 0x00, 0x00, 0x00, 0x00, 0x00, 0x00, 0x00, 0x00, 0x00, 0x00, 0x00, 
  0x00, 0x00, 0x00, 0x00, 0x00, 0x00, 0x00, 0x00, 0x00, 0x00, 0x00, 0x00, 
  0x00, 0x00, 0x00, 0x00, 0x00, 0x00, 0x00, 0x00, 0x00, 0x00, 0x00, 0x00, 
  0x00, 0x00, 0x00, 0x00, 0x00, 0x00, 0x00, 0x00, 0x00, 0x00, 0x00, 0x00, 
  0x00, 0x00, 0x00, 0x00, 0x00, 0x00, 0x00, 0x00, 0x00, 0x00, 0x00, 0x00, 
  0x00, 0x00, 0x00, 0x00, 0x00, 0x00, 0x00, 0x00, 0xC0, 0x0F, 0x00, 0x00, 
  0x00, 0x00, 0x00, 0x00, 0xC0, 0x0F, 0x00, 0x00, 0x00, 0x00, 0x00, 0x00, 
  0xC0, 0x0F, 0x00, 0x00, 0x00, 0x00, 0x00, 0x00, 0xC0, 0x0F, 0x00, 0x00, 
  0x00, 0x00, 0x00, 0x00, 0xC0, 0x0F, 0x00, 0x00, 0x00, 0x00, 0x00, 0x00, 
  0xC0, 0x0F, 0x00, 0x00, 0x00, 0x00, 0x00, 0x00, 0xC0, 0x0F, 0x00, 0x00, 
  0x00, 0x00, 0x00, 0x00, 0xC0, 0x0F, 0x00, 0x00, 0x00, 0x00, 0x00, 0x00, 
  0xC0, 0x0F, 0x00, 0x00, 0x00, 0x00, 0x00, 0x00, 0xC0, 0x0F, 0x00, 0x00, 
  0x00, 0x00, 0x00, 0x00, 0xC0, 0x0F, 0x00, 0x00, 0x00, 0x00, 0x00, 0x00, 
  0xC0, 0x0F, 0x00, 0x00, 0x00, 0x00, 0x00, 0x00, 0xC0, 0x0F, 0x00, 0x00, 
  0x00, 0x00, 0x00, 0x00, 0xC0, 0x0F, 0x00, 0x00, 0x00, 0x00, 0x00, 0x00, 
  0xC0, 0x0F, 0x00, 0x00, 0x00, 0x00, 0x00, 0x00, 0xC0, 0x0F, 0x00, 0x00, 
  0x00, 0x00, 0x00, 0x00, 0xC0, 0x0F, 0x00, 0x00, 0x00, 0x00, 0x00, 0x00, 
  0xC0, 0x0F, 0xC0, 0xFF, 0x03, 0x00, 0x00, 0x00, 0xC0, 0x0F, 0xF0, 0xFF, 
  0x0F, 0x00, 0x00, 0x00, 0xC0, 0x0F, 0xFC, 0xFF, 0x3F, 0x00, 0x00, 0x00, 
  0xC0, 0x0F, 0xFE, 0xFF, 0x7F, 0x00, 0x00, 0x00, 0xC0, 0x0F, 0xFF, 0xFB, 
  0xFF, 0x00, 0x00, 0x00, 0xC0, 0x8F, 0x1F, 0x00, 0xFF, 0x01, 0x00, 0x00, 
  0xC0, 0xCF, 0x07, 0x00, 0xFC, 0x03, 0x00, 0x00, 0xC0, 0xEF, 0x03, 0x00, 
  0xF8, 0x07, 0x00, 0x00, 0xC0, 0xFF, 0x01, 0x00, 0xF0, 0x0F, 0x00, 0x00, 
  0xC0, 0xFF, 0x00, 0x00, 0xE0, 0x0F, 0x00, 0x00, 0xC0, 0x7F, 0x00, 0x00, 
  0xC0, 0x1F, 0x00, 0x00, 0xC0, 0x3F, 0x00, 0x00, 0x80, 0x1F, 0x00, 0x00, 
  0xC0, 0x1F, 0x00, 0x00, 0x80, 0x3F, 0x00, 0x00, 0xC0, 0x1F, 0x00, 0x00, 
  0x00, 0x3F, 0x00, 0x00, 0xC0, 0x0F, 0x00, 0x00, 0x00, 0x3F, 0x00, 0x00, 
  0xC0, 0x0F, 0x00, 0x00, 0x00, 0x7E, 0x00, 0x00, 0xC0, 0x0F, 0x00, 0x00, 
  0x00, 0x7E, 0x00, 0x00, 0xC0, 0x0F, 0x00, 0x00, 0x00, 0x7E, 0x00, 0x00, 
  0xC0, 0x0F, 0x00, 0x00, 0x00, 0x7E, 0x00, 0x00, 0xC0, 0x0F, 0x00, 0x00, 
  0x00, 0x7C, 0x00, 0x00, 0xC0, 0x0F, 0x00, 0x00, 0x00, 0x7C, 0x00, 0x00, 
  0xC0, 0x0F, 0x00, 0x00, 0x00, 0x7C, 0x00, 0x00, 0xC0, 0x0F, 0x00, 0x00, 
  0x00, 0x7C, 0x00, 0x00, 0xC0, 0x0F, 0x00, 0x00, 0x00, 0x7C, 0x00, 0x00, 
  0xC0, 0x0F, 0x00, 0x00, 0x00, 0x7E, 0x00, 0x00, 0xC0, 0x0F, 0x00, 0x00, 
  0x00, 0x7E, 0x00, 0x00, 0xC0, 0x0F, 0x00, 0x00, 0x00, 0x7E, 0x00, 0x00, 
  0xC0, 0x0F, 0x00, 0x00, 0x00, 0x7E, 0x00, 0x00, 0xC0, 0x0F, 0x00, 0x00, 
  0x00, 0x3F, 0x00, 0x00, 0xC0, 0x0F, 0x00, 0x00, 0x00, 0x3F, 0x00, 0x00, 
  0xC0, 0x0F, 0x00, 0x00, 0x80, 0x3F, 0x00, 0x00, 0xC0, 0x1F, 0x00, 0x00, 
  0x80, 0x1F, 0x00, 0x00, 0xC0, 0x1F, 0x00, 0x00, 0xC0, 0x1F, 0x00, 0x00, 
  0xC0, 0x3F, 0x00, 0x00, 0xE0, 0x0F, 0x00, 0x00, 0xC0, 0x7F, 0x00, 0x00, 
  0xF0, 0x0F, 0x00, 0x00, 0xC0, 0xF7, 0x00, 0x00, 0xF8, 0x07, 0x00, 0x00, 
  0xC0, 0xF7, 0x03, 0x00, 0xFC, 0x03, 0x00, 0x00, 0xC0, 0xE7, 0x0F, 0x00, 
  0xFF, 0x01, 0x00, 0x00, 0xC0, 0xC7, 0x7F, 0xE0, 0xFF, 0x00, 0x00, 0x00, 
  0xC0, 0x87, 0xFF, 0xFF, 0x7F, 0x00, 0x00, 0x00, 0xC0, 0x07, 0xFE, 0xFF, 
  0x3F, 0x00, 0x00, 0x00, 0xC0, 0x07, 0xFC, 0xFF, 0x0F, 0x00, 0x00, 0x00, 
  0xC0, 0x07, 0xF0, 0xFF, 0x03, 0x00, 0x00, 0x00, 0x00, 0x00, 0x00, 0x3F, 
  0x00, 0x00, 0x00, 0x00, 0x00, 0x00, 0x00, 0x00, 0x00, 0x00, 0x00, 0x00, 
  0x00, 0x00, 0x00, 0x00, 0x00, 0x00, 0x00, 0x00, 0x00, 0x00, 0x00, 0x00, 
  0x00, 0x00, 0x00, 0x00, 0x00, 0x00, 0x00, 0x00, 0x00, 0x00, 0x00, 0x00, 
  0x00, 0x00, 0x00, 0x00, 0x00, 0x00, 0x00, 0x00, 0x00, 0x00, 0x00, 0x00, 
  0x00, 0x00, 0x00, 0x00, 0x00, 0x00, 0x00, 0x00, 0x00, 0x00, 0x00, 0x00, 
  0x00, 0x00, 0x00, 0x00, 0x00, 0x00, 0x00, 0x00, 0x00, 0x00, 0x00, 0x00, 
  0x00, 0x00, 0x00, 0x00, 0x00, 0x00, 0x00, 0x00, 0x00, 0x00, 0x00, 0x00, 
  0x00, 0x00, 0x00, 0x00, 0x00, 0x00, 0x00, 0x00, 0x00, 0x00, 0x00, 0x00, 
  0x00, 0x00, 0x00, 0x00, 0x00, 0x00, 0x00, 0x00, 0x00, 0x00, 0x00, 0x00, 
  0x00, 0x00, 0x00, 0x00, 0x00, 0x00, 0x00, 0x00, 0x00, 0x00, 0x00, 0x00, 
  0x00, 0x00, 0x00, 0x00, 0x00, 0x00, 0x00, 0x00, 0x00, 0x00, 0x00, 0x00, 
  0x00, 0x00, 0x00, 0x00, 0x00, 0x00, 0x00, 0x00, 0x00, 0x00, 0x00, 0x00, 
  0x00, 0x00, 0x00, 0x00, 0x00, 0x00, 0x00, 0x00, 0x00, 0x00, 0x00, 0x00, 
  0x00, 0x00, 0x00, 0x00, 0x00, 0x00, 0x00, 0x00, };
