#define _037_width 59
#define _037_height 100
static char _037_bits[] = {
  0x00, 0x00, 0x00, 0x00, 0x00, 0x00, 0x00, 0x00, 0x00, 0x00, 0x00, 0x00, 
  0x00, 0x00, 0x00, 0x00, 0x00, 0x00, 0x00, 0x00, 0x00, 0x00, 0x00, 0x00, 
  0x00, 0x00, 0x00, 0x00, 0x00, 0x00, 0x00, 0x00, 0x00, 0x00, 0x00, 0x00, 
  0x00, 0x00, 0x00, 0x00, 0x00, 0x00, 0x00, 0x00, 0x00, 0x00, 0x00, 0x00, 
  0x00, 0x00, 0x00, 0x00, 0x00, 0x00, 0x00, 0x00, 0x00, 0x00, 0x00, 0x00, 
  0x00, 0x00, 0x00, 0x00, 0x00, 0x00, 0x00, 0x00, 0x00, 0x00, 0x00, 0x00, 
  0x00, 0x00, 0x00, 0x00, 0x00, 0x00, 0x00, 0x00, 0x00, 0x00, 0x00, 0x00, 
  0x00, 0x00, 0x00, 0x00, 0x00, 0x00, 0x00, 0x00, 0x00, 0x00, 0x00, 0x00, 
  0x00, 0x00, 0x00, 0x00, 0x00, 0x00, 0x00, 0x00, 0x00, 0x00, 0x00, 0x00, 
  0x00, 0x00, 0x00, 0x00, 0x00, 0x00, 0x00, 0x00, 0x00, 0x00, 0x00, 0x00, 
  0x00, 0x00, 0x00, 0x00, 0x00, 0x00, 0x00, 0x00, 0x00, 0x00, 0x00, 0x00, 
  0x00, 0x00, 0x00, 0x00, 0x00, 0x00, 0x00, 0x00, 0x00, 0x00, 0x00, 0x00, 
  0x00, 0x00, 0x00, 0x00, 0x00, 0x00, 0x00, 0x00, 0x00, 0x00, 0x00, 0x00, 
  0x00, 0x00, 0x00, 0x00, 0x00, 0x00, 0x00, 0x00, 0x00, 0x00, 0x00, 0x00, 
  0x00, 0x00, 0x00, 0x00, 0x00, 0x00, 0x00, 0x00, 0x00, 0x00, 0x00, 0x00, 
  0x00, 0x00, 0x00, 0x00, 0x00, 0x00, 0x00, 0x00, 0x00, 0x00, 0x00, 0x00, 
  0x00, 0x00, 0x00, 0x00, 0x00, 0x00, 0x00, 0x00, 0x00, 0xF8, 0x01, 0x00, 
  0x00, 0x00, 0x00, 0x00, 0x00, 0xFE, 0x07, 0x00, 0x00, 0x3E, 0x00, 0x00, 
  0x00, 0xFF, 0x0F, 0x00, 0x00, 0x1F, 0x00, 0x00, 0x80, 0xFF, 0x1F, 0x00, 
  0x00, 0x1F, 0x00, 0x00, 0xC0, 0x0F, 0x3F, 0x00, 0x80, 0x0F, 0x00, 0x00, 
  0xE0, 0x07, 0x3E, 0x00, 0x80, 0x0F, 0x00, 0x00, 0xE0, 0x03, 0x7C, 0x00, 
  0xC0, 0x07, 0x00, 0x00, 0xE0, 0x03, 0x7C, 0x00, 0xC0, 0x07, 0x00, 0x00, 
  0xF0, 0x01, 0xF8, 0x00, 0xE0, 0x03, 0x00, 0x00, 0xF0, 0x01, 0xF8, 0x00, 
  0xF0, 0x03, 0x00, 0x00, 0xF0, 0x01, 0xF8, 0x00, 0xF0, 0x01, 0x00, 0x00, 
  0xF0, 0x01, 0xF8, 0x00, 0xF8, 0x00, 0x00, 0x00, 0xF0, 0x01, 0xF0, 0x00, 
  0xF8, 0x00, 0x00, 0x00, 0xF0, 0x01, 0xF0, 0x00, 0x7C, 0x00, 0x00, 0x00, 
  0xF0, 0x01, 0xF0, 0x00, 0x7C, 0x00, 0x00, 0x00, 0xF0, 0x01, 0xF0, 0x00, 
  0x3E, 0x00, 0x00, 0x00, 0xF0, 0x01, 0xF0, 0x00, 0x3E, 0x00, 0x00, 0x00, 
  0xF0, 0x01, 0xF0, 0x00, 0x1F, 0x00, 0x00, 0x00, 0xF0, 0x01, 0xF0, 0x80, 
  0x1F, 0x00, 0x00, 0x00, 0xF0, 0x01, 0xF0, 0x80, 0x0F, 0x00, 0x00, 0x00, 
  0xF0, 0x01, 0xF8, 0xC0, 0x07, 0x00, 0x00, 0x00, 0xF0, 0x01, 0xF8, 0xC0, 
  0x07, 0xFC, 0x00, 0x00, 0xF0, 0x01, 0xF8, 0xE0, 0x03, 0xFF, 0x03, 0x00, 
  0xE0, 0x01, 0xF8, 0xE0, 0xC3, 0xFF, 0x07, 0x00, 0xE0, 0x03, 0x7C, 0xF0, 
  0xC1, 0xFF, 0x0F, 0x00, 0xE0, 0x03, 0x7C, 0xF0, 0xE1, 0xC7, 0x1F, 0x00, 
  0xC0, 0x07, 0x7E, 0xF8, 0xF0, 0x03, 0x1F, 0x00, 0xC0, 0x9F, 0x3F, 0xFC, 
  0xF0, 0x01, 0x3E, 0x00, 0x80, 0xFF, 0x1F, 0x7C, 0xF0, 0x00, 0x3E, 0x00, 
  0x00, 0xFF, 0x1F, 0x3E, 0xF8, 0x00, 0x3C, 0x00, 0x00, 0xFE, 0x07, 0x3E, 
  0xF8, 0x00, 0x7C, 0x00, 0x00, 0xF8, 0x01, 0x1F, 0xF8, 0x00, 0x7C, 0x00, 
  0x00, 0x00, 0x00, 0x1F, 0xF8, 0x00, 0x7C, 0x00, 0x00, 0x00, 0x80, 0x0F, 
  0x78, 0x00, 0x7C, 0x00, 0x00, 0x00, 0x80, 0x0F, 0x78, 0x00, 0x7C, 0x00, 
  0x00, 0x00, 0xC0, 0x07, 0x78, 0x00, 0x7C, 0x00, 0x00, 0x00, 0xE0, 0x07, 
  0x7C, 0x00, 0x78, 0x00, 0x00, 0x00, 0xE0, 0x03, 0x7C, 0x00, 0x7C, 0x00, 
  0x00, 0x00, 0xF0, 0x01, 0x78, 0x00, 0x7C, 0x00, 0x00, 0x00, 0xF0, 0x01, 
  0x78, 0x00, 0x7C, 0x00, 0x00, 0x00, 0xF8, 0x00, 0x78, 0x00, 0x7C, 0x00, 
  0x00, 0x00, 0xF8, 0x00, 0xF8, 0x00, 0x7C, 0x00, 0x00, 0x00, 0x7C, 0x00, 
  0xF8, 0x00, 0x7C, 0x00, 0x00, 0x00, 0x7E, 0x00, 0xF8, 0x00, 0x7C, 0x00, 
  0x00, 0x00, 0x3E, 0x00, 0xF8, 0x00, 0x3C, 0x00, 0x00, 0x00, 0x3F, 0x00, 
  0xF0, 0x00, 0x3E, 0x00, 0x00, 0x00, 0x1F, 0x00, 0xF0, 0x01, 0x3E, 0x00, 
  0x00, 0x80, 0x0F, 0x00, 0xF0, 0x03, 0x1F, 0x00, 0x00, 0x80, 0x0F, 0x00, 
  0xE0, 0xC7, 0x1F, 0x00, 0x00, 0xC0, 0x07, 0x00, 0xC0, 0xFF, 0x0F, 0x00, 
  0x00, 0xC0, 0x07, 0x00, 0xC0, 0xFF, 0x07, 0x00, 0x00, 0xE0, 0x03, 0x00, 
  0x00, 0xFF, 0x03, 0x00, 0x00, 0x00, 0x00, 0x00, 0x00, 0xFC, 0x00, 0x00, 
  0x00, 0x00, 0x00, 0x00, 0x00, 0x00, 0x00, 0x00, 0x00, 0x00, 0x00, 0x00, 
  0x00, 0x00, 0x00, 0x00, 0x00, 0x00, 0x00, 0x00, 0x00, 0x00, 0x00, 0x00, 
  0x00, 0x00, 0x00, 0x00, 0x00, 0x00, 0x00, 0x00, 0x00, 0x00, 0x00, 0x00, 
  0x00, 0x00, 0x00, 0x00, 0x00, 0x00, 0x00, 0x00, 0x00, 0x00, 0x00, 0x00, 
  0x00, 0x00, 0x00, 0x00, 0x00, 0x00, 0x00, 0x00, 0x00, 0x00, 0x00, 0x00, 
  0x00, 0x00, 0x00, 0x00, 0x00, 0x00, 0x00, 0x00, 0x00, 0x00, 0x00, 0x00, 
  0x00, 0x00, 0x00, 0x00, 0x00, 0x00, 0x00, 0x00, 0x00, 0x00, 0x00, 0x00, 
  0x00, 0x00, 0x00, 0x00, 0x00, 0x00, 0x00, 0x00, 0x00, 0x00, 0x00, 0x00, 
  0x00, 0x00, 0x00, 0x00, 0x00, 0x00, 0x00, 0x00, 0x00, 0x00, 0x00, 0x00, 
  0x00, 0x00, 0x00, 0x00, 0x00, 0x00, 0x00, 0x00, 0x00, 0x00, 0x00, 0x00, 
  0x00, 0x00, 0x00, 0x00, 0x00, 0x00, 0x00, 0x00, 0x00, 0x00, 0x00, 0x00, 
  0x00, 0x00, 0x00, 0x00, 0x00, 0x00, 0x00, 0x00, 0x00, 0x00, 0x00, 0x00, 
  0x00, 0x00, 0x00, 0x00, 0x00, 0x00, 0x00, 0x00, 0x00, 0x00, 0x00, 0x00, 
  0x00, 0x00, 0x00, 0x00, 0x00, 0x00, 0x00, 0x00, 0x00, 0x00, 0x00, 0x00, 
  0x00, 0x00, 0x00, 0x00, 0x00, 0x00, 0x00, 0x00, };
