#define _037_width 58
#define _037_height 100
static char _037_bits[] = {
  0x00, 0x00, 0x00, 0x00, 0x00, 0x00, 0x00, 0x00, 0x00, 0x00, 0x00, 0x00, 
  0x00, 0x00, 0x00, 0x00, 0x00, 0x00, 0x00, 0x00, 0x00, 0x00, 0x00, 0x00, 
  0x00, 0x00, 0x00, 0x00, 0x00, 0x00, 0x00, 0x00, 0x00, 0x00, 0x00, 0x00, 
  0x00, 0x00, 0x00, 0x00, 0x00, 0x00, 0x00, 0x00, 0x00, 0x00, 0x00, 0x00, 
  0x00, 0x00, 0x00, 0x00, 0x00, 0x00, 0x00, 0x00, 0x00, 0x00, 0x00, 0x00, 
  0x00, 0x00, 0x00, 0x00, 0x00, 0x00, 0x00, 0x00, 0x00, 0x00, 0x00, 0x00, 
  0x00, 0x00, 0x00, 0x00, 0x00, 0x00, 0x00, 0x00, 0x00, 0x00, 0x00, 0x00, 
  0x00, 0x00, 0x00, 0x00, 0x00, 0x00, 0x00, 0x00, 0x00, 0x00, 0x00, 0x00, 
  0x00, 0x00, 0x00, 0x00, 0x00, 0x00, 0x00, 0x00, 0x00, 0x00, 0x00, 0x00, 
  0x00, 0x00, 0x00, 0x00, 0x00, 0x00, 0x00, 0x00, 0x00, 0x00, 0x00, 0x00, 
  0x00, 0x00, 0x00, 0x00, 0x00, 0x00, 0x00, 0x00, 0x00, 0x00, 0x00, 0x00, 
  0x00, 0x00, 0x00, 0x00, 0x00, 0x00, 0x00, 0x00, 0x00, 0x00, 0x00, 0x00, 
  0x00, 0x00, 0x00, 0x00, 0x00, 0x00, 0x00, 0x00, 0x00, 0x00, 0x7E, 0x00, 
  0x00, 0x00, 0x00, 0x00, 0x00, 0x80, 0xFF, 0x01, 0x00, 0x00, 0x00, 0x00, 
  0x00, 0xC0, 0xFF, 0x03, 0x00, 0x00, 0x00, 0x00, 0x00, 0xE0, 0xFF, 0x07, 
  0x00, 0x00, 0xF0, 0x00, 0x00, 0xF0, 0xFF, 0x07, 0x00, 0x00, 0xF8, 0x00, 
  0x00, 0xF8, 0xC1, 0x0F, 0x00, 0x00, 0x7C, 0x00, 0x00, 0x78, 0x80, 0x0F, 
  0x00, 0x00, 0x3C, 0x00, 0x00, 0x3C, 0x00, 0x1F, 0x00, 0x00, 0x1E, 0x00, 
  0x00, 0x1E, 0x00, 0x1F, 0x00, 0x00, 0x1F, 0x00, 0x00, 0x1E, 0x00, 0x1E, 
  0x00, 0x80, 0x0F, 0x00, 0x00, 0x0F, 0x00, 0x1E, 0x00, 0x80, 0x07, 0x00, 
  0x00, 0x0F, 0x00, 0x1E, 0x00, 0xC0, 0x03, 0x00, 0x00, 0x07, 0x00, 0x1E, 
  0x00, 0xE0, 0x01, 0x00, 0x80, 0x07, 0x00, 0x1E, 0x00, 0xF0, 0x01, 0x00, 
  0x80, 0x07, 0x00, 0x1E, 0x00, 0xF0, 0x00, 0x00, 0x80, 0x07, 0x00, 0x1E, 
  0x00, 0x78, 0x00, 0x00, 0x80, 0x03, 0x00, 0x1E, 0x00, 0x3C, 0x00, 0x00, 
  0xC0, 0x03, 0x00, 0x0E, 0x00, 0x3E, 0x00, 0x00, 0xC0, 0x03, 0x00, 0x0F, 
  0x00, 0x1F, 0x00, 0x00, 0xC0, 0x03, 0x00, 0x0F, 0x00, 0x0F, 0x00, 0x00, 
  0xC0, 0x03, 0x00, 0x0F, 0x80, 0x07, 0x00, 0x00, 0xC0, 0x03, 0x80, 0x07, 
  0xC0, 0x07, 0x00, 0x00, 0xC0, 0x03, 0x80, 0x07, 0xE0, 0x03, 0x00, 0x00, 
  0xC0, 0x03, 0x80, 0x03, 0xE0, 0x01, 0x00, 0x00, 0xC0, 0x03, 0xC0, 0x03, 
  0xF0, 0x00, 0x00, 0x00, 0xC0, 0x07, 0xC0, 0x01, 0x78, 0x00, 0x00, 0x00, 
  0x80, 0x07, 0xE0, 0x01, 0x7C, 0x00, 0x00, 0x00, 0x80, 0x0F, 0xF0, 0x00, 
  0x3C, 0x00, 0x00, 0x00, 0x80, 0x0F, 0xF8, 0x00, 0x1E, 0x00, 0x00, 0x00, 
  0x00, 0x3F, 0x7C, 0x00, 0x0F, 0x00, 0x00, 0x00, 0x00, 0xFF, 0x3F, 0x80, 
  0x0F, 0x00, 0x00, 0x00, 0x00, 0xFE, 0x1F, 0xC0, 0x07, 0x00, 0x00, 0x00, 
  0x00, 0xFC, 0x0F, 0xC0, 0x03, 0x00, 0x00, 0x00, 0x00, 0xF0, 0x01, 0xE0, 
  0x01, 0x00, 0x00, 0x00, 0x00, 0x00, 0x00, 0xF0, 0x01, 0x00, 0x00, 0x00, 
  0x00, 0x00, 0x00, 0xF8, 0x00, 0xF8, 0x01, 0x00, 0x00, 0x00, 0x00, 0x78, 
  0x00, 0xFE, 0x07, 0x00, 0x00, 0x00, 0x00, 0x3C, 0x00, 0xFF, 0x0F, 0x00, 
  0x00, 0x00, 0x00, 0x1E, 0x80, 0xFF, 0x1F, 0x00, 0x00, 0x00, 0x00, 0x1F, 
  0xC0, 0xFF, 0x1F, 0x00, 0x00, 0x00, 0x00, 0x0F, 0xE0, 0x07, 0x3F, 0x00, 
  0x00, 0x00, 0x80, 0x07, 0xE0, 0x01, 0x3E, 0x00, 0x00, 0x00, 0xC0, 0x03, 
  0xF0, 0x00, 0x7C, 0x00, 0x00, 0x00, 0xE0, 0x03, 0x78, 0x00, 0x7C, 0x00, 
  0x00, 0x00, 0xF0, 0x01, 0x78, 0x00, 0x78, 0x00, 0x00, 0x00, 0xF0, 0x00, 
  0x3C, 0x00, 0x78, 0x00, 0x00, 0x00, 0x78, 0x00, 0x3C, 0x00, 0x78, 0x00, 
  0x00, 0x00, 0x7C, 0x00, 0x1C, 0x00, 0x78, 0x00, 0x00, 0x00, 0x3E, 0x00, 
  0x1E, 0x00, 0x78, 0x00, 0x00, 0x00, 0x1E, 0x00, 0x1E, 0x00, 0x78, 0x00, 
  0x00, 0x00, 0x0F, 0x00, 0x1E, 0x00, 0x78, 0x00, 0x00, 0x80, 0x07, 0x00, 
  0x0E, 0x00, 0x78, 0x00, 0x00, 0xC0, 0x07, 0x00, 0x0F, 0x00, 0x38, 0x00, 
  0x00, 0xC0, 0x03, 0x00, 0x0F, 0x00, 0x3C, 0x00, 0x00, 0xE0, 0x01, 0x00, 
  0x0F, 0x00, 0x3C, 0x00, 0x00, 0xF0, 0x00, 0x00, 0x0F, 0x00, 0x3C, 0x00, 
  0x00, 0xF8, 0x00, 0x00, 0x0F, 0x00, 0x1E, 0x00, 0x00, 0x7C, 0x00, 0x00, 
  0x0F, 0x00, 0x1E, 0x00, 0x00, 0x3C, 0x00, 0x00, 0x0F, 0x00, 0x0E, 0x00, 
  0x00, 0x1E, 0x00, 0x00, 0x0F, 0x00, 0x0F, 0x00, 0x00, 0x1F, 0x00, 0x00, 
  0x1F, 0x00, 0x07, 0x00, 0x80, 0x0F, 0x00, 0x00, 0x1E, 0x80, 0x07, 0x00, 
  0x80, 0x07, 0x00, 0x00, 0x3E, 0xC0, 0x03, 0x00, 0xC0, 0x03, 0x00, 0x00, 
  0x3E, 0xE0, 0x03, 0x00, 0xE0, 0x01, 0x00, 0x00, 0xFC, 0xF0, 0x01, 0x00, 
  0xF0, 0x01, 0x00, 0x00, 0xFC, 0xFF, 0x00, 0x00, 0xF0, 0x00, 0x00, 0x00, 
  0xF8, 0x7F, 0x00, 0x00, 0x78, 0x00, 0x00, 0x00, 0xF0, 0x3F, 0x00, 0x00, 
  0x00, 0x00, 0x00, 0x00, 0xC0, 0x07, 0x00, 0x00, 0x00, 0x00, 0x00, 0x00, 
  0x00, 0x00, 0x00, 0x00, 0x00, 0x00, 0x00, 0x00, 0x00, 0x00, 0x00, 0x00, 
  0x00, 0x00, 0x00, 0x00, 0x00, 0x00, 0x00, 0x00, 0x00, 0x00, 0x00, 0x00, 
  0x00, 0x00, 0x00, 0x00, 0x00, 0x00, 0x00, 0x00, 0x00, 0x00, 0x00, 0x00, 
  0x00, 0x00, 0x00, 0x00, 0x00, 0x00, 0x00, 0x00, 0x00, 0x00, 0x00, 0x00, 
  0x00, 0x00, 0x00, 0x00, 0x00, 0x00, 0x00, 0x00, 0x00, 0x00, 0x00, 0x00, 
  0x00, 0x00, 0x00, 0x00, 0x00, 0x00, 0x00, 0x00, 0x00, 0x00, 0x00, 0x00, 
  0x00, 0x00, 0x00, 0x00, 0x00, 0x00, 0x00, 0x00, 0x00, 0x00, 0x00, 0x00, 
  0x00, 0x00, 0x00, 0x00, 0x00, 0x00, 0x00, 0x00, };
